<?xml version="1.0" encoding="utf-8"?>
<!-- Generator: Adobe Illustrator 22.0.1, SVG Export Plug-In . SVG Version: 6.00 Build 0)  -->
<svg version="1.1" xmlns="http://www.w3.org/2000/svg" xmlns:xlink="http://www.w3.org/1999/xlink" x="0px" y="0px"
	 viewBox="0 0 566.9 566.9" style="enable-background:new 0 0 566.9 566.9;" xml:space="preserve">
<style type="text/css">
	.st0{fill:#B3B3B3;}
	.st1{fill:#828282;}
	.st2{fill:url(#Facteur3ON_1_);}
	.st3{fill:url(#Facteur1ON_1_);}
	.st4{fill:url(#Facteur5ON_1_);}
	.st5{fill:url(#Facteur4ON_1_);}
	.st6{fill:url(#Facteur2ON_1_);}
	.st7{fill:url(#Facteur6ON_1_);}
	.st8{fill:url(#Facteur3OFF_1_);}
	.st9{fill:url(#Facteur1OFF_1_);}
	.st10{fill:url(#Facteur4OFF_1_);}
	.st11{fill:url(#Facteur5OFF_1_);}
	.st12{fill:url(#Facteur2OFF_1_);}
	.st13{fill:url(#Facteur6OFF_2_);}
</style>
<g id="Cercless">
	<path class="st0" d="M227.3,108.8c-5.3,0-10.2-3.3-12.1-8.5c-2.4-6.7,1.1-14,7.8-16.4c0.1,0,0.1,0,0.2-0.1c1.4-0.5,2.8-0.7,4.1-0.7
		c5.3,0,10.2,3.3,12.1,8.5c2.4,6.7-1.1,14-7.8,16.4c0,0-0.1,0-0.1,0.1C230,108.6,228.6,108.8,227.3,108.8"/>
	<path class="st0" d="M282.5,380.7l-0.5,0c0,0,0,0-0.1,0c-6.8-0.3-12.2-5.9-12.3-12.7v-0.2c0-0.1,0-0.3,0-0.4
		c0.3-6.9,6-12.3,12.8-12.3c0.2,0,0.3,0,0.5,0c0.1,0,0.1,0,0.2,0c7,0.4,12.3,6.3,12,13.3C295,375.3,289.3,380.7,282.5,380.7"/>
	<path class="st0" d="M178.5,553.9c0,5.2,4.4,9.5,9.7,9.5c5.4,0,9.6-4.3,9.6-9.5c0-5.4-4.2-9.7-9.6-9.7
		C182.8,544.2,178.5,548.5,178.5,553.9"/>
	<path class="st0" d="M246,544.3c-5.4,0-9.6,4.3-9.6,9.5c0,5.4,4.2,9.5,9.6,9.5c5.4,0,9.6-4.2,9.6-9.5
		C255.6,548.6,251.4,544.3,246,544.3"/>
	<path class="st0" d="M528.1,96c0,10.8,8.7,19.4,19.3,19.4c10.8,0,19.5-8.6,19.5-19.4c0-10.6-8.6-19.3-19.5-19.3
		C536.8,76.6,528.1,85.4,528.1,96"/>
	<path class="st0" d="M459.5,25.5c0,13.3,10.7,23.9,23.8,23.9c13.2,0,24-10.7,24-23.9c0-13.1-10.7-23.8-23.9-23.8
		C470.2,1.7,459.5,12.3,459.5,25.5"/>
	<path class="st0" d="M465.1,96c0,10.1,8.3,18.3,18.3,18.3c10-0.1,18.1-8.2,18.1-18.3c0-9.9-8-18.1-18.1-18.1
		C473.4,77.9,465.1,86.1,465.1,96"/>
	<path class="st0" d="M239.6,208.8c0,10,8.3,18.1,18.2,18.2c10.1,0,18.1-8.2,18.1-18.2c0-10.1-8-18.1-18.1-18.3
		C247.9,190.6,239.6,198.7,239.6,208.8"/>
	<path class="st0" d="M399.8,25.5c0,10.8,8.8,19.4,19.3,19.4c10.8-0.1,19.5-8.7,19.5-19.4c0-10.6-8.7-19.3-19.5-19.3
		C408.5,6.2,399.8,14.9,399.8,25.5"/>
	<path class="st0" d="M481,315.2c4.6,0,8.2-3.6,8.2-8.1c0-4.6-3.7-8.2-8.2-8.2c-4.4,0-8.2,3.7-8.2,8.4
		C472.9,311.7,476.6,315.2,481,315.2"/>
	<path class="st0" d="M357.9,354.3c6,0,10.8-4.9,10.8-11c0-6-4.8-10.9-10.8-10.9c-6,0-11,4.9-11,10.9
		C346.9,349.4,351.8,354.3,357.9,354.3"/>
	<path class="st0" d="M1.2,159c0,12.3,10.2,22.4,22.6,22.4c12.3,0,22.4-10,22.4-22.4c0-12.4-10-22.5-22.4-22.5
		C11.4,136.5,1.2,146.6,1.2,159"/>
	<path class="st0" d="M437.1,118c-9.7-10.4-26-11.1-36.5-1.4c-10.5,9.7-11.2,26.1-1.5,36.6l0,0c5.1,5.6,12.1,8.4,19.1,8.4
		c6.3,0,12.6-2.3,17.5-6.8c10.5-9.7,11.2-26.1,1.5-36.6h0L437.1,118z"/>
	<path class="st0" d="M479,187.3l-0.1-0.2c-4.9-13.4-19.6-20.3-33.1-15.5c-13.5,4.8-20.5,19.6-15.7,33.1l0,0.1v0l0,0
		C434,215.4,444,222,454.6,222c2.9,0,5.8-0.5,8.7-1.5C476.8,215.6,483.8,200.8,479,187.3L479,187.3L479,187.3z"/>
</g>
<g id="_x33_D_ON">
	<path id="Ombre_x5F_Facteur3ON" class="st1" d="M508.7,242c-10.6,0-19.9-6.4-24.2-15.6c-0.9-1.9-1.6-4-2-6.2
		c-29-85.2-110.3-147.1-204.2-147.1c-35.4,0-68.5,8.8-97.3,24.4c-1.7,1.2-3.5,2.3-5.5,3.1c-2.9,1.2-6.1,1.8-9.5,1.8
		c-14.3,0-26.2-11.6-26.6-25.8c-0.2-7.2,2.5-13.7,7.1-18.4l-2.6,2.6c-4.6,4.7-7.4,11.2-7.1,18.4c0.4,14.3,12.3,25.8,26.6,25.8
		c3.4,0,6.6-0.7,9.5-1.8c2-0.8,3.8-1.8,5.5-3.1c28.8-15.6,61.8-24.4,97.3-24.4c93.9,0,175.2,61.9,204.2,147.1c0.4,2.2,1.1,4.2,2,6.2
		c4.2,9.2,13.6,15.6,24.2,15.6c7.1,0,13.4-2.8,17.9-7.4l2.6-2.6C522,239.2,515.7,242,508.7,242z"/>
	<path id="Ombre_x5F_Facteur1ON_1_" class="st1" d="M500.7,268.9l-2.6,2.6c-3.7,3.8-6.2,8.8-6.9,14.3c-0.2,1.3-0.2,2.7-0.2,4.1
		c0,1,0.1,2,0.3,2.9c-0.4,55.1-22.3,104.7-57.9,140.9l2.6-2.6c35.6-36.2,57.5-85.8,57.9-140.9c-0.1-1-0.2-1.9-0.3-2.9
		c0-1.4,0-2.7,0.2-4.1C494.4,277.6,497,272.6,500.7,268.9z"/>
	<path id="Ombre_x5F_Facteur4ON" class="st1" d="M339.1,157c-4.5,4.6-7.2,11-7,18.1c0.2,7.8,4,14.8,9.7,19.5c1,0.8,2.1,1.6,3.2,2.3
		c27.4,20,45.8,52,46.9,88c0.8,25.1-7,48.3-20.6,66.8l-0.4,0.4c-1.4,1.4-2.6,3-3.6,4.7c-2.3,3.9-3.5,8.4-3.4,13.3
		c0.4,14,12.1,25.4,26.2,25.4c6.5,0,12.3-2.4,16.7-6.4c0.3-0.3,0.6-0.6,0.9-0.9l2.6-2.6c-0.3,0.3-0.6,0.6-0.9,0.9
		c-4.4,4-10.2,6.4-16.7,6.4c-14,0-25.7-11.4-26.2-25.4c-0.1-4.9,1.1-9.5,3.4-13.3c1-1.7,2.2-3.2,3.5-4.6l0.5-0.5
		c13.7-18.5,21.4-41.7,20.6-66.8c-1.1-36-19.4-68-46.9-88c-1.1-0.7-2.2-1.4-3.2-2.3c-5.7-4.7-9.5-11.6-9.7-19.5
		c-0.2-7.1,2.5-13.5,7-18.1L339.1,157z"/>
	<path id="Ombre2_x5F_Facteur5ON" class="st1" d="M297.6,176.7c1,0.1,2,0.2,3,0.2c6.9,0,13.1-2.8,17.6-7.3l2.6-2.6
		c-4.4,4.5-10.6,7.3-17.6,7.3c-1,0-2-0.1-3-0.2c-0.8-0.1-1.5-0.2-2.3-0.4c-5.4-0.8-10.9-1.2-16.5-1.2c-30,0-56.8,12-76,31.5
		l-2.6,2.6c19.2-19.5,46-31.5,76-31.5c5.6,0,11.1,0.4,16.5,1.2C296.1,176.4,296.8,176.6,297.6,176.7z"/>
	<path id="Ombre1_x5F_Facteur5ON" class="st1" d="M148.3,296.5c6.9,0,13.1-2.8,17.6-7.3l2.6-2.6c-4.4,4.5-10.6,7.3-17.6,7.3
		c-13.3,0-24.5-10.2-26-23.1c-0.1-0.7-0.1-1.5-0.2-2.2c-0.1-2.5,0.2-4.9,0.8-7.2c3.6-36.2,19.5-68.7,43.5-93.1l-2.6,2.6
		c-24,24.4-39.9,56.8-43.5,93.1c-0.6,2.3-0.9,4.7-0.8,7.2c0,0.8,0.1,1.5,0.2,2.2C123.9,286.3,135,296.5,148.3,296.5z"/>
	<path id="Ombre_x5F_Facteur6ON" class="st1" d="M138.5,342.6c-1.3-2.1-2.2-4.5-2.9-7c-0.4-1.8-0.7-3.6-0.8-5.5
		c-0.2-7.1,2.5-13.5,7-18.1l-2.6,2.6c-4.5,4.6-7.2,11-7,18.1c0.1,1.9,0.3,3.7,0.8,5.5c0.6,2.5,1.6,4.8,2.9,7
		c25.6,58.4,84.2,99.5,151.1,99.5c22.1,0,43-4.5,61.9-12.6c2.4-0.7,4.7-1.7,6.7-3.1c1.4-0.9,2.8-2,4-3.3l2.6-2.6
		c-1.2,1.2-2.5,2.3-4,3.3c-2,1.3-4.3,2.4-6.7,3.1c-18.9,8.1-39.8,12.6-61.9,12.6C222.7,442.1,164.1,400.9,138.5,342.6z"/>
	<path id="Ombre_x5F_Facteur1ON" class="st1" d="M234.1,535.6c-2.5-0.2-4.8-0.8-7.1-1.7c-9.6-3.8-16.6-13.1-17-24
		c-0.2-7.2,2.5-13.7,7.1-18.4l-2.6,2.6c-4.6,4.7-7.4,11.2-7.1,18.4c0.3,10.9,7.3,20.2,17,24c2.2,0.9,4.6,1.5,7.1,1.7
		c18.9,4.3,38.5,6.6,58.6,6.6c71.1,0,134.6-28.5,180.1-74.7l2.6-2.6c-45.5,46.2-109.1,74.7-180.1,74.7
		C272.6,542.2,253,539.9,234.1,535.6z"/>
	<path id="Ombre_x5F_Facteur2ON" class="st1" d="M160,506.5c-2.5-1-4.9-2.5-7-4.2c-74.4-46-125.5-127.4-128.3-220.1
		C22.6,213.9,47,151.8,88.6,105.4c0.9-1.4,2-2.7,3.2-3.9l-2.6,2.6c-1.2,1.2-2.2,2.5-3.2,3.9c-41.6,46.4-66,108.5-63.9,176.8
		C25,377.5,76,458.8,150.4,504.9c2.1,1.7,4.5,3.1,7,4.2c3.1,1.2,6.4,1.9,9.9,1.9c7.1,0,13.4-2.8,17.9-7.4l2.6-2.6
		c-4.5,4.6-10.8,7.4-17.9,7.4C166.4,508.4,163.1,507.7,160,506.5z"/>
</g>
<g id="ON_1_">
	<linearGradient id="Facteur3ON_1_" gradientUnits="userSpaceOnUse" x1="139.5089" y1="132.0736" x2="533.6843" y2="132.0736">
		<stop  offset="0" style="stop-color:#CF8D00"/>
		<stop  offset="1" style="stop-color:#B37A00"/>
	</linearGradient>
	<path id="Facteur3ON" class="st2" d="M530.8,205c1.3,2.5,2.2,5.2,2.6,8.1c0.2,1,0.2,2,0.3,3.1c0.4,14.3-10.8,25.8-25,25.8
		c-10.6,0-19.9-6.4-24.2-15.6c-0.9-1.9-1.6-4-2-6.2c-29-85.2-110.3-147.1-204.2-147.1c-35.4,0-68.5,8.8-97.3,24.4
		c-1.7,1.2-3.5,2.3-5.5,3.1c-2.9,1.2-6.1,1.8-9.5,1.8c-14.3,0-26.2-11.6-26.6-25.8c-0.3-8.2,3.4-15.6,9.2-20.3
		c2.2-1.7,4.6-3.1,7.3-4.1c35.7-19.3,76.8-30.2,120.7-30.2C393.5,22.1,494.7,99.1,530.8,205z"/>
	<linearGradient id="Facteur1ON_1_" gradientUnits="userSpaceOnUse" x1="210.0404" y1="401.8184" x2="545.1644" y2="401.8184">
		<stop  offset="0" style="stop-color:#9C154D"/>
		<stop  offset="1" style="stop-color:#80113F"/>
	</linearGradient>
	<path id="Facteur1ON" class="st3" d="M518.6,261.4c13.1,0,24.2,9.8,26.3,22.4c0.2,1.1,0.3,2.3,0.3,3.4c0,1.6-0.1,3.1-0.3,4.6
		C544.1,431,433.1,542.2,292.7,542.2c-20.1,0-39.7-2.3-58.6-6.6c-2.5-0.2-4.8-0.8-7.1-1.7c-9.6-3.8-16.6-13.1-17-24
		c-0.4-14.3,10.8-25.8,25-25.8c0.8,0,1.7,0,2.5,0.1c2.5,0.2,5,0.8,7.3,1.8c15,3.4,30.5,5.1,46.3,5.1c112.7,0,201.8-89.3,202.6-200.9
		c-0.1-1-0.2-1.9-0.3-2.9c0-1.4,0-2.7,0.2-4.1C495.3,270.9,505.7,261.4,518.6,261.4z"/>
	<linearGradient id="Facteur5ON_1_" gradientUnits="userSpaceOnUse" x1="124.7058" y1="208.0667" x2="327.7757" y2="208.0667">
		<stop  offset="0" style="stop-color:#00A13E"/>
		<stop  offset="1" style="stop-color:#00782F"/>
	</linearGradient>
	<path id="Facteur5ON" class="st4" d="M311,125.3c9.5,3.7,16.4,12.9,16.8,23.6c0.4,14-10.6,25.4-24.6,25.4c-1,0-2-0.1-3-0.2
		c-0.8-0.1-1.5-0.2-2.3-0.4c-5.4-0.8-10.9-1.2-16.5-1.2c-56,0-100.9,41.9-105.9,96.1c0,1.7-0.1,3.4-0.4,5.1
		c-2,11.6-12,20.3-24.2,20.3c-13.3,0-24.5-10.2-26-23.1c-0.1-0.7-0.1-1.5-0.2-2.2c-0.1-2.5,0.2-4.9,0.8-7.2
		c7.8-78.5,73.1-139,154.3-139c6.9,0,13.7,0.4,20.4,1.3c0.5,0,0.9,0,1.4,0C304.9,123.5,308.1,124.1,311,125.3z"/>
	<linearGradient id="Facteur4ON_1_" gradientUnits="userSpaceOnUse" x1="334.6693" y1="269.9059" x2="444.7421" y2="269.9059">
		<stop  offset="0" style="stop-color:#A4D422"/>
		<stop  offset="1" style="stop-color:#8AB31D"/>
	</linearGradient>
	<path id="Facteur4ON" class="st5" d="M378.2,155.3c38.9,29.2,64.9,75.2,66.5,126.9c1.1,36.9-10.3,70.9-30.5,97.9
		c-1.3,2.3-2.9,4.4-4.9,6.2c-4.4,4-10.2,6.4-16.7,6.4c-14,0-25.7-11.4-26.2-25.4c-0.1-4.9,1.1-9.5,3.4-13.3c1.1-1.9,2.4-3.6,4-5.1
		c13.7-18.5,21.4-41.7,20.6-66.8c-1.1-36-19.4-68-46.9-88c-1.1-0.7-2.2-1.4-3.2-2.3c-5.7-4.7-9.5-11.6-9.7-19.5
		c-0.4-14,10.6-25.4,24.6-25.4c3.7,0,7.2,0.8,10.4,2.2C372.9,150.7,375.8,152.8,378.2,155.3z"/>
	<linearGradient id="Facteur2ON_1_" gradientUnits="userSpaceOnUse" x1="24.5907" y1="301.2202" x2="194.9054" y2="301.2202">
		<stop  offset="0" style="stop-color:#ED501C"/>
		<stop  offset="1" style="stop-color:#D14618"/>
	</linearGradient>
	<path id="Facteur2ON" class="st6" d="M184.7,462.5c6,4.7,10,12,10.2,20.1c0.4,14.3-10.8,25.8-25,25.8c-3.5,0-6.8-0.7-9.9-1.9
		c-2.5-1-4.9-2.5-7-4.2c-74.4-46-125.5-127.4-128.3-220.1C22.6,213.9,47,151.8,88.6,105.4c1.6-2.4,3.5-4.6,5.8-6.3
		c4.2-3.2,9.5-5.1,15.2-5.1c14.3,0,26.2,11.6,26.6,25.8c0.2,5.8-1.6,11.1-4.7,15.4c-1.2,1.7-2.6,3.2-4.2,4.5
		c-33.6,37.3-53.3,87.3-51.6,142.3c2.3,74.4,43.2,139.8,102.9,176.8C180.9,459.9,182.9,461.1,184.7,462.5z"/>
	<linearGradient id="Facteur6ON_1_" gradientUnits="userSpaceOnUse" x1="134.854" y1="373.4333" x2="369.2572" y2="373.4333">
		<stop  offset="0" style="stop-color:#005894"/>
		<stop  offset="1" style="stop-color:#00497A"/>
	</linearGradient>
	<path id="Facteur6ON" class="st7" d="M343.1,379.7c14,0,25.7,11.4,26.2,25.4c0.3,9-4.1,16.8-11,21.3c-2,1.3-4.3,2.4-6.7,3.1
		c-18.9,8.1-39.8,12.6-61.9,12.6c-66.9,0-125.5-41.1-151.1-99.5c-1.3-2.1-2.2-4.5-2.9-7c-0.4-1.8-0.7-3.6-0.8-5.5
		c-0.4-14,10.6-25.4,24.6-25.4c9.6,0,18.1,5.3,22.6,13.2c1.2,2,2.1,4.2,2.7,6.5c17.8,39.6,57.7,67.4,103.3,67.4
		c14.9,0,28.9-3,41.7-8.3c1.9-1.2,3.9-2.1,6.1-2.8C338.2,380.1,340.6,379.7,343.1,379.7z"/>
</g>
<g id="_x33_D_OFF">
	<path id="Ombre_x5F_Facteur3OFF" class="st1" d="M510.4,240.3c-10.6,0-19.9-6.4-24.2-15.6c-0.9-1.9-1.6-4-2-6.2
		c-29-85.2-110.3-147.1-204.2-147.1c-35.4,0-68.5,8.8-97.3,24.4c-1.7,1.2-3.5,2.3-5.5,3.1c-2.9,1.2-6.1,1.8-9.5,1.8
		c-14.3,0-26.2-11.6-26.6-25.8c-0.2-7.2,2.5-13.7,7.1-18.4l-6,6.1c-4.6,4.7-7.4,11.2-7.1,18.4c0.4,14.3,12.3,25.8,26.6,25.8
		c3.4,0,6.6-0.7,9.5-1.8c2-0.8,3.8-1.8,5.5-3.1c28.8-15.6,61.8-24.4,97.3-24.4c93.9,0,175.2,61.9,204.2,147.1c0.4,2.2,1.1,4.2,2,6.2
		c4.2,9.2,13.6,15.6,24.2,15.6c7.1,0,13.4-2.8,17.9-7.4l6-6.1C523.7,237.5,517.4,240.3,510.4,240.3z"/>
	<path id="Ombre_x5F_Facteur4OFF" class="st1" d="M337.4,158.7c-4.5,4.6-7.2,11-7,18.1c0.2,7.8,4,14.8,9.7,19.5
		c1,0.8,2.1,1.6,3.2,2.3c27.4,20,45.8,52,46.9,88c0.8,25.1-7,48.3-20.6,66.8l-0.4,0.4c-1.4,1.4-2.6,3-3.6,4.7
		c-2.3,3.9-3.5,8.4-3.4,13.3c0.4,14,12.1,25.4,26.2,25.4c6.5,0,12.3-2.4,16.7-6.4c0.3-0.3,0.6-0.6,0.9-0.9l6-6.1
		c-0.3,0.3-0.6,0.6-0.9,0.9c-4.4,4-10.2,6.4-16.7,6.4c-14,0-25.7-11.4-26.2-25.4c-0.1-4.9,1.1-9.5,3.4-13.3c1-1.7,2.2-3.2,3.5-4.6
		l0.5-0.5c13.7-18.5,21.4-41.7,20.6-66.8c-1.1-36-19.4-68-46.9-88c-1.1-0.7-2.2-1.4-3.2-2.3c-5.7-4.7-9.5-11.6-9.7-19.5
		c-0.2-7.1,2.5-13.5,7-18.1L337.4,158.7z"/>
	<path id="Ombre2_x5F_Facteur5OFF" class="st1" d="M295.9,178.4c1,0.1,2,0.2,3,0.2c6.9,0,13.1-2.8,17.6-7.3l6-6.1
		c-4.4,4.5-10.6,7.3-17.6,7.3c-1,0-2-0.1-3-0.2c-0.8-0.1-1.5-0.2-2.3-0.4c-5.4-0.8-10.9-1.2-16.5-1.2c-30,0-56.8,12-76,31.5l-6,6.1
		c19.2-19.5,46-31.5,76-31.5c5.6,0,11.1,0.4,16.5,1.2C294.3,178.2,295.1,178.3,295.9,178.4z"/>
	<path id="Ombre1_x5F_Facteur5OFF" class="st1" d="M146.6,298.2c6.9,0,13.1-2.8,17.6-7.3l6-6.1c-4.4,4.5-10.6,7.3-17.6,7.3
		c-13.3,0-24.5-10.2-26-23.1c-0.1-0.7-0.1-1.5-0.2-2.2c-0.1-2.5,0.2-4.9,0.8-7.2c3.6-36.2,19.5-68.7,43.5-93.1l-6,6.1
		c-24,24.4-39.9,56.8-43.5,93.1c-0.6,2.3-0.9,4.7-0.8,7.2c0,0.8,0.1,1.5,0.2,2.2C122.1,288.1,133.3,298.2,146.6,298.2z"/>
	<path id="Ombre_x5F_Facteur6OFF" class="st1" d="M140.2,340.8c-1.3-2.1-2.2-4.5-2.9-7c-0.4-1.8-0.7-3.6-0.8-5.5
		c-0.2-7.1,2.5-13.5,7-18.1l-6,6.1c-4.5,4.6-7.2,11-7,18.1c0.1,1.9,0.3,3.7,0.8,5.5c0.6,2.5,1.6,4.8,2.9,7
		c25.6,58.4,84.2,99.5,151.1,99.5c22.1,0,43-4.5,61.9-12.6c2.4-0.7,4.7-1.7,6.7-3.1c1.4-0.9,2.8-2,4-3.3l6-6.1
		c-1.2,1.2-2.5,2.3-4,3.3c-2,1.3-4.3,2.4-6.7,3.1c-18.9,8.1-39.8,12.6-61.9,12.6C224.4,440.3,165.8,399.2,140.2,340.8z"/>
	<path id="Ombre2_x5F_Facteur1OFF" class="st1" d="M502.4,267.1l-6,6.1c-3.7,3.8-6.2,8.8-6.9,14.3c-0.2,1.3-0.2,2.7-0.2,4.1
		c0,1,0.1,2,0.3,2.9c-0.4,55.1-22.3,104.7-57.9,140.9l6-6.1c35.6-36.2,57.5-85.8,57.9-140.9c-0.1-1-0.2-1.9-0.3-2.9
		c0-1.4,0-2.7,0.2-4.1C496.2,275.9,498.7,270.9,502.4,267.1z"/>
	<path id="Ombre1_x5F_Facteur1OFF" class="st1" d="M235.8,533.9c-2.5-0.2-4.8-0.8-7.1-1.7c-9.6-3.8-16.6-13.1-17-24
		c-0.2-7.2,2.5-13.7,7.1-18.4l-6,6.1c-4.6,4.7-7.4,11.2-7.1,18.4c0.3,10.9,7.3,20.2,17,24c2.2,0.9,4.6,1.5,7.1,1.7
		c18.9,4.3,38.5,6.6,58.6,6.6c71.1,0,134.6-28.5,180.1-74.7l6-6.1c-45.5,46.2-109.1,74.7-180.1,74.7
		C274.3,540.5,254.7,538.2,235.8,533.9z"/>
	<path id="Ombre_x5F_Facteur2OFF" class="st1" d="M161.7,504.7c-2.5-1-4.9-2.5-7-4.2c-74.4-46-125.5-127.4-128.3-220.1
		c-2.1-68.3,22.3-130.4,63.9-176.8c0.9-1.4,2-2.7,3.2-3.9l-6,6.1c-1.2,1.2-2.2,2.5-3.2,3.9c-41.6,46.4-66,108.5-63.9,176.8
		c2.8,92.7,53.9,174.1,128.3,220.1c2.1,1.7,4.5,3.1,7,4.2c3.1,1.2,6.4,1.9,9.9,1.9c7.1,0,13.4-2.8,17.9-7.4l6-6.1
		c-4.5,4.6-10.8,7.4-17.9,7.4C168.1,506.7,164.8,506,161.7,504.7z"/>
</g>
<g id="OFF_1_">
	<linearGradient id="Facteur3OFF_1_" gradientUnits="userSpaceOnUse" x1="141.219" y1="130.3371" x2="535.3944" y2="130.3371">
		<stop  offset="0" style="stop-color:#B37A00"/>
		<stop  offset="1" style="stop-color:#CF8D00"/>
	</linearGradient>
	<path id="Facteur3OFF" class="st8" d="M532.5,203.3c1.3,2.5,2.2,5.2,2.6,8.1c0.2,1,0.2,2,0.3,3.1c0.4,14.3-10.8,25.8-25,25.8
		c-10.6,0-19.9-6.4-24.2-15.6c-0.9-1.9-1.6-4-2-6.2c-29-85.2-110.3-147.1-204.2-147.1c-35.4,0-68.5,8.8-97.3,24.4
		c-1.7,1.2-3.5,2.3-5.5,3.1c-2.9,1.2-6.1,1.8-9.5,1.8c-14.3,0-26.2-11.6-26.6-25.8c-0.3-8.2,3.4-15.6,9.2-20.3
		c2.2-1.7,4.6-3.1,7.3-4.1c35.7-19.3,76.8-30.2,120.7-30.2C395.2,20.4,496.4,97.3,532.5,203.3z"/>
	<linearGradient id="Facteur1OFF_1_" gradientUnits="userSpaceOnUse" x1="211.7505" y1="400.0819" x2="546.8745" y2="400.0819">
		<stop  offset="0" style="stop-color:#80113F"/>
		<stop  offset="1" style="stop-color:#9C154D"/>
	</linearGradient>
	<path id="Facteur1OFF" class="st9" d="M520.3,259.7c13.1,0,24.2,9.8,26.3,22.4c0.2,1.1,0.3,2.3,0.3,3.4c0,1.6-0.1,3.1-0.3,4.6
		c-0.8,139.1-111.8,250.4-252.2,250.4c-20.1,0-39.7-2.3-58.6-6.6c-2.5-0.2-4.8-0.8-7.1-1.7c-9.6-3.8-16.6-13.1-17-24
		c-0.4-14.3,10.8-25.8,25-25.8c0.8,0,1.7,0,2.5,0.1c2.5,0.2,5,0.8,7.3,1.8c15,3.4,30.5,5.1,46.3,5.1c112.7,0,201.8-89.3,202.6-200.9
		c-0.1-1-0.2-1.9-0.3-2.9c0-1.4,0-2.7,0.2-4.1C497,269.1,507.4,259.7,520.3,259.7z"/>
	<linearGradient id="Facteur4OFF_1_" gradientUnits="userSpaceOnUse" x1="336.3794" y1="268.1694" x2="446.4522" y2="268.1694">
		<stop  offset="0" style="stop-color:#8AB31D"/>
		<stop  offset="1" style="stop-color:#A4D422"/>
	</linearGradient>
	<path id="Facteur4OFF" class="st10" d="M379.9,153.5c38.9,29.2,64.9,75.2,66.5,126.9c1.1,36.9-10.3,70.9-30.5,97.9
		c-1.3,2.3-2.9,4.4-4.9,6.2c-4.4,4-10.2,6.4-16.7,6.4c-14,0-25.7-11.4-26.2-25.4c-0.1-4.9,1.1-9.5,3.4-13.3c1.1-1.9,2.4-3.6,4-5.1
		c13.7-18.5,21.4-41.7,20.6-66.8c-1.1-36-19.4-68-46.9-88c-1.1-0.7-2.2-1.4-3.2-2.3c-5.7-4.7-9.5-11.6-9.7-19.5
		c-0.4-14,10.6-25.4,24.6-25.4c3.7,0,7.2,0.8,10.4,2.2C374.6,149,377.5,151,379.9,153.5z"/>
	<linearGradient id="Facteur5OFF_1_" gradientUnits="userSpaceOnUse" x1="126.4159" y1="206.3302" x2="329.4858" y2="206.3302">
		<stop  offset="0" style="stop-color:#00782F"/>
		<stop  offset="1" style="stop-color:#00A13E"/>
	</linearGradient>
	<path id="Facteur5OFF" class="st11" d="M312.7,123.5c9.5,3.7,16.4,12.9,16.8,23.6c0.4,14-10.6,25.4-24.6,25.4c-1,0-2-0.1-3-0.2
		c-0.8-0.1-1.5-0.2-2.3-0.4c-5.4-0.8-10.9-1.2-16.5-1.2c-56,0-100.9,41.9-105.9,96.1c0,1.7-0.1,3.4-0.4,5.1
		c-2,11.6-12,20.3-24.2,20.3c-13.3,0-24.5-10.2-26-23.1c-0.1-0.7-0.1-1.5-0.2-2.2c-0.1-2.5,0.2-4.9,0.8-7.2
		c7.8-78.5,73.1-139,154.3-139c6.9,0,13.7,0.4,20.4,1.3c0.5,0,0.9,0,1.4,0C306.6,121.7,309.8,122.4,312.7,123.5z"/>
	<linearGradient id="Facteur2OFF_1_" gradientUnits="userSpaceOnUse" x1="26.3008" y1="299.4837" x2="196.6155" y2="299.4837">
		<stop  offset="0" style="stop-color:#D14618"/>
		<stop  offset="1" style="stop-color:#ED501C"/>
	</linearGradient>
	<path id="Facteur2OFF" class="st12" d="M186.4,460.8c6,4.7,10,12,10.2,20.1c0.4,14.3-10.8,25.8-25,25.8c-3.5,0-6.8-0.7-9.9-1.9
		c-2.5-1-4.9-2.5-7-4.2c-74.4-46-125.5-127.4-128.3-220.1c-2.1-68.3,22.3-130.4,63.9-176.8c1.6-2.4,3.5-4.6,5.8-6.3
		c4.2-3.2,9.5-5.1,15.2-5.1c14.3,0,26.2,11.6,26.6,25.8c0.2,5.8-1.6,11.1-4.7,15.4c-1.2,1.7-2.6,3.2-4.2,4.5
		c-33.6,37.3-53.3,87.3-51.6,142.3c2.3,74.4,43.2,139.8,102.9,176.8C182.6,458.1,184.6,459.3,186.4,460.8z"/>
	<linearGradient id="Facteur6OFF_2_" gradientUnits="userSpaceOnUse" x1="136.5641" y1="371.6968" x2="370.9673" y2="371.6968">
		<stop  offset="0" style="stop-color:#00497A"/>
		<stop  offset="1" style="stop-color:#005894"/>
	</linearGradient>
	<path id="Facteur6OFF_1_" class="st13" d="M344.8,378c14,0,25.7,11.4,26.2,25.4c0.3,9-4.1,16.8-11,21.3c-2,1.3-4.3,2.4-6.7,3.1
		c-18.9,8.1-39.8,12.6-61.9,12.6c-66.9,0-125.5-41.1-151.1-99.5c-1.3-2.1-2.2-4.5-2.9-7c-0.4-1.8-0.7-3.6-0.8-5.5
		c-0.4-14,10.6-25.4,24.6-25.4c9.6,0,18.1,5.3,22.6,13.2c1.2,2,2.1,4.2,2.7,6.5c17.8,39.6,57.7,67.4,103.3,67.4
		c14.9,0,28.9-3,41.7-8.3c1.9-1.2,3.9-2.1,6.1-2.8C339.9,378.3,342.3,378,344.8,378z"/>
</g>
</svg>
