<?xml version="1.0" encoding="utf-8"?>
<!-- Generator: Adobe Illustrator 22.1.0, SVG Export Plug-In . SVG Version: 6.00 Build 0)  -->
<svg version="1.1" xmlns="http://www.w3.org/2000/svg" xmlns:xlink="http://www.w3.org/1999/xlink" x="0px" y="0px"
	 viewBox="0 0 110 95" style="enable-background:new 0 0 110 95;" xml:space="preserve">
<style type="text/css">
	.st0{fill:url(#SVGID_1_);}
	.st1{fill:url(#SVGID_2_);}
	.st2{fill:url(#SVGID_3_);}
	.st3{fill:url(#SVGID_4_);}
	.st4{fill:url(#SVGID_5_);}
	.st5{fill:url(#SVGID_6_);}
	.st6{fill:url(#SVGID_7_);}
	.st7{fill:url(#SVGID_8_);}
	.st8{fill:url(#SVGID_9_);}
	.st9{fill:url(#SVGID_10_);}
	.st10{fill:url(#SVGID_11_);}
	.st11{fill:url(#SVGID_12_);}
	.st12{fill:url(#SVGID_13_);}
	.st13{fill:url(#SVGID_14_);}
	.st14{fill:url(#SVGID_15_);}
	.st15{fill:url(#SVGID_16_);}
	.st16{fill:url(#SVGID_17_);}
	.st17{fill:url(#SVGID_18_);}
	.st18{fill:#FFFFFF;stroke:#FFFFFF;stroke-width:6;stroke-miterlimit:10;}
	.st19{font-family:'AcierBATText-Solid';}
	.st20{font-size:24.5329px;}
	.st21{fill:#575756;}
</style>
<g id="FAVICON_x5F_16">
</g>
<g id="FAVICON_x5F_32">
</g>
<g id="menu">
	
		<linearGradient id="SVGID_1_" gradientUnits="userSpaceOnUse" x1="35.8363" y1="-489.7654" x2="69.9634" y2="-489.7654" gradientTransform="matrix(1 0 0 1 0 551.2756)">
		<stop  offset="0" style="stop-color:#024A7A"/>
		<stop  offset="1" style="stop-color:#015996"/>
	</linearGradient>
	<path class="st0" d="M66.2,62.5c-0.4,0-0.7,0.1-1.1,0.2c-0.3,0.1-0.6,0.2-0.9,0.4c-1.9,0.8-4,1.2-6.2,1.2c-6.7,0-12.5-4.1-14.9-9.9
		c-0.1-0.3-0.2-0.7-0.4-1c-0.6-1.2-1.9-1.9-3.3-1.9c-2.1,0-3.7,1.7-3.7,3.7c0,0.3,0,0.6,0.1,0.8c0.1,0.4,0.2,0.7,0.4,1
		c3.5,8.6,11.9,14.6,21.8,14.6c3.2,0,6.3-0.7,9.2-1.9c0.4-0.1,0.7-0.3,1-0.4c1-0.7,1.7-1.8,1.7-3.1C70,64.1,68.3,62.5,66.2,62.5z"/>
	
		<linearGradient id="SVGID_2_" gradientUnits="userSpaceOnUse" x1="65.922" y1="-504.9676" x2="81.6059" y2="-504.9676" gradientTransform="matrix(1 0 0 1 0 551.2756)">
		<stop  offset="0" style="stop-color:#8BB325"/>
		<stop  offset="1" style="stop-color:#A4C72F"/>
	</linearGradient>
	<path class="st1" d="M72.4,29.4c-0.3-0.4-0.8-0.7-1.2-0.9c-0.5-0.2-1-0.3-1.5-0.3c-2.1,0-3.7,1.7-3.7,3.7c0,1.1,0.5,2.2,1.3,2.9
		c0.1,0.1,0.3,0.2,0.5,0.3c3.9,2.9,6.5,7.6,6.5,12.9c0,3.7-1.2,7.1-3.3,9.8c-0.2,0.2-0.4,0.5-0.6,0.8c-0.3,0.6-0.6,1.2-0.6,2
		c0,2.1,1.7,3.7,3.7,3.7c1,0,1.8-0.4,2.5-0.9c0.3-0.3,0.6-0.6,0.8-0.9c3.1-4,4.9-9,4.9-14.4C81.6,40.5,78,33.7,72.4,29.4z"/>
	
		<linearGradient id="SVGID_3_" gradientUnits="userSpaceOnUse" x1="34.605" y1="-514.0787" x2="65.0239" y2="-514.0787" gradientTransform="matrix(1 0 0 1 0 551.2756)">
		<stop  offset="0" style="stop-color:#067935"/>
		<stop  offset="1" style="stop-color:#10A13E"/>
	</linearGradient>
	<path class="st2" d="M42,46.9c0-0.2,0.1-0.5,0.1-0.7c1-8,7.8-14.1,16-14.1c0.8,0,1.6,0.1,2.4,0.2c0.1,0,0.2,0,0.3,0.1
		c0.1,0,0.3,0,0.4,0c2.1,0,3.7-1.7,3.7-3.7c0-1.6-1-2.9-2.4-3.5c-0.4-0.2-0.9-0.3-1.4-0.3c-0.1,0-0.1,0-0.2,0c-1-0.1-2-0.2-3-0.2
		c-12,0-21.8,8.9-23.3,20.5c-0.1,0.3-0.2,0.7-0.2,1.1c0,0.1,0,0.2,0,0.3c0.2,1.9,1.8,3.4,3.7,3.4C40.2,49.8,41.7,48.5,42,46.9z"/>
	
		<linearGradient id="SVGID_4_" gradientUnits="userSpaceOnUse" x1="46.0918" y1="-485.5648" x2="96.3698" y2="-485.5648" gradientTransform="matrix(1 0 0 1 0 551.2756)">
		<stop  offset="0" style="stop-color:#80123F"/>
		<stop  offset="1" style="stop-color:#9D174E"/>
	</linearGradient>
	<path class="st3" d="M96.3,48.4c-0.2-1.9-1.8-3.3-3.8-3.3c-1.9,0-3.5,1.4-3.8,3.2c0,0.2,0,0.4,0,0.6c0,0.1,0,0.3,0,0.4
		c-0.6,16.4-14.1,29.5-30.7,29.5c-2.3,0-4.6-0.3-6.8-0.8c-0.3-0.1-0.7-0.2-1.1-0.3c-0.1,0-0.2,0-0.4,0c-2.1,0-3.8,1.7-3.8,3.8
		c0,1.6,1,3,2.4,3.5c0.3,0.1,0.7,0.2,1,0.2c2.8,0.6,5.6,1,8.6,1c20.6,0,37.5-16.4,38.2-36.8c0-0.2,0.1-0.4,0.1-0.7
		C96.4,48.7,96.4,48.5,96.3,48.4z"/>
	
		<linearGradient id="SVGID_5_" gradientUnits="userSpaceOnUse" x1="19.8446" y1="-500.3541" x2="43.9627" y2="-500.3541" gradientTransform="matrix(1 0 0 1 0 551.2756)">
		<stop  offset="0" style="stop-color:#D24719"/>
		<stop  offset="1" style="stop-color:#E95221"/>
	</linearGradient>
	<path class="st4" d="M42.6,74.6c-0.3-0.2-0.6-0.4-0.9-0.5c-8.6-5.4-14.3-15.1-14.3-26c0-8.1,3.1-15.4,8.2-20.9
		c0.2-0.2,0.4-0.4,0.6-0.7c0.5-0.6,0.8-1.4,0.8-2.3c0-2.1-1.7-3.8-3.8-3.8c-0.8,0-1.6,0.3-2.3,0.8c-0.3,0.3-0.7,0.6-0.9,0.9
		c-6.3,6.8-10.2,16-10.2,26c0,13.6,7.1,25.6,17.9,32.4c0.3,0.3,0.6,0.5,1,0.6c0.4,0.2,0.9,0.3,1.4,0.3c2.1,0,3.8-1.7,3.8-3.8
		C44,76.4,43.4,75.3,42.6,74.6z"/>
	
		<linearGradient id="SVGID_6_" gradientUnits="userSpaceOnUse" x1="37.6758" y1="-525.2469" x2="95.0082" y2="-525.2469" gradientTransform="matrix(1 0 0 1 0 551.2756)">
		<stop  offset="0" style="stop-color:#B37A12"/>
		<stop  offset="1" style="stop-color:#CF8E09"/>
	</linearGradient>
	<path class="st5" d="M41.5,21.7c0.5,0,1-0.1,1.4-0.3c0.3-0.1,0.6-0.3,0.8-0.4c4.3-2.3,9.2-3.6,14.4-3.6c13.8,0,25.5,9.1,29.4,21.6
		c0,0.3,0.1,0.6,0.3,0.9c0.6,1.3,1.9,2.3,3.5,2.3c2.1,0,3.8-1.7,3.8-3.8c0-0.2,0-0.3,0-0.4c0-0.4-0.2-0.8-0.3-1.2
		C89.8,21.2,75.3,9.9,58.1,9.9c-6.5,0-12.6,1.6-17.9,4.4c-0.4,0.1-0.8,0.3-1.1,0.6c-0.9,0.7-1.4,1.8-1.4,3
		C37.7,20,39.4,21.7,41.5,21.7z"/>
	<text transform="matrix(1 0 0 1 12.7123 54.2485)" class="st18 st19 st20">accueil</text>
	<text transform="matrix(1 0 0 1 12.7126 55.6769)" class="st21 st19 st20">accueil</text>
</g>
</svg>
