<?xml version="1.0" encoding="utf-8"?>
<!-- Generator: Adobe Illustrator 22.1.0, SVG Export Plug-In . SVG Version: 6.00 Build 0)  -->
<svg version="1.1" xmlns="http://www.w3.org/2000/svg" xmlns:xlink="http://www.w3.org/1999/xlink" x="0px" y="0px"
	 viewBox="0 0 16 16" style="enable-background:new 0 0 16 16;" xml:space="preserve">
<style type="text/css">
	.st0{fill:url(#SVGID_1_);}
	.st1{fill:url(#SVGID_2_);}
	.st2{fill:url(#SVGID_3_);}
	.st3{fill:url(#SVGID_4_);}
	.st4{fill:url(#SVGID_5_);}
	.st5{fill:url(#SVGID_6_);}
	.st6{fill:url(#SVGID_7_);}
	.st7{fill:url(#SVGID_8_);}
	.st8{fill:url(#SVGID_9_);}
	.st9{fill:url(#SVGID_10_);}
	.st10{fill:url(#SVGID_11_);}
	.st11{fill:url(#SVGID_12_);}
	.st12{fill:url(#SVGID_13_);}
	.st13{fill:url(#SVGID_14_);}
	.st14{fill:url(#SVGID_15_);}
	.st15{fill:url(#SVGID_16_);}
	.st16{fill:url(#SVGID_17_);}
	.st17{fill:url(#SVGID_18_);}
	.st18{fill:#575756;}
</style>
<g id="FAVICON_x5F_16">
	<g id="BACKUP">
		
			<linearGradient id="SVGID_1_" gradientUnits="userSpaceOnUse" x1="3.6158" y1="-540.6365" x2="10.334" y2="-540.6365" gradientTransform="matrix(1 0 0 1 0 551.2756)">
			<stop  offset="0" style="stop-color:#024A7A"/>
			<stop  offset="1" style="stop-color:#015996"/>
		</linearGradient>
		<path class="st0" d="M9.6,10.8c-0.1,0-0.1,0-0.2,0c-0.1,0-0.1,0-0.2,0.1c-0.4,0.2-0.8,0.2-1.2,0.2c-1.3,0-2.5-0.8-2.9-2
			C5.1,9.2,5,9.1,5,9C4.9,8.8,4.6,8.7,4.4,8.7C3.9,8.7,3.6,9,3.6,9.4c0,0.1,0,0.1,0,0.2c0,0.1,0,0.1,0.1,0.2
			c0.7,1.7,2.3,2.9,4.3,2.9c0.6,0,1.2-0.1,1.8-0.4c0.1,0,0.1-0.1,0.2-0.1c0.2-0.1,0.3-0.4,0.3-0.6C10.3,11.2,10,10.8,9.6,10.8z"/>
		
			<linearGradient id="SVGID_2_" gradientUnits="userSpaceOnUse" x1="9.5384" y1="-543.6292" x2="12.6259" y2="-543.6292" gradientTransform="matrix(1 0 0 1 0 551.2756)">
			<stop  offset="0" style="stop-color:#8BB325"/>
			<stop  offset="1" style="stop-color:#A4C72F"/>
		</linearGradient>
		<path class="st1" d="M10.8,4.3c-0.1-0.1-0.1-0.1-0.2-0.2c-0.1,0-0.2-0.1-0.3-0.1c-0.4,0-0.7,0.3-0.7,0.7c0,0.2,0.1,0.4,0.3,0.6
			c0,0,0.1,0,0.1,0.1C10.7,6,11.2,7,11.2,8c0,0.7-0.2,1.4-0.7,1.9c0,0-0.1,0.1-0.1,0.1c-0.1,0.1-0.1,0.2-0.1,0.4
			c0,0.4,0.3,0.7,0.7,0.7c0.2,0,0.4-0.1,0.5-0.2c0.1-0.1,0.1-0.1,0.1-0.2c0.6-0.8,1-1.8,1-2.8C12.6,6.5,11.9,5.2,10.8,4.3z"/>
		
			<linearGradient id="SVGID_3_" gradientUnits="userSpaceOnUse" x1="3.3734" y1="-545.4228" x2="9.3616" y2="-545.4228" gradientTransform="matrix(1 0 0 1 0 551.2756)">
			<stop  offset="0" style="stop-color:#067935"/>
			<stop  offset="1" style="stop-color:#10A13E"/>
		</linearGradient>
		<path class="st2" d="M4.8,7.8c0,0,0-0.1,0-0.1C5,6,6.4,4.8,8,4.8c0.2,0,0.3,0,0.5,0c0,0,0,0,0.1,0c0,0,0.1,0,0.1,0
			c0.4,0,0.7-0.3,0.7-0.7c0-0.3-0.2-0.6-0.5-0.7c-0.1,0-0.2-0.1-0.3-0.1c0,0,0,0,0,0c-0.2,0-0.4,0-0.6,0c-2.4,0-4.3,1.8-4.6,4
			c0,0.1,0,0.1,0,0.2c0,0,0,0,0,0.1c0,0.4,0.3,0.7,0.7,0.7C4.5,8.3,4.8,8.1,4.8,7.8z"/>
		
			<linearGradient id="SVGID_4_" gradientUnits="userSpaceOnUse" x1="5.6346" y1="-539.8095" x2="15.5324" y2="-539.8095" gradientTransform="matrix(1 0 0 1 0 551.2756)">
			<stop  offset="0" style="stop-color:#80123F"/>
			<stop  offset="1" style="stop-color:#9D174E"/>
		</linearGradient>
		<path class="st3" d="M15.5,8c0-0.4-0.4-0.6-0.7-0.6c-0.4,0-0.7,0.3-0.7,0.6c0,0,0,0.1,0,0.1c0,0,0,0.1,0,0.1
			c-0.1,3.2-2.8,5.8-6,5.8c-0.5,0-0.9-0.1-1.3-0.1c-0.1,0-0.1,0-0.2-0.1c0,0,0,0-0.1,0c-0.4,0-0.7,0.3-0.7,0.7
			c0,0.3,0.2,0.6,0.5,0.7c0.1,0,0.1,0,0.2,0c0.5,0.1,1.1,0.2,1.7,0.2c4.1,0,7.4-3.2,7.5-7.3C15.5,8.2,15.5,8.2,15.5,8
			C15.5,8.1,15.5,8.1,15.5,8z"/>
		
			<linearGradient id="SVGID_5_" gradientUnits="userSpaceOnUse" x1="0.4676" y1="-542.7209" x2="5.2155" y2="-542.7209" gradientTransform="matrix(1 0 0 1 0 551.2756)">
			<stop  offset="0" style="stop-color:#D24719"/>
			<stop  offset="1" style="stop-color:#E95221"/>
		</linearGradient>
		<path class="st4" d="M4.9,13.2c-0.1,0-0.1-0.1-0.2-0.1C3.1,12,1.9,10.2,1.9,8c0-1.6,0.6-3,1.6-4.1c0,0,0.1-0.1,0.1-0.1
			c0.1-0.1,0.1-0.3,0.1-0.4c0-0.4-0.3-0.7-0.7-0.7c-0.2,0-0.3,0.1-0.4,0.1C2.6,2.8,2.5,2.8,2.5,2.9C1.2,4.2,0.5,6,0.5,8
			c0,2.7,1.4,5,3.5,6.4c0.1,0.1,0.1,0.1,0.2,0.1c0.1,0,0.2,0.1,0.3,0.1c0.4,0,0.7-0.3,0.7-0.7C5.2,13.6,5.1,13.4,4.9,13.2z"/>
		
			<linearGradient id="SVGID_6_" gradientUnits="userSpaceOnUse" x1="3.9779" y1="-547.6213" x2="15.2643" y2="-547.6213" gradientTransform="matrix(1 0 0 1 0 551.2756)">
			<stop  offset="0" style="stop-color:#B37A12"/>
			<stop  offset="1" style="stop-color:#CF8E09"/>
		</linearGradient>
		<path class="st5" d="M4.7,2.8c0.1,0,0.2,0,0.3-0.1c0.1,0,0.1-0.1,0.2-0.1C6,2.2,7,1.9,8,1.9c2.7,0,5,1.8,5.8,4.3
			c0,0.1,0,0.1,0.1,0.2c0.1,0.3,0.4,0.5,0.7,0.5c0.4,0,0.7-0.3,0.7-0.7c0,0,0-0.1,0-0.1c0-0.1,0-0.2-0.1-0.2c-1-3.1-3.8-5.3-7.2-5.3
			c-1.3,0-2.5,0.3-3.5,0.9c-0.1,0-0.2,0.1-0.2,0.1C4.1,1.6,4,1.8,4,2C4,2.5,4.3,2.8,4.7,2.8z"/>
	</g>
</g>
<g id="FAVICON_x5F_32">
</g>
<g id="menu">
</g>
</svg>
