<?xml version="1.0" encoding="utf-8"?>
<!-- Generator: Adobe Illustrator 22.1.0, SVG Export Plug-In . SVG Version: 6.00 Build 0)  -->
<svg version="1.1" xmlns="http://www.w3.org/2000/svg" xmlns:xlink="http://www.w3.org/1999/xlink" x="0px" y="0px"
	 viewBox="0 0 32 32" style="enable-background:new 0 0 32 32;" xml:space="preserve">
<style type="text/css">
	.st0{fill:url(#SVGID_1_);}
	.st1{fill:url(#SVGID_2_);}
	.st2{fill:url(#SVGID_3_);}
	.st3{fill:url(#SVGID_4_);}
	.st4{fill:url(#SVGID_5_);}
	.st5{fill:url(#SVGID_6_);}
	.st6{fill:url(#SVGID_7_);}
	.st7{fill:url(#SVGID_8_);}
	.st8{fill:url(#SVGID_9_);}
	.st9{fill:url(#SVGID_10_);}
	.st10{fill:url(#SVGID_11_);}
	.st11{fill:url(#SVGID_12_);}
	.st12{fill:url(#SVGID_13_);}
	.st13{fill:url(#SVGID_14_);}
	.st14{fill:url(#SVGID_15_);}
	.st15{fill:url(#SVGID_16_);}
	.st16{fill:url(#SVGID_17_);}
	.st17{fill:url(#SVGID_18_);}
	.st18{fill:#575756;}
</style>
<g id="FAVICON_x5F_16">
</g>
<g id="FAVICON_x5F_32">
	<g id="BACKUP_1_">
		
			<linearGradient id="SVGID_1_" gradientUnits="userSpaceOnUse" x1="7.1309" y1="-529.9368" x2="20.7216" y2="-529.9368" gradientTransform="matrix(1 0 0 1 0 551.2756)">
			<stop  offset="0" style="stop-color:#024A7A"/>
			<stop  offset="1" style="stop-color:#015996"/>
		</linearGradient>
		<path class="st0" d="M19.2,21.7c-0.1,0-0.3,0-0.4,0.1c-0.1,0-0.3,0.1-0.4,0.2c-0.8,0.3-1.6,0.5-2.5,0.5c-2.7,0-5-1.6-5.9-4
			c0-0.1-0.1-0.3-0.1-0.4c-0.3-0.5-0.7-0.8-1.3-0.8c-0.8,0-1.5,0.7-1.5,1.5c0,0.1,0,0.2,0,0.3c0,0.1,0.1,0.3,0.2,0.4
			c1.4,3.4,4.8,5.8,8.7,5.8c1.3,0,2.5-0.3,3.6-0.7c0.1,0,0.3-0.1,0.4-0.2c0.4-0.3,0.7-0.7,0.7-1.3C20.7,22.4,20.1,21.7,19.2,21.7z"
			/>
		
			<linearGradient id="SVGID_2_" gradientUnits="userSpaceOnUse" x1="19.1121" y1="-535.9908" x2="25.358" y2="-535.9908" gradientTransform="matrix(1 0 0 1 0 551.2756)">
			<stop  offset="0" style="stop-color:#8BB325"/>
			<stop  offset="1" style="stop-color:#A4C72F"/>
		</linearGradient>
		<path class="st1" d="M21.7,8.6c-0.1-0.1-0.3-0.3-0.5-0.4c-0.2-0.1-0.4-0.1-0.6-0.1c-0.8,0-1.5,0.7-1.5,1.5c0,0.5,0.2,0.9,0.5,1.1
			c0.1,0,0.1,0.1,0.2,0.1c1.6,1.2,2.6,3,2.6,5.2c0,1.5-0.5,2.8-1.3,3.9c-0.1,0.1-0.2,0.2-0.2,0.3c-0.1,0.2-0.2,0.5-0.2,0.8
			c0,0.8,0.7,1.5,1.5,1.5c0.4,0,0.7-0.1,1-0.4c0.1-0.1,0.2-0.2,0.3-0.4c1.2-1.6,2-3.6,2-5.7C25.4,13,23.9,10.3,21.7,8.6z"/>
		
			<linearGradient id="SVGID_3_" gradientUnits="userSpaceOnUse" x1="6.6406" y1="-539.6193" x2="18.7545" y2="-539.6193" gradientTransform="matrix(1 0 0 1 0 551.2756)">
			<stop  offset="0" style="stop-color:#067935"/>
			<stop  offset="1" style="stop-color:#10A13E"/>
		</linearGradient>
		<path class="st2" d="M9.6,15.5c0-0.1,0-0.2,0-0.3C10,12,12.7,9.6,16,9.6c0.3,0,0.7,0,1,0.1c0,0,0.1,0,0.1,0c0.1,0,0.1,0,0.2,0
			c0.8,0,1.5-0.7,1.5-1.5c0-0.6-0.4-1.2-0.9-1.4c-0.2-0.1-0.4-0.1-0.5-0.1c0,0-0.1,0-0.1,0c-0.4-0.1-0.8-0.1-1.2-0.1
			c-4.8,0-8.7,3.5-9.3,8.1c0,0.1-0.1,0.3-0.1,0.4c0,0,0,0.1,0,0.1c0.1,0.8,0.7,1.4,1.5,1.4C8.8,16.7,9.4,16.2,9.6,15.5z"/>
		
			<linearGradient id="SVGID_4_" gradientUnits="userSpaceOnUse" x1="11.215" y1="-528.2639" x2="31.2376" y2="-528.2639" gradientTransform="matrix(1 0 0 1 0 551.2756)">
			<stop  offset="0" style="stop-color:#80123F"/>
			<stop  offset="1" style="stop-color:#9D174E"/>
		</linearGradient>
		<path class="st3" d="M31.2,16.1c-0.1-0.7-0.7-1.3-1.5-1.3c-0.8,0-1.4,0.6-1.5,1.3c0,0.1,0,0.2,0,0.2c0,0.1,0,0.1,0,0.2
			C28,23,22.6,28.2,16,28.2c-0.9,0-1.8-0.1-2.7-0.3c-0.1-0.1-0.3-0.1-0.4-0.1c0,0-0.1,0-0.1,0c-0.8,0-1.5,0.7-1.5,1.5
			c0,0.6,0.4,1.2,1,1.4c0.1,0.1,0.3,0.1,0.4,0.1c1.1,0.3,2.2,0.4,3.4,0.4c8.2,0,14.9-6.5,15.2-14.7c0-0.1,0-0.2,0-0.3
			C31.2,16.2,31.2,16.2,31.2,16.1z"/>
		
			<linearGradient id="SVGID_5_" gradientUnits="userSpaceOnUse" x1="0.7624" y1="-534.1536" x2="10.3671" y2="-534.1536" gradientTransform="matrix(1 0 0 1 0 551.2756)">
			<stop  offset="0" style="stop-color:#D24719"/>
			<stop  offset="1" style="stop-color:#E95221"/>
		</linearGradient>
		<path class="st4" d="M9.8,26.6c-0.1-0.1-0.2-0.2-0.3-0.2C6,24.2,3.8,20.4,3.8,16C3.8,12.8,5,9.9,7,7.7c0.1-0.1,0.2-0.2,0.3-0.3
			c0.2-0.3,0.3-0.6,0.3-0.9C7.6,5.7,6.9,5,6.1,5C5.7,5,5.4,5.1,5.2,5.3C5,5.4,4.9,5.5,4.8,5.7C2.3,8.4,0.8,12,0.8,16
			c0,5.4,2.8,10.2,7.1,12.9C8,29,8.1,29.1,8.3,29.1c0.2,0.1,0.4,0.1,0.6,0.1c0.8,0,1.5-0.7,1.5-1.5C10.4,27.3,10.2,26.8,9.8,26.6z"
			/>
		
			<linearGradient id="SVGID_6_" gradientUnits="userSpaceOnUse" x1="7.8635" y1="-544.0668" x2="30.6953" y2="-544.0668" gradientTransform="matrix(1 0 0 1 0 551.2756)">
			<stop  offset="0" style="stop-color:#B37A12"/>
			<stop  offset="1" style="stop-color:#CF8E09"/>
		</linearGradient>
		<path class="st5" d="M9.4,5.5c0.2,0,0.4,0,0.6-0.1c0.1,0,0.2-0.1,0.3-0.2C12,4.3,13.9,3.8,16,3.8c5.5,0,10.2,3.6,11.7,8.6
			c0,0.1,0.1,0.2,0.1,0.4c0.2,0.5,0.8,0.9,1.4,0.9c0.8,0,1.5-0.7,1.5-1.5c0-0.1,0-0.1,0-0.2c0-0.2-0.1-0.3-0.1-0.5
			C28.6,5.3,22.8,0.8,16,0.8c-2.6,0-5,0.6-7.1,1.8C8.7,2.6,8.6,2.7,8.4,2.8C8.1,3,7.9,3.5,7.9,4C7.9,4.8,8.5,5.5,9.4,5.5z"/>
	</g>
</g>
<g id="menu">
</g>
</svg>
