<svg class="barometre " viewBox="0 0 594.06547 594.74146">
  <g id="accueil_circle" fill="#666">
    <circle class="accueil_cercle" id="circle1" cx="260.714" cy="302.599" r="25"/>
    <circle class="accueil_cercle" id="circle2" cx="358.571" cy="251.884" r="25"/>
    <circle class="accueil_cercle" id="circle3" cx="408.571" cy="371.884" r="25"/>
    <circle class="accueil_cercle" id="circle4" cx="127.143" cy="473.313" r="25"/>
    <circle class="accueil_cercle" id="circle5" cx="107.143" cy="126.170" r="25"/>
    <circle class="accueil_cercle" id="circle6" cx="435.714" cy="114.741" r="25"/>
    <circle class="accueil_cercle" id="circle7" cx="515.714" cy="310.456" r="25"/>
    <circle class="accueil_cercle" id="circle8" cx="462.650" cy="491.706" r="25"/>
  </g>
  <g id="accueil_arc" class="non_selection">
  <path class="accueil_facteur non_selection" id="accueil_facteur1" fill="#8a1344" d="M574.70611 301.94995c-10.68417-.62905-18.64256 10.55772-16.88768 20.57825-8.20549 93.8479-71.99569 180.78697-159.38344 216.09528-64.39884 26.9267-139.58353 26.88704-203.78747-.85126-14.35801-4.0449-26.75372 14.11437-20.0625 26.64843 3.95676 8.01027 13.94449 8.70436 21.16683 12.30415 95.09384 35.76254 208.03109 17.2733 287.04996-46.47993 64.65691-51.6933 107.47623-131.14414 111.26368-214.20312-.8454-9.30663-10.91379-14.3326-19.35938-14.0918z"/>
  <path class="accueil_facteur non_selection" id="accueil_facteur2" fill="#e94e1b" d="M126.94439 56.7019c-12.0308 2.56603-19.34152 13.6815-28.87744 20.3042-75.75429 67.63974-112.64386 176.0824-92.7302 275.81467C20.0848 429.9761 65.96094 501.6879 132.32721 544.323c14.44266 6.00035 29.93946-12.66668 22.2871-26.01368-3.85668-6.60558-12.02083-8.61878-17.2135-13.98766-56.40377-43.8913-93.95963-111.06303-100.07603-182.38062-6.80842-70.94858 16.76475-144.51909 64.52914-197.5032 12.68068-14.61404 27.57383-27.18962 42.19594-39.6578 7.21172-11.77347-3.84306-28.37155-17.10547-28.07814z"/>
  <path class="accueil_facteur non_selection" id="accueil_facteur3" fill="#e39b00" d="M296.05377.01831c-47.41905.49917-95.25223 11.42849-136.75196 34.71875-11.4308 10.91478-.45663 33.86202 15.32813 31.16601C211.89551 47.9569 252.8627 35.8422 294.45021 36.0049c79.86948-1.2114 160.04768 36.43135 208.76688 100.04355 28.78129 36.72138 47.29305 81.27364 54.05738 127.18667 6.36412 14.9265 32.52307 11.63766 34.71875-4.53907-5.10091-48.83452-25.0053-95.57717-53.36719-135.43945C483.78714 46.13903 390.64727-1.0667 296.05377.01831z"/>
  <path class="accueil_facteur non_selection" id="accueil_facteur4" fill="#95c11f" d="M395.95025 147.04175c-15.21158-.50769-24.27602 22.34074-11.60547 31.60937 52.83749 37.3565 74.91816 111.74507 50.44212 171.7988-9.109 23.64596-25.00208 44.07942-43.12962 61.43948-7.79291 13.63726 9.33918 32.29436 23.50586 24.98047 52.30088-41.25245 75.82724-113.86042 61.2477-178.40669-8.73131-40.91003-31.97003-78.82946-65.18324-104.37456-4.70275-2.87119-9.38666-7.50676-15.27735-7.04687z"/>
  <path class="accueil_facteur non_selection" id="accueil_facteur5" fill="#008d36" d="M291.71002 113.95972c-73.87074 1.2542-144.2214 52.35926-167.42875 122.65168-5.34129 15.70863-10.03549 32.49594-8.40524 49.15886 4.80416 14.36547 29.27258 15.38165 33.86719.36328 3.49282-26.8534 11.55981-53.62227 28.2103-75.51944 28.29391-39.0827 76.93563-63.35595 125.19595-60.6075 15.39775.51312 30.22076 4.67643 45.29297 7.64647 15.39595-.98963 21.99263-24.87836 8.55469-33.05078-20.5312-8.56987-43.20452-10.8441-65.28711-10.64257z"/>
  <path class="accueil_facteur non_selection" id="accueil_facteur6" fill="#004a7b" d="M134.35455 311.9812c-12.39055.26434-20.84198 15.17988-15.36181 26.128 15.63756 72.67127 80.1168 132.07206 154.12451 140.65267 34.02594 4.42928 70.102.27224 100.58691-16.01895 11.66799-10.287 1.74529-33.31392-13.90625-31.16797-23.78164 8.84025-49.24147 15.29768-74.65829 12.41852-52.50661-4.25552-101.98151-38.73812-122.33976-87.65485-5.42581-11.86375-8.07487-24.86492-12.24219-37.03125-3.56065-5.22949-10.02812-7.68518-16.20312-7.32617z"/>
</g>
</svg>
