<?xml version="1.0" encoding="utf-8"?>
<!-- Generator: Adobe Illustrator 22.1.0, SVG Export Plug-In . SVG Version: 6.00 Build 0)  -->
<svg version="1.1" id="Calque_1" xmlns="http://www.w3.org/2000/svg" xmlns:xlink="http://www.w3.org/1999/xlink" x="0px" y="0px"
	 viewBox="0 0 594.7 594.7" style="enable-background:new 0 0 594.7 594.7;" xml:space="preserve">
<style type="text/css">
	.st0{display:none;}
	.st1{display:inline;fill:#B3B3B3;}
	.st2{display:inline;}
	.st3{fill:#828282;}
	.st4{fill:url(#SVGID_1_);}
	.st5{fill:url(#SVGID_2_);}
	.st6{fill:#004B7E;}
	.st7{fill:url(#SVGID_3_);}
	.st8{fill:url(#SVGID_4_);}
	.st9{fill:url(#SVGID_5_);}
	.st10{fill:url(#SVGID_6_);}
	.st11{fill:url(#SVGID_7_);}
	.st12{fill:url(#SVGID_8_);}
	.st13{fill:url(#SVGID_9_);}
	.st14{fill:url(#SVGID_10_);}
	.st15{fill:url(#SVGID_11_);}
</style>
<g id="Calque_9" class="st0">
	<circle id="circle1" class="st1" cx="260.7" cy="302.6" r="25"/>
	<circle id="circle2" class="st1" cx="358.6" cy="251.9" r="25"/>
	<circle id="circle3" class="st1" cx="408.6" cy="371.9" r="25"/>
	<circle id="circle4" class="st1" cx="127.1" cy="473.3" r="25"/>
	<circle id="circle5" class="st1" cx="107.1" cy="126.2" r="25"/>
	<circle id="circle6" class="st1" cx="435.7" cy="114.7" r="25"/>
	<circle id="circle7" class="st1" cx="515.7" cy="310.5" r="25"/>
	<circle id="circle8" class="st1" cx="462.6" cy="491.7" r="25"/>
</g>
<g id="BoutonsOFF" class="st0">
	<g id="Calque_5" class="st2">
		<path class="st3" d="M576.3,275.5c-0.7,0.3-1.5,0.7-2.2,1c-1.1,0.4-1.9,0.7-2.6,0.9c-1.1,0.3-1.9,0.5-2.7,0.7
			c-1,0.2-1.7,0.3-2.5,0.4c-1.2,0.1-1.9,0.1-2.7,0.1c-1.1,0-1.7,0-2.3-0.1c-1.4-0.1-2.1-0.2-2.9-0.4c-0.9-0.2-1.5-0.4-2.2-0.6
			c-1.2-0.4-1.9-0.6-2.5-0.9c-0.9-0.4-1.6-0.7-2.3-1.1l-0.1,0.1c-1.1-0.6-1.6-0.9-2.1-1.2c-1.1-0.7-1.7-1.2-2.3-1.7
			c-0.9-0.7-1.4-1.3-1.9-1.6c-1-0.9-1.6-1.5-2.1-2l0.1-0.1c-0.7-0.9-1.1-1.5-1.5-2c-0.9-1.2-1.3-1.9-1.7-2.6c-1-1.9-1.8-3.8-2.4-5.7
			c-0.5-1.8-0.8-3.5-1-5.3l0,0C513.6,140.2,412.3,53.9,293.5,53.9c-35,0-67.9,7.5-97.5,20.9c-2.3,1.6-4.8,2.8-7.4,3.5
			c-0.7,0.3-1.5,0.4-2.3,0.6c-1.2,0.3-2,0.3-2.7,0.4c-1.3,0.1-2.1,0.1-2.8,0.1c-1.2,0-1.9,0-2.6-0.2c-1.2-0.1-2-0.2-2.8-0.4
			c-1.2-0.3-1.9-0.5-2.7-0.7c-1.1-0.4-1.8-0.7-2.5-1l0,0c-1.3-0.6-2.1-1-2.8-1.4c-12.9-7.6-17.6-24-10.4-36.7c1.2-2,2.6-3.8,4.1-5.4
			l-1.1,1.1c0.3-0.4,0.6-0.7,1-1.1l-6,6.1c-1.6,1.6-2.9,3.4-4.1,5.4c-7.2,12.7-2.5,29.1,10.4,36.7c0.7,0.4,1.5,0.8,2.8,1.4l0,0l0,0
			l0,0c0.8,0.3,1.5,0.6,2.6,1c0.7,0.2,1.4,0.4,2.7,0.7c0.8,0.1,1.6,0.3,2.8,0.4c0.7,0.1,1.4,0.2,2.5,0.2l0,0h0.1l0,0l0,0
			c0.8,0,1.6,0,2.8-0.1c0.7-0.1,1.4-0.2,2.7-0.4c0.8-0.2,1.5-0.4,2.3-0.6c2.6-0.7,5.1-1.9,7.4-3.5C219.5,67.5,252.5,60,287.5,60
			c118.8,0,220.1,86.2,242.9,199.5l0,0c0.2,1.8,0.5,3.6,1,5.3c0.6,2,1.4,3.9,2.4,5.7c0.4,0.7,0.9,1.5,1.7,2.7
			c0.4,0.5,0.8,1.1,1.5,1.9l-0.1,0.1c0.6,0.6,1.1,1.1,2.1,2.1c0.5,0.4,1,0.9,1.9,1.7c0.6,0.5,1.2,0.9,2.3,1.6
			c0.6,0.3,1.1,0.6,2.2,1.2l0.1-0.1c0.6,0.4,1.3,0.7,2.2,1.1c0.6,0.3,1.2,0.5,2.5,0.9c0.6,0.2,1.3,0.4,2.2,0.6
			c0.8,0.1,1.6,0.3,2.9,0.4c0.7,0,1.3,0.1,2.3,0.1l0,0h0.1l0,0l0,0c0.7,0,1.5,0,2.6-0.1c0.8-0.1,1.6-0.2,2.5-0.4
			c0.8-0.1,1.6-0.3,2.7-0.6c0.7-0.2,1.4-0.5,2.6-1c0.7-0.3,1.5-0.6,2.2-1c2.3-1.3,4.3-2.8,6.1-4.6l6-6.1
			C580.6,272.7,578.6,274.3,576.3,275.5z"/>
		<path class="st3" d="M296.5,149.8c-39.5,0-74.7,15.8-100,41.5l0,0c0,0,0,0-0.1,0.1l-6,6.1c25.3-25.7,60.5-41.5,100-41.5
			c12.6,0,24.8,1.6,36.5,4.6c1.5,0.6,3.1,1,4.7,1.3c1.8,0.3,3.7,0.5,5.6,0.5c8.1,0,15.3-3.2,20.5-8.5l6-6.1
			c-5.2,5.3-12.4,8.5-20.5,8.5c-1.9,0-3.8-0.1-5.6-0.5c-1.6-0.3-3.2-0.8-4.7-1.3l0.1-0.1C321.3,151.4,309.1,149.8,296.5,149.8z"/>
		<path class="st3" d="M547.8,299.2l-6,6.1c-3.5,3.5-5.8,7.8-6.8,12.5c-0.6,2.7-0.7,5.6-0.4,8.4c-4.4,56.6-28.6,107.4-65.9,145.3
			l6-6.1c37.3-37.9,61.5-88.7,65.9-145.3c-0.3-2.9-0.2-5.7,0.4-8.4C542.1,307,544.4,302.7,547.8,299.2z"/>
		<path class="st3" d="M433.9,449.7c0.2-0.1,0.5-0.2,5-2.5l0,0c0.2-0.1,0.4-0.3,0.9-0.6c0.3-0.2,0.6-0.4,0.9-0.6
			c1.2-0.9,2.3-1.9,3.3-2.9l6-6.1c-1,1-2.1,2-3.3,2.9c-0.3,0.2-0.6,0.4-0.9,0.6c-0.5,0.3-0.7,0.5-0.9,0.6l0,0
			c-4.5,2.3-4.8,2.4-5,2.5c-0.5,0.2-0.9,0.3-1.2,0.4c-0.5,0.2-0.8,0.2-1,0.3l-6,6.1c0.2-0.1,0.5-0.1,1-0.3
			C433,450,433.4,449.9,433.9,449.7z"/>
		<path class="st3" d="M421.7,451.5L421.7,451.5L421.7,451.5c0.4,0,0.6,0,1.1,0c0.3,0,0.5,0,0.8,0s0.6,0,1.1,0c0.3,0,0.7,0,1.4-0.1
			c0.3,0,0.5,0,5.5-1l6-6.1c-5,1-5.2,1-5.5,1c-0.7,0.1-1,0.1-1.4,0.1c-0.5,0-0.8,0-1.1,0s-0.5,0-0.8,0c-0.5,0-0.8,0-1.1,0
			c-5.6-0.9-5.9-1-6.2-1c-0.4-0.2-0.7-0.2-0.9-0.3l0,0c0,0,0,0-0.1,0l0.1-0.1c-4.5-1.8-4.8-1.9-5.1-2.1
			c-10.5-5.5-16.5-16.3-16.4-27.2c0.1-4.3,1.1-8.6,3.1-12.7c1-1.9,2.2-3.7,3.5-5.3c0.6-0.7,1.1-1.3,1.7-1.9l-1.2,1.2
			c0.3-0.4,0.6-0.7,0.9-1l1.2-1.2c24-25.9,38.1-61,36.9-99.6c-1.4-42.9-21.3-81.5-51.8-107.9c-2.4-1.5-4.7-3.3-6.7-5.5
			c-4.8-5.2-7.9-12.1-8.1-19.7c-0.2-8.3,2.9-15.6,8.2-21l-1.3,1.3c0.4-0.5,0.8-0.9,1.3-1.4l-6,6.1c-5.3,5.4-8.5,12.9-8.2,21.1v0.1
			c0.2,7.6,3.3,14.5,8.1,19.7c2,2.2,4.2,4,6.7,5.5l0.1-0.1c30.6,26.5,50.4,65,51.7,107.9c1.2,38.5-12.8,73.5-36.7,99.4l-1.1,1.1
			c-0.6,0.6-1.2,1.2-1.7,1.9c-1.3,1.6-2.5,3.4-3.5,5.3c-2.1,4.1-3.1,8.4-3.1,12.8c-0.1,11,5.9,21.8,16.4,27.3c0.3,0.1,0.6,0.3,5,2.1
			l0,0c0.3,0.1,0.5,0.2,1,0.3C415.8,450.5,416.1,450.6,421.7,451.5L421.7,451.5C421.6,451.5,421.6,451.5,421.7,451.5z"/>
		<path class="st3" d="M97.6,288.4c0.4,0.5,0.7,1,1.4,1.9c0.3,0.4,0.6,0.7,1.2,1.5c0.3,0.4,0.7,0.8,1.2,1.3c0.4,0.5,0.8,0.9,1.6,1.6
			c0.3,0.3,0.6,0.6,1.4,1.2c0.4,0.3,0.8,0.6,1.4,1.1c0.5,0.3,0.9,0.7,1.8,1.2c0.4,0.2,0.8,0.4,1.6,0.9c0.4,0.2,0.8,0.4,1.6,0.8
			c0.5,0.2,1,0.5,1.9,0.8c0.4,0.1,0.9,0.3,1.8,0.6c0.4,0.2,0.9,0.3,1.7,0.5c0.5,0.1,1.1,0.3,1.9,0.4c0.4,0.1,0.9,0.2,1.9,0.3
			c0.4,0.1,0.8,0.1,1.7,0.2c0.6,0.1,1.1,0.1,1.8,0.1c0.5,0,1,0,2.1-0.1c0.5,0,0.9-0.1,1.8-0.2c0.6-0.1,1.2-0.2,2.1-0.4
			c0.5-0.1,0.9-0.2,1.9-0.5c0.5-0.1,0.9-0.2,1.7-0.5c0.6-0.2,1.1-0.4,2.1-0.8c0.4-0.1,0.8-0.3,1.7-0.8c0.5-0.3,1.1-0.6,1.6-0.9
			c2-1.2,3.7-2.6,5.3-4.2l6-6.1c-1.6,1.6-3.4,3-5.3,4.2c-0.5,0.3-1.1,0.6-1.6,0.9c-0.9,0.4-1.3,0.6-1.7,0.8c-1,0.4-1.5,0.6-2.1,0.8
			c-0.7,0.2-1.2,0.4-1.7,0.5c-1,0.3-1.4,0.4-1.9,0.5c-0.9,0.2-1.5,0.3-2.1,0.4c-0.9,0.1-1.3,0.2-1.8,0.2c-1,0.1-1.6,0.1-2.1,0.1
			c-0.7,0-1.2-0.1-1.8-0.1c-0.9-0.1-1.3-0.2-1.7-0.2c-1-0.1-1.4-0.2-1.9-0.3c-0.8-0.1-1.4-0.3-1.9-0.4c-0.9-0.3-1.3-0.4-1.7-0.5
			c-0.9-0.3-1.4-0.4-1.8-0.6c-0.9-0.3-1.4-0.6-1.9-0.8c-0.8-0.4-1.2-0.6-1.6-0.8c-0.8-0.4-1.2-0.7-1.6-0.9c-0.9-0.5-1.3-0.9-1.8-1.2
			c-0.7-0.5-1-0.8-1.4-1.1c-0.8-0.6-1.1-0.9-1.4-1.2c-0.8-0.8-1.2-1.2-1.6-1.6c-0.5-0.5-0.9-0.9-1.2-1.3c-0.7-0.8-0.9-1.1-1.2-1.5
			c-0.7-0.9-1.1-1.4-1.4-1.9c-3-4.8-4.6-10.2-4.7-15.4c-0.1-3,0.3-5.9,1.1-8.7l-0.1,0.1c6.2-42.2,25.6-79.9,54.1-108.7l-3.6,3.6
			c1.2-1.3,2.4-2.5,3.6-3.7l-6,6.1c-28.5,28.9-47.9,66.7-54.1,108.9l0,0v0.1l0,0c-0.8,2.7-1.1,5.5-1,8.4
			C93,278.3,94.5,283.6,97.6,288.4z"/>
		<path class="st3" d="M383,482.3c-2.2,1.2-4.6,2.1-7,2.7l-0.2,0.2c-21.4,7.8-44.5,12-68.7,12.1c-91.6,0-170.9-60.7-198.7-144.1
			c-0.6-1.2-1.2-2.5-1.6-3.7c-0.7-2.1-1.2-4.2-1.5-6.3c-0.4-3.3-0.3-6.5,0.4-9.7c1.1-5.2,3.6-10.1,7.5-14l-6,6.1
			c-3,3.1-5.3,6.8-6.6,10.9c-1.4,4.1-1.8,8.4-1.3,12.8c0.5,3.4,1.5,6.8,3.1,10c27.8,83.4,107.1,144.2,198.7,144.2
			c24.3,0,47.5-4.3,68.9-12.2l0.1-0.1c2.4-0.6,4.7-1.5,6.9-2.7c2.3-1.3,4.6-2.9,6.5-4.9l6-6.1C387.6,479.4,385.4,481,383,482.3z"/>
		<path class="st3" d="M190.5,562.2L190.5,562.2c-1.5-0.6-3-1.2-4.4-2c-8.9-4.9-14.7-14.5-14.3-25.1c0-0.8,0.1-1.6,0.2-2.4
			c0.8-5.8,3.4-10.9,7.2-14.8l-1.2,1.2c0.4-0.4,0.7-0.8,1.1-1.2l-6,6.1c-3.8,3.9-6.4,9-7.2,14.8c-0.1,0.8-0.2,1.6-0.2,2.4
			c-0.4,10.6,5.5,20.2,14.3,25.1c1.4,0.8,2.9,1.5,4.4,2c36.8,16.1,77.2,25,119.4,25c80.1,0,151.7-32.1,203-84.2l6-6.1
			c-51.3,52.1-122.9,84.2-203,84.2C267.6,587.2,227.2,578.3,190.5,562.2z"/>
		<path class="st3" d="M152.2,526.3c-0.5,0.3-0.9,0.4-1.3,0.6c-0.5,0.1-0.8,0.2-1.2,0.3c-9.4,1.5-9.9,1.5-10.5,1.4
			c-4.2-0.3-8.1-1.5-11.6-3.5c-2.4-1.3-4.6-3.1-6.5-5.1C54.5,466.3,10.7,385.1,7.9,294.2c-2.5-81.8,28.7-155.7,81-208.8l-4.3,4.4
			c1.4-1.5,2.8-2.9,4.2-4.4l-6,6.1c-52.3,53.2-83.5,127.1-81,208.8C4.6,391.2,48.4,472.4,115,526.1c1.9,2,4.1,3.7,6.5,5.1
			c3.4,2,7.4,3.2,11.6,3.5c0.5,0,1.1,0,10.5-1.4c0.4-0.1,0.7-0.1,1.2-0.3c0.4-0.2,0.8-0.4,1.3-0.6c0-0.1,0.1-0.1,0.2-0.2l6-6.1
			C152.3,526.2,152.3,526.2,152.2,526.3z"/>
	</g>
	<g id="Calque_4_1_" class="st2">
		
			<linearGradient id="SVGID_1_" gradientUnits="userSpaceOnUse" x1="171.6809" y1="154.4398" x2="593.9039" y2="154.4398" gradientTransform="matrix(1 0 0 -1 0 593.8898)">
			<stop  offset="0" style="stop-color:#80113F"/>
			<stop  offset="1" style="stop-color:#9C154D"/>
		</linearGradient>
		<path class="st4" d="M590.4,305.8c1.8,3.3,2.9,6.7,3.3,10.2c0.4,3.1,0.2,6.2-0.5,9.2c-11,147.3-132,262-283.4,262
			c-42.2,0-82.6-8.9-119.4-25c-1.5-0.5-3-1.2-4.4-2c-8.8-4.9-14.7-14.5-14.3-25.1c0-0.8,0.1-1.6,0.2-2.4c0.9-6.8,4.4-12.7,9.4-16.7
			c0.6-0.5,1.2-0.9,1.8-1.3c1.1-0.7,1.5-0.9,1.9-1.2c1.2-0.6,1.6-0.8,2-1c1.3-0.5,1.7-0.7,2.2-0.8c1.4-0.4,1.8-0.5,2.2-0.6
			c1.4-0.3,1.9-0.4,2.3-0.4c1.5-0.2,1.9-0.2,2.4-0.2c1.7-0.1,2.5,0,3.2,0c1.4,0.1,2.7,0.3,4,0.6c3.7,0.8,7.1,2.4,10.1,4.5
			c29.2,12.3,61.2,19.1,94.6,19.1c123.9,0,223.1-93.9,232.3-214.4c-0.3-2.8-0.1-5.7,0.5-8.4c1.6-7.1,6.1-13.4,12.9-17.1
			c0.7-0.4,1.5-0.7,2.2-1c1.2-0.5,1.9-0.7,2.6-1c1.1-0.3,1.8-0.5,2.6-0.6c0.9-0.2,1.7-0.3,2.5-0.4c1.2-0.1,2-0.1,2.7-0.1
			c1.1,0,1.7,0.1,2.3,0.1c1.4,0.2,2.1,0.3,2.9,0.4c0.9,0.2,1.6,0.4,2.2,0.6c1.3,0.4,1.9,0.6,2.5,0.9c1,0.4,1.7,0.7,2.3,1.1
			c1.1,0.6,1.6,0.9,2.2,1.2c1.1,0.7,1.7,1.1,2.3,1.6c0.9,0.8,1.4,1.2,1.9,1.6c1,1,1.5,1.5,2.1,2.1c0.7,0.8,1.1,1.4,1.5,1.9
			C589.6,304.3,590,305,590.4,305.8z"/>
		
			<linearGradient id="SVGID_2_" gradientUnits="userSpaceOnUse" x1="98.7849" y1="400.0898" x2="371.9142" y2="400.0898" gradientTransform="matrix(1 0 0 -1 0 593.8898)">
			<stop  offset="0" style="stop-color:#00782F"/>
			<stop  offset="1" style="stop-color:#00A13E"/>
		</linearGradient>
		<path class="st5" d="M353.7,99.8c10.4,4.6,17.9,14.9,18.2,26.9c0.5,16.3-12.3,29.5-28.6,29.5c-1.9,0-3.8-0.2-5.6-0.5
			c-1.6-0.3-3.2-0.7-4.7-1.3c-11.7-3-23.9-4.6-36.5-4.6c-71.3,0-128.9,51.7-138.6,119.6c-0.1,1.6-0.3,3.2-0.6,4.7
			c-1.5,7.4-6,14.1-12.9,18.4c-0.5,0.3-1.1,0.6-1.6,0.9c-0.9,0.5-1.3,0.7-1.7,0.8c-1,0.4-1.5,0.6-2.1,0.8c-0.8,0.3-1.2,0.4-1.7,0.5
			c-1,0.3-1.4,0.4-1.9,0.5c-0.9,0.2-1.5,0.3-2.1,0.4c-0.9,0.1-1.3,0.2-1.8,0.2c-1.1,0.1-1.6,0.1-2.1,0.1c-0.7,0-1.2,0-1.8-0.1
			c-0.9-0.1-1.3-0.1-1.7-0.2c-1-0.1-1.5-0.2-1.9-0.3c-0.8-0.1-1.4-0.3-1.9-0.4c-0.8-0.2-1.3-0.3-1.7-0.5c-0.9-0.3-1.4-0.5-1.8-0.6
			c-0.9-0.3-1.4-0.6-1.9-0.8c-0.8-0.4-1.2-0.6-1.6-0.8c-0.8-0.5-1.2-0.7-1.6-0.9c-0.9-0.5-1.3-0.9-1.8-1.2c-0.6-0.5-1-0.8-1.4-1.1
			c-0.8-0.6-1.1-0.9-1.4-1.2c-0.8-0.7-1.2-1.1-1.6-1.6c-0.5-0.5-0.9-0.9-1.2-1.3c-0.6-0.8-0.9-1.1-1.2-1.5c-0.7-0.9-1-1.4-1.4-1.9
			c-3.1-4.8-4.6-10.1-4.7-15.4c-0.1-3,0.3-5.9,1.1-8.7c14-95.1,94.8-167.3,194.8-167.3c17.3,0,34.2,2.2,50.4,6.3
			C348.1,97.8,351,98.6,353.7,99.8z"/>
		<path class="st6" d="M381.3,430.3c14.6,7.7,20.6,25.6,13.3,40c-2.7,5.3-6.8,9.4-11.6,12c-2.2,1.2-4.5,2.1-7,2.7
			c-21.4,7.9-44.6,12.2-68.9,12.2c-91.6,0-170.9-60.7-198.7-144.1c-1.6-3.2-2.6-6.6-3.1-10c-1.3-10.9,3.5-21.9,13.3-28
			c0.4-0.2,0.8-0.5,1.2-0.7c0.7-0.4,1-0.5,1.4-0.7c0.5-0.2,0.9-0.4,1.3-0.6c0.6-0.3,1-0.4,1.3-0.5c0.6-0.2,1-0.4,1.4-0.5
			c0.6-0.2,1-0.3,1.3-0.4c0.7-0.2,1.1-0.3,1.5-0.3c0.6-0.1,1-0.2,1.3-0.2c0.7-0.1,1.1-0.2,1.6-0.2c0.6,0,0.9-0.1,1.3-0.1
			c0.8,0,1.2,0,1.6,0c0.6,0,1.1,0,1.7,0.1c0.9,0.1,1.3,0.1,1.7,0.2c1,0.1,1.5,0.2,1.9,0.3c0.8,0.2,1.4,0.3,1.9,0.4
			c0.8,0.2,1.3,0.3,1.7,0.5c0.9,0.3,1.4,0.5,1.8,0.6c0.9,0.3,1.4,0.6,1.9,0.8c0.7,0.4,1.1,0.6,1.5,0.8c0.9,0.5,1.2,0.7,1.6,0.9
			c0.8,0.5,1.3,0.8,1.8,1.2c0.7,0.5,1,0.8,1.4,1.1c0.8,0.6,1.1,0.9,1.4,1.2c0.8,0.7,1.2,1.1,1.6,1.6c0.5,0.5,0.9,0.9,1.2,1.3
			c0.6,0.8,0.9,1.1,1.2,1.5c0.7,0.9,1,1.4,1.4,1.9c1.6,2.5,2.7,5.1,3.5,7.7c19.1,61.2,76.2,105.7,142.3,105.7
			c17.2,0,33.7-3,48.8-8.6c1.7-0.9,3.5-1.6,5.3-2.1c0.4-0.1,0.8-0.2,1.2-0.3c0.6-0.1,1-0.2,1.3-0.3c0.7-0.1,1.1-0.2,1.5-0.2
			c0.6-0.1,0.9-0.1,1.2-0.1c0.7-0.1,1-0.1,1.4-0.1c0.6,0,1,0,1.4,0c0.5,0,1.1,0,1.6,0c0.7,0.1,1.2,0.1,1.6,0.1
			c0.9,0.1,1.3,0.2,1.7,0.2c0.9,0.2,1.4,0.3,1.8,0.4c0.8,0.2,1.4,0.3,1.9,0.5c0.8,0.3,1.2,0.4,1.6,0.5c0.9,0.3,1.3,0.5,1.7,0.7
			C380.3,429.8,380.8,430,381.3,430.3z"/>
		
			<linearGradient id="SVGID_3_" gradientUnits="userSpaceOnUse" x1="378.3858" y1="305.4897" x2="503.8923" y2="305.4897" gradientTransform="matrix(1 0 0 -1 0 593.8898)">
			<stop  offset="0" style="stop-color:#8AB31D"/>
			<stop  offset="1" style="stop-color:#A4D422"/>
		</linearGradient>
		<path class="st7" d="M427.5,139.5c45,37.2,74.4,92.7,76.3,154.7c1.6,53.7-17.7,102.5-50.6,138.7c-1.8,2.7-4.1,5-6.6,6.9
			c-0.3,0.2-0.6,0.4-0.9,0.6c-0.5,0.3-0.7,0.5-0.9,0.6c-4.5,2.3-4.8,2.4-5,2.5c-0.5,0.2-0.9,0.3-1.2,0.4c-0.5,0.2-0.8,0.2-1,0.3
			c-5,1-5.2,1-5.5,1c-0.7,0.1-1.1,0.1-1.4,0.1c-0.5,0-0.8,0-1.1,0s-0.5,0-0.8,0c-0.5,0-0.8,0-1.2,0c-5.6-0.9-5.9-1-6.2-1
			c-0.5-0.1-0.7-0.2-1-0.3c-4.5-1.8-4.8-2-5.1-2.1c-14.6-7.7-20.6-25.6-13.3-40c1-1.9,2.2-3.7,3.5-5.3c0.8-1,1.7-1.9,2.6-2.8
			c24-25.9,38.1-61,36.9-99.6c-1.3-42.9-21.2-81.4-51.8-107.9c-2.5-1.5-4.7-3.3-6.7-5.5c-4.8-5.2-7.9-12.1-8.1-19.7
			c-0.5-16.3,12.3-29.6,28.6-29.6c6.7,0,12.9,2.2,17.9,5.9C426,138.1,426.8,138.8,427.5,139.5z"/>
		
			<linearGradient id="SVGID_4_" gradientUnits="userSpaceOnUse" x1="153.4223" y1="454.0398" x2="589.8093" y2="454.0398" gradientTransform="matrix(1 0 0 -1 0 593.8898)">
			<stop  offset="0" style="stop-color:#B37A00"/>
			<stop  offset="1" style="stop-color:#CF8D00"/>
		</linearGradient>
		<path class="st8" d="M291.9,1.2c144,0,266.9,103.9,295.7,240.8c1.6,3.7,2.3,7.7,2.2,11.5c-0.3,9-5.1,17.5-13.5,22
			c-0.7,0.4-1.5,0.7-2.2,1c-1.2,0.5-1.9,0.7-2.6,0.9c-1.1,0.3-1.8,0.5-2.6,0.6c-0.9,0.2-1.7,0.3-2.5,0.4c-1.2,0.1-2,0.1-2.7,0.1
			c-1.1,0-1.7-0.1-2.4-0.1c-1.3-0.1-2.1-0.3-2.9-0.4c-0.9-0.2-1.6-0.4-2.2-0.6c-1.3-0.4-1.9-0.6-2.5-0.9c-1-0.4-1.7-0.7-2.3-1.1
			c-1.1-0.6-1.6-0.9-2.2-1.2c-1.1-0.7-1.7-1.1-2.3-1.6c-0.9-0.8-1.4-1.2-1.9-1.6c-1-1-1.5-1.5-2.1-2.1c-0.7-0.8-1.1-1.4-1.5-1.9
			c-0.8-1.2-1.3-1.9-1.7-2.6c-1-1.8-1.8-3.7-2.4-5.7c-0.5-1.7-0.8-3.5-1-5.3C513.5,140.1,412.2,53.9,293.4,53.9
			c-35,0-68,7.5-97.5,20.9c-2.3,1.6-4.8,2.8-7.4,3.5c-0.8,0.2-1.5,0.4-2.3,0.6c-1.3,0.2-1.9,0.3-2.6,0.4c-1.3,0.1-2.1,0.1-2.9,0.1
			c-1.2,0-1.9-0.1-2.6-0.2c-1.2-0.1-2-0.3-2.8-0.4c-1.3-0.3-2-0.5-2.7-0.7c-1.1-0.4-1.8-0.7-2.6-1c-1.3-0.6-2.1-1-2.8-1.4
			c-12.9-7.6-17.6-24-10.4-36.7c1.9-3.3,4.4-6.1,7.3-8.2c2.5-1.8,5.3-3.1,8.2-3.9C208.6,10.4,249,1.2,291.9,1.2z"/>
		
			<linearGradient id="SVGID_5_" gradientUnits="userSpaceOnUse" x1="7.8" y1="299.1175" x2="167.0219" y2="299.1175" gradientTransform="matrix(1 0 0 -1 0 593.8898)">
			<stop  offset="0" style="stop-color:#D14618"/>
			<stop  offset="1" style="stop-color:#ED501C"/>
		</linearGradient>
		<path class="st9" d="M159.8,484.3c-2.1-2.3-4.6-4.3-7.4-5.8c-54-44-89.5-110.3-91.8-184.3c-2-64.6,21.7-123.2,61.8-166.4
			c4.4-4.4,9-8.7,13.8-12.7c0.4-0.3,0.7-0.6,1.1-0.9l0.7-0.7c0.2-0.2,0.4-0.4,0.5-0.5l6-6.1c-0.5,0.4-0.9,0.8-1.3,1.2
			c-0.4,0.3-0.7,0.6-1.1,0.9c-2.4,2-4.7,4-7,6.1c2.2-2.1,4.5-4.1,6.9-6.1c0.4-0.3,0.7-0.6,1.1-0.9c2.1-1.9,3.9-4.1,5.3-6.6
			c7.2-12.6,2.5-29-10.4-36.6c-0.5-0.3-1-0.6-2.1-1.1c-0.3-0.1-1.2-0.6-8.3-2.2c-1.5-0.4-2.7-0.4-5.2-0.3c-1.1,0.1-3,0.2-4.2,0.5
			c-1.8,0.4-2.3,0.7-3.9,1.3c-0.5,0.2-0.9,0.4-1.4,0.6c-0.7,0.3-1.3,0.7-1.9,1c-0.1,0.1-0.3,0.2-0.4,0.2c-0.6,0.4-1.2,0.8-1.8,1.2
			l0,0c-0.6,0.5-1.2,0.9-1.8,1.5c-0.1,0.1-0.2,0.1-0.2,0.2c-0.6,0.5-1.1,1.1-1.7,1.7l0,0l-5.3,5.3l0,0c-0.3,0.3-0.6,0.6-0.9,0.9l0,0
			c-25.5,23.5-46.6,51.6-62.1,83l0,0c-1.1,2.2-2.1,4.4-3.2,6.7c0,0.1-0.1,0.1-0.1,0.2c-1,2.2-2,4.4-2.9,6.6c0,0.1-0.1,0.2-0.1,0.3
			c-0.9,2.2-1.8,4.4-2.7,6.6c-0.1,0.1-0.1,0.3-0.2,0.4c-0.9,2.2-1.7,4.4-2.5,6.6c-0.1,0.2-0.1,0.4-0.2,0.5c-0.8,2.2-1.6,4.4-2.3,6.6
			c-0.1,0.2-0.1,0.4-0.2,0.6c-0.7,2.2-1.4,4.4-2.1,6.6c-0.1,0.2-0.1,0.5-0.2,0.7c-0.7,2.2-1.3,4.4-1.9,6.6c-0.1,0.3-0.1,0.5-0.2,0.8
			c-0.6,2.2-1.2,4.4-1.7,6.7c-0.1,0.3-0.1,0.5-0.2,0.8c-0.5,2.2-1.1,4.5-1.6,6.7c-0.1,0.3-0.1,0.5-0.2,0.8c-0.5,2.3-0.9,4.5-1.4,6.8
			c-0.1,0.3-0.1,0.6-0.2,0.8c-0.4,2.3-0.8,4.6-1.2,6.9c0,0.3-0.1,0.5-0.1,0.8c-0.4,2.3-0.7,4.6-1,7c0,0.3-0.1,0.5-0.1,0.8
			c-0.3,2.3-0.6,4.7-0.8,7.1c0,0.2-0.1,0.5-0.1,0.7c-0.2,2.4-0.5,4.8-0.7,7.2c0,0.2,0,0.4,0,0.7c-0.2,2.4-0.3,4.9-0.5,7.3
			c0,0.2,0,0.4,0,0.6c-0.1,2.5-0.2,5-0.3,7.5c0,0.1,0,0.3,0,0.4c-0.1,2.6-0.1,5.1-0.1,7.7c0,0.1,0,0.2,0,0.2c0,2.6,0.1,5.3,0.1,7.9
			c2.8,90.9,46.6,172.1,113.2,225.8c1.9,2,4.1,3.7,6.5,5.1c3.4,2,7.4,3.2,11.6,3.5c0.5,0,1.1,0,10.5-1.4c0.4-0.1,0.7-0.2,1.2-0.4
			c0.4-0.2,0.8-0.4,1.3-0.6c0.4-0.2,0.7-0.3,14.7-21.1c0.1-0.4,0.1-0.8,0.1-1.3C167.3,496.4,164.5,489.5,159.8,484.3z"/>
	</g>
</g>
<g id="BoutonsIN">
	<g id="Calque_8_1_">
		
			<linearGradient id="SVGID_6_" gradientUnits="userSpaceOnUse" x1="172.6945" y1="154.4398" x2="593.9039" y2="154.4398" gradientTransform="matrix(1 0 0 -1 0 593.8898)">
			<stop  offset="0" style="stop-color:#9C154D"/>
			<stop  offset="1" style="stop-color:#80113F"/>
		</linearGradient>
		<path class="st10" d="M590.4,305.8c1.8,3.3,2.9,6.7,3.3,10.2c0.4,3.1,0.2,6.2-0.5,9.2c-11,147.3-132,262-283.4,262
			c-42.2,0-82.6-8.9-119.4-25c-1.5-0.5-2.9-1.5-4.3-2.3c-5.9-5.1-13.8-14.2-13.4-24.8c0-0.8,0.2-1.7,0.3-2.5
			c0.9-6.8,3.3-12.6,8.3-16.6c0.6-0.5,1.2-0.9,1.8-1.3c1.1-0.7,1.5-0.9,1.9-1.2c1.2-0.6,1.6-0.8,2-1c1.3-0.5,1.7-0.7,2.2-0.8
			c1.4-0.4,1.8-0.5,2.2-0.6c1.4-0.3,1.9-0.4,2.3-0.4c1.5-0.2,1.9-0.2,2.4-0.2c1.7-0.1,2.5,0,3.2,0c1.4,0.1,2.7,0.3,4,0.6
			c3.7,0.8,7.1,2.4,10.1,4.5c29.2,12.3,61.2,19.1,94.6,19.1c123.9,0,223.1-93.9,232.3-214.4c-0.3-2.8-0.1-5.7,0.5-8.4
			c1.6-7.1,6.1-13.4,12.9-17.1c0.7-0.4,1.5-0.7,2.2-1c1.2-0.5,1.9-0.7,2.6-1c1.1-0.3,1.8-0.5,2.6-0.6c0.9-0.2,1.7-0.3,2.5-0.4
			c1.2-0.1,2-0.1,2.7-0.1c1.1,0,1.7,0.1,2.3,0.1c1.4,0.2,2.1,0.3,2.9,0.4c0.9,0.2,1.6,0.4,2.2,0.6c1.3,0.4,1.9,0.6,2.5,0.9
			c1,0.4,1.7,0.7,2.3,1.1c1.1,0.6,1.6,0.9,2.2,1.2c1.1,0.7,1.7,1.1,2.3,1.6c0.9,0.8,1.4,1.2,1.9,1.6c1,1,1.5,1.5,2.1,2.1
			c0.7,0.8,1.1,1.4,1.5,1.9C589.6,304.3,590,305,590.4,305.8z"/>
		
			<linearGradient id="SVGID_7_" gradientUnits="userSpaceOnUse" x1="98.7849" y1="400.0898" x2="371.9142" y2="400.0898" gradientTransform="matrix(1 0 0 -1 0 593.8898)">
			<stop  offset="0" style="stop-color:#00A13E"/>
			<stop  offset="1" style="stop-color:#00782F"/>
		</linearGradient>
		<path class="st11" d="M353.7,99.8c10.4,4.6,17.9,14.9,18.2,26.9c0.5,16.3-12.3,29.5-28.6,29.5c-1.9,0-3.8-0.2-5.6-0.5
			c-1.6-0.3-3.2-0.7-4.7-1.3c-11.7-3-23.9-4.6-36.5-4.6c-71.3,0-128.9,51.7-138.6,119.6c-0.1,1.6-0.3,3.2-0.6,4.7
			c-1.5,7.4-6,14.1-12.9,18.4c-0.5,0.3-1.1,0.6-1.6,0.9c-0.9,0.5-1.3,0.7-1.7,0.8c-1,0.4-1.5,0.6-2.1,0.8c-0.8,0.3-1.2,0.4-1.7,0.5
			c-1,0.3-1.4,0.4-1.9,0.5c-0.9,0.2-1.5,0.3-2.1,0.4c-0.9,0.1-1.3,0.2-1.8,0.2c-1.1,0.1-1.6,0.1-2.1,0.1c-0.7,0-1.2,0-1.8-0.1
			c-0.9-0.1-1.3-0.1-1.7-0.2c-1-0.1-1.5-0.2-1.9-0.3c-0.8-0.1-1.4-0.3-1.9-0.4c-0.8-0.2-1.3-0.3-1.7-0.5c-0.9-0.3-1.4-0.5-1.8-0.6
			c-0.9-0.3-1.4-0.6-1.9-0.8c-0.8-0.4-1.2-0.6-1.6-0.8c-0.8-0.5-1.2-0.7-1.6-0.9c-0.9-0.5-1.3-0.9-1.8-1.2c-0.6-0.5-1-0.8-1.4-1.1
			c-0.8-0.6-1.1-0.9-1.4-1.2c-0.8-0.7-1.2-1.1-1.6-1.6c-0.5-0.5-0.9-0.9-1.2-1.3c-0.6-0.8-0.9-1.1-1.2-1.5c-0.7-0.9-1-1.4-1.4-1.9
			c-3.1-4.8-4.6-10.1-4.7-15.4c-0.1-3,0.3-5.9,1.1-8.7c14-95.1,94.8-167.3,194.8-167.3c17.3,0,34.2,2.2,50.4,6.3
			C348.1,97.8,351,98.6,353.7,99.8z"/>
		
			<linearGradient id="SVGID_8_" gradientUnits="userSpaceOnUse" x1="105.0908" y1="189.8398" x2="397.7101" y2="189.8398" gradientTransform="matrix(1 0 0 -1 0 593.8898)">
			<stop  offset="0" style="stop-color:#005894"/>
			<stop  offset="1" style="stop-color:#00497A"/>
		</linearGradient>
		<path class="st12" d="M381.3,430.3c14.6,7.7,20.6,25.6,13.3,40c-2.7,5.3-6.8,9.4-11.6,12c-2.2,1.2-4.5,2.1-7,2.7
			c-21.4,7.9-44.6,12.2-68.9,12.2c-91.6,0-170.9-60.7-198.7-144.1c-1.6-3.2-2.6-6.6-3.1-10c-1.3-10.9,3.5-21.9,13.3-28
			c0.4-0.2,0.8-0.5,1.2-0.7c0.7-0.4,1-0.5,1.4-0.7c0.5-0.2,0.9-0.4,1.3-0.6c0.6-0.3,1-0.4,1.3-0.5c0.6-0.2,1-0.4,1.4-0.5
			c0.6-0.2,1-0.3,1.3-0.4c0.7-0.2,1.1-0.3,1.5-0.3c0.6-0.1,1-0.2,1.3-0.2c0.7-0.1,1.1-0.2,1.6-0.2c0.6,0,0.9-0.1,1.3-0.1
			c0.8,0,1.2,0,1.6,0c0.6,0,1.1,0,1.7,0.1c0.9,0.1,1.3,0.1,1.7,0.2c1,0.1,1.5,0.2,1.9,0.3c0.8,0.2,1.4,0.3,1.9,0.4
			c0.8,0.2,1.3,0.3,1.7,0.5c0.9,0.3,1.4,0.5,1.8,0.6c0.9,0.3,1.4,0.6,1.9,0.8c0.7,0.4,1.1,0.6,1.5,0.8c0.9,0.5,1.2,0.7,1.6,0.9
			c0.8,0.5,1.3,0.8,1.8,1.2c0.7,0.5,1,0.8,1.4,1.1c0.8,0.6,1.1,0.9,1.4,1.2c0.8,0.7,1.2,1.1,1.6,1.6c0.5,0.5,0.9,0.9,1.2,1.3
			c0.6,0.8,0.9,1.1,1.2,1.5c0.7,0.9,1,1.4,1.4,1.9c1.6,2.5,2.7,5.1,3.5,7.7c19.1,61.2,76.2,105.7,142.3,105.7
			c17.2,0,33.7-3,48.8-8.6c1.7-0.9,3.5-1.6,5.3-2.1c0.4-0.1,0.8-0.2,1.2-0.3c0.6-0.1,1-0.2,1.3-0.3c0.7-0.1,1.1-0.2,1.5-0.2
			c0.6-0.1,0.9-0.1,1.2-0.1c0.7-0.1,1-0.1,1.4-0.1c0.6,0,1,0,1.4,0c0.5,0,1.1,0,1.6,0c0.7,0.1,1.2,0.1,1.6,0.1
			c0.9,0.1,1.3,0.2,1.7,0.2c0.9,0.2,1.4,0.3,1.8,0.4c0.8,0.2,1.4,0.3,1.9,0.5c0.8,0.3,1.2,0.4,1.6,0.5c0.9,0.3,1.3,0.5,1.7,0.7
			C380.3,429.8,380.8,430,381.3,430.3z"/>
		
			<linearGradient id="SVGID_9_" gradientUnits="userSpaceOnUse" x1="378.3858" y1="305.4897" x2="503.8923" y2="305.4897" gradientTransform="matrix(1 0 0 -1 0 593.8898)">
			<stop  offset="0" style="stop-color:#A4D422"/>
			<stop  offset="1" style="stop-color:#8AB31D"/>
		</linearGradient>
		<path class="st13" d="M427.5,139.5c45,37.2,74.4,92.7,76.3,154.7c1.6,53.7-17.7,102.5-50.6,138.7c-1.8,2.7-4.1,5-6.6,6.9
			c-0.3,0.2-0.6,0.4-0.9,0.6c-0.5,0.3-0.7,0.5-0.9,0.6c-4.5,2.3-4.8,2.4-5,2.5c-0.5,0.2-0.9,0.3-1.2,0.4c-0.5,0.2-0.8,0.2-1,0.3
			c-5,1-5.2,1-5.5,1c-0.7,0.1-1.1,0.1-1.4,0.1c-0.5,0-0.8,0-1.1,0s-0.5,0-0.8,0c-0.5,0-0.8,0-1.2,0c-5.6-0.9-5.9-1-6.2-1
			c-0.5-0.1-0.7-0.2-1-0.3c-4.5-1.8-4.8-2-5.1-2.1c-14.6-7.7-20.6-25.6-13.3-40c1-1.9,2.2-3.7,3.5-5.3c0.8-1,1.7-1.9,2.6-2.8
			c24-25.9,38.1-61,36.9-99.6c-1.3-42.9-21.2-81.4-51.8-107.9c-2.5-1.5-4.7-3.3-6.7-5.5c-4.8-5.2-7.9-12.1-8.1-19.7
			c-0.5-16.3,12.3-29.6,28.6-29.6c6.7,0,12.9,2.2,17.9,5.9C426,138.1,426.8,138.8,427.5,139.5z"/>
		
			<linearGradient id="SVGID_10_" gradientUnits="userSpaceOnUse" x1="153.4223" y1="454.0398" x2="589.8093" y2="454.0398" gradientTransform="matrix(1 0 0 -1 0 593.8898)">
			<stop  offset="0" style="stop-color:#CF8D00"/>
			<stop  offset="1" style="stop-color:#B37A00"/>
		</linearGradient>
		<path class="st14" d="M291.9,1.2c144,0,266.9,103.9,295.7,240.8c1.6,3.7,2.3,7.7,2.2,11.5c-0.3,9-5.1,17.5-13.5,22
			c-0.7,0.4-1.5,0.7-2.2,1c-1.2,0.5-1.9,0.7-2.6,0.9c-1.1,0.3-1.8,0.5-2.6,0.6c-0.9,0.2-1.7,0.3-2.5,0.4c-1.2,0.1-2,0.1-2.7,0.1
			c-1.1,0-1.7-0.1-2.4-0.1c-1.3-0.1-2.1-0.3-2.9-0.4c-0.9-0.2-1.6-0.4-2.2-0.6c-1.3-0.4-1.9-0.6-2.5-0.9c-1-0.4-1.7-0.7-2.3-1.1
			c-1.1-0.6-1.6-0.9-2.2-1.2c-1.1-0.7-1.7-1.1-2.3-1.6c-0.9-0.8-1.4-1.2-1.9-1.6c-1-1-1.5-1.5-2.1-2.1c-0.7-0.8-1.1-1.4-1.5-1.9
			c-0.8-1.2-1.3-1.9-1.7-2.6c-1-1.8-1.8-3.7-2.4-5.7c-0.5-1.7-0.8-3.5-1-5.3C513.5,140.1,412.2,53.9,293.4,53.9
			c-35,0-68,7.5-97.5,20.9c-2.3,1.6-4.8,2.8-7.4,3.5c-0.8,0.2-1.5,0.4-2.3,0.6c-1.3,0.2-1.9,0.3-2.6,0.4c-1.3,0.1-2.1,0.1-2.9,0.1
			c-1.2,0-1.9-0.1-2.6-0.2c-1.2-0.1-2-0.3-2.8-0.4c-1.3-0.3-2-0.5-2.7-0.7c-1.1-0.4-1.8-0.7-2.6-1c-1.3-0.6-2.1-1-2.8-1.4
			c-12.9-7.6-17.6-24-10.4-36.7c1.9-3.3,4.4-6.1,7.3-8.2c2.5-1.8,5.3-3.1,8.2-3.9C208.6,10.4,249,1.2,291.9,1.2z"/>
		
			<linearGradient id="SVGID_11_" gradientUnits="userSpaceOnUse" x1="7.8" y1="299.1175" x2="167.0219" y2="299.1175" gradientTransform="matrix(1 0 0 -1 0 593.8898)">
			<stop  offset="0" style="stop-color:#ED501C"/>
			<stop  offset="1" style="stop-color:#D14618"/>
		</linearGradient>
		<path class="st15" d="M159.8,484.3c-2.1-2.3-4.6-4.3-7.4-5.8c-54-44-89.5-110.3-91.8-184.3c-2-64.6,21.7-123.2,61.8-166.4
			c4.4-4.4,9-8.7,13.8-12.7c0.4-0.3,0.7-0.6,1.1-0.9l0.7-0.7c0.2-0.2,0.4-0.4,0.5-0.5l6-6.1c-0.5,0.4-0.9,0.8-1.3,1.2
			c-0.4,0.3-0.7,0.6-1.1,0.9c-2.4,2-4.7,4-7,6.1c2.2-2.1,4.5-4.1,6.9-6.1c0.4-0.3,0.7-0.6,1.1-0.9c2.1-1.9,3.9-4.1,5.3-6.6
			c7.2-12.6,2.5-29-10.4-36.6c-0.5-0.3-1-0.6-2.1-1.1c-0.3-0.1-1.2-0.6-8.3-2.2c-1.5-0.4-2.7-0.4-5.2-0.3c-1.1,0.1-3,0.2-4.2,0.5
			c-1.8,0.4-2.3,0.7-3.9,1.3c-0.5,0.2-0.9,0.4-1.4,0.6c-0.7,0.3-1.3,0.7-1.9,1c-0.1,0.1-0.3,0.2-0.4,0.2c-0.6,0.4-1.2,0.8-1.8,1.2
			l0,0c-0.6,0.5-1.2,0.9-1.8,1.5c-0.1,0.1-0.2,0.1-0.2,0.2c-0.6,0.5-1.1,1.1-1.7,1.7l0,0l-5.3,5.3l0,0c-0.3,0.3-0.6,0.6-0.9,0.9l0,0
			c-25.5,23.5-46.6,51.6-62.1,83l0,0c-1.1,2.2-2.1,4.4-3.2,6.7c0,0.1-0.1,0.1-0.1,0.2c-1,2.2-2,4.4-2.9,6.6c0,0.1-0.1,0.2-0.1,0.3
			c-0.9,2.2-1.8,4.4-2.7,6.6c-0.1,0.1-0.1,0.3-0.2,0.4c-0.9,2.2-1.7,4.4-2.5,6.6c-0.1,0.2-0.1,0.4-0.2,0.5c-0.8,2.2-1.6,4.4-2.3,6.6
			c-0.1,0.2-0.1,0.4-0.2,0.6c-0.7,2.2-1.4,4.4-2.1,6.6c-0.1,0.2-0.1,0.5-0.2,0.7c-0.7,2.2-1.3,4.4-1.9,6.6c-0.1,0.3-0.1,0.5-0.2,0.8
			c-0.6,2.2-1.2,4.4-1.7,6.7c-0.1,0.3-0.1,0.5-0.2,0.8c-0.5,2.2-1.1,4.5-1.6,6.7c-0.1,0.3-0.1,0.5-0.2,0.8c-0.5,2.3-0.9,4.5-1.4,6.8
			c-0.1,0.3-0.1,0.6-0.2,0.8c-0.4,2.3-0.8,4.6-1.2,6.9c0,0.3-0.1,0.5-0.1,0.8c-0.4,2.3-0.7,4.6-1,7c0,0.3-0.1,0.5-0.1,0.8
			c-0.3,2.3-0.6,4.7-0.8,7.1c0,0.2-0.1,0.5-0.1,0.7c-0.2,2.4-0.5,4.8-0.7,7.2c0,0.2,0,0.4,0,0.7c-0.2,2.4-0.3,4.9-0.5,7.3
			c0,0.2,0,0.4,0,0.6c-0.1,2.5-0.2,5-0.3,7.5c0,0.1,0,0.3,0,0.4c-0.1,2.6-0.1,5.1-0.1,7.7c0,0.1,0,0.2,0,0.2c0,2.6,0.1,5.3,0.1,7.9
			c2.8,90.9,46.6,172.1,113.2,225.8c1.9,2,4.1,3.7,6.5,5.1c3.4,2,7.4,3.2,11.6,3.5c0.5,0,1.1,0,10.5-1.4c0.4-0.1,0.7-0.2,1.2-0.4
			c0.4-0.2,0.8-0.4,1.3-0.6c0.3-0.2,3.1,0.8,10.6-11.3c2.1-3.3,2-3.8,3.8-7.8c0.2-0.4,0.4-2.8,0.4-3.3
			C167.3,496.4,164.5,489.5,159.8,484.3z"/>
	</g>
	<g id="Calque_10">
		<g>
			<path class="st3" d="M576.4,274.3c-0.7,0.4-1.5,0.7-2.2,1c-1.2,0.5-1.9,0.7-2.6,0.9c-1.1,0.3-1.8,0.5-2.6,0.6
				c-0.9,0.2-1.7,0.3-2.5,0.4c-1.2,0.1-2,0.1-2.7,0.1c-1.1,0-1.7-0.1-2.4-0.1c-1.3-0.1-2.1-0.3-2.9-0.4c-0.9-0.2-1.6-0.4-2.2-0.6
				c-1.3-0.4-1.9-0.6-2.5-0.9c-1-0.4-1.7-0.7-2.3-1.1c-1.1-0.6-1.6-0.9-2.2-1.2c-1.1-0.7-1.7-1.1-2.3-1.6c-0.9-0.8-1.4-1.2-1.9-1.6
				c-1-1-1.5-1.5-2.1-2.1c-0.7-0.8-1.1-1.4-1.5-1.9c-0.8-1.2-1.3-1.9-1.7-2.6c-1-1.8-1.8-3.7-2.4-5.7c-0.5-1.7-0.8-3.5-1-5.3
				C512.8,139.4,411.2,53.5,292.9,53.5c-34.9,0-67.7,7.5-97,20.8c-2.3,1.6-4.8,2.8-7.3,3.5c-0.8,0.2-1.5,0.4-2.3,0.6
				c-1.3,0.2-1.9,0.3-2.6,0.4c-1.3,0.1-2.1,0.1-2.9,0.1c-1.2,0-1.9-0.1-2.6-0.2c-1.2-0.1-2-0.3-2.8-0.4c-1.3-0.3-2-0.5-2.7-0.7
				c-1.1-0.4-1.8-0.7-2.6-1c-1.3-0.6-2.1-1-2.8-1.4c-12.9-7.6-17.5-23.7-10.4-36.4c1.2-2.1,2.9-4.2,4.6-5.9l-3.2,2.6
				c-1.6,1.6-3.1,3.5-4.3,5.7c-7.1,12.7-2.3,29,10.6,36.6c0.7,0.4,1.5,0.8,2.8,1.4c0.8,0.3,1.5,0.6,2.6,1c0.7,0.2,1.4,0.4,2.7,0.7
				c0.8,0.1,1.6,0.3,2.8,0.4c0.7,0.1,1.4,0.2,2.6,0.2c0.8,0,1.6,0,2.9-0.1c0.7-0.1,1.3-0.2,2.6-0.4c0.8-0.2,1.5-0.4,2.3-0.6
				c2.6-0.7,5.1-1.9,7.3-3.5c29.3-13.4,62.1-20.8,97-20.8c118.3,0,219.9,85.9,243.5,198.7c0.2,1.8,0.5,3.6,1,5.3
				c0.6,2,1.4,3.9,2.4,5.7c0.4,0.7,0.9,1.4,1.7,2.6c0.4,0.5,0.8,1.1,1.5,1.9c0.6,0.6,1.1,1.1,2.1,2.1c0.5,0.4,1,0.8,1.9,1.6
				c0.6,0.5,1.2,0.9,2.3,1.6c0.6,0.3,1.1,0.6,2.2,1.2c0.6,0.4,1.3,0.7,2.3,1.1c0.6,0.3,1.2,0.5,2.5,0.9c0.6,0.2,1.3,0.4,2.2,0.6
				c0.8,0.1,1.6,0.3,2.9,0.4c0.7,0,1.3,0.1,2.4,0.1c0.7,0,1.5,0,2.7-0.1c0.8-0.1,1.6-0.2,2.5-0.4c0.8-0.1,1.5-0.3,2.6-0.6
				c0.7-0.2,1.4-0.4,2.6-0.9c0.7-0.3,1.5-0.6,2.2-1c2.2-1.2,4.2-2.7,5.9-4.4l2.6-2.6C580.6,271.6,578.6,273.1,576.4,274.3z"/>
			<path class="st3" d="M538.7,313.1c-0.6,2.7-0.8,5.6-0.4,8.4c-3.9,57.2-28.3,108.4-66.1,146.3l2.6-2.6
				c37.8-37.9,62.1-89.1,66.1-146.3c-0.3-2.8-0.1-5.7,0.4-8.4c1-4.8,3.4-9.2,6.9-12.6l-2.6,2.6C542.1,304,539.7,308.4,538.7,313.1z"
				/>
			<path class="st3" d="M384,141.7c-5.3,5.4-8.5,12.9-8.2,21.2c0.3,7.6,3.4,14.5,8.2,19.6c2,2.2,4.2,4,6.7,5.5
				c30.7,26.4,50.8,64.8,52.4,107.5c1.5,38.5-12.3,73.4-36,99.2c-0.9,0.9-1.8,1.8-2.6,2.8c-1.3,1.6-2.5,3.4-3.4,5.3
				c-7.2,14.3-1,32.2,13.6,39.8c0.3,0.1,0.6,0.3,5.1,2.1c0.3,0.1,0.5,0.2,1,0.3c0.3,0,0.6,0.1,6.2,1c0.4,0,0.7,0,1.2,0
				c0.3,0,0.5,0,0.8,0s0.6,0,1.1,0c0.3,0,0.7,0,1.4-0.1c0.3,0,0.5,0,5.5-1c0.2-0.1,0.5-0.1,1-0.3c0.3-0.1,0.7-0.2,1.2-0.4
				c0.2-0.1,0.5-0.2,5-2.5c0.2-0.1,0.4-0.3,0.9-0.6c0.3-0.2,0.6-0.4,0.9-0.6c1.1-0.8,2.1-1.8,3.1-2.7l2.6-2.6c-1,1-2,1.9-3.1,2.7
				c-0.3,0.2-0.6,0.4-0.9,0.6c-0.5,0.3-0.7,0.5-0.9,0.6c-4.5,2.3-4.8,2.4-5,2.5c-0.5,0.2-0.9,0.3-1.2,0.4c-0.5,0.2-0.8,0.2-1,0.3
				c-5,1-5.2,1-5.5,1c-0.7,0.1-1.1,0.1-1.4,0.1c-0.5,0-0.8,0-1.1,0c-0.3,0-0.5,0-0.8,0c-0.5,0-0.8,0-1.2,0c-5.6-0.9-5.9-1-6.2-1
				c-0.5-0.1-0.7-0.2-1-0.3c-4.5-1.8-4.8-2-5.1-2.1c-14.6-7.7-20.7-25.5-13.6-39.8c1-1.9,2.2-3.7,3.4-5.3c0.8-1,1.7-1.9,2.6-2.8
				c23.7-25.8,37.5-60.8,36-99.2c-1.6-42.7-21.7-81.1-52.4-107.5c-2.5-1.5-4.7-3.3-6.7-5.5c-4.8-5.2-8-12-8.2-19.6
				c-0.3-8.3,2.8-15.9,8.2-21.2L384,141.7z"/>
			<path class="st3" d="M335.2,157.5c1.8,0.3,3.7,0.5,5.6,0.5c7.9,0,15-3.1,20.1-8.3l2.6-2.6c-5.1,5.1-12.2,8.3-20.1,8.3
				c-1.9,0-3.8-0.2-5.6-0.5c-1.6-0.3-3.2-0.7-4.7-1.3c-11.7-3-23.8-4.6-36.4-4.6c-38.8,0-73.5,15.4-98.4,40.4l-2.6,2.6
				c24.9-25,59.6-40.4,98.4-40.4c12.6,0,24.7,1.6,36.4,4.6C332,156.8,333.6,157.2,335.2,157.5z"/>
			<path class="st3" d="M141.4,109.8c-0.1,0.1-0.2,0.2-0.3,0.3l2.6-2.6c0.1-0.1,0.2-0.2,0.3-0.3L141.4,109.8z"/>
			<path class="st3" d="M141,110.1c0.3-0.3,0.6-0.6,1-0.9l2.6-2.6c-0.3,0.3-0.6,0.6-1,0.9s-0.7,0.6-1.1,0.9c-2.3,2-4.6,4-6.8,6.1
				l-2.6,2.6c2.2-2.1,4.5-4.1,6.8-6.1C140.3,110.7,140.6,110.4,141,110.1z"/>
			<path class="st3" d="M136.4,115l2.6-2.6c-1.6,1.5-1.9,1.8-2.3,2.1c-4.5,3.7-8.7,7.7-12.8,11.8l-2.6,2.6
				c4.1-4.1,8.3-8.1,12.8-11.8C134.5,116.8,134.8,116.5,136.4,115z"/>
			<path class="st3" d="M156.1,147.2l-2.6,2.6c-28.8,29-48.4,67.1-54.4,109.8c-0.8,2.8-1.1,5.7-1,8.7c0.1,5.3,1.7,10.6,4.8,15.3
				c0.4,0.5,0.7,1,1.4,1.9c0.3,0.4,0.6,0.7,1.2,1.5c0.3,0.4,0.7,0.8,1.2,1.3c0.4,0.5,0.8,0.9,1.6,1.6c0.3,0.3,0.6,0.6,1.4,1.2
				c0.4,0.3,0.8,0.6,1.4,1.1c0.5,0.3,0.9,0.7,1.8,1.2c0.4,0.2,0.8,0.4,1.6,0.9c0.4,0.2,0.8,0.4,1.6,0.8c0.5,0.2,1,0.5,1.9,0.8
				c0.4,0.1,0.9,0.3,1.8,0.6c0.4,0.2,0.9,0.3,1.7,0.5c0.5,0.1,1.1,0.3,1.9,0.4c0.4,0.1,0.9,0.2,1.9,0.3c0.4,0.1,0.8,0.1,1.7,0.2
				c0.6,0.1,1.1,0.1,1.8,0.1c0.5,0,1,0,2.1-0.1c0.5,0,0.9-0.1,1.8-0.2c0.6-0.1,1.2-0.2,2.1-0.4c0.5-0.1,0.9-0.2,1.9-0.5
				c0.5-0.1,0.9-0.2,1.7-0.5c0.6-0.2,1.1-0.4,2.1-0.8c0.4-0.1,0.8-0.3,1.7-0.8c0.5-0.3,1.1-0.6,1.6-0.9c1.9-1.2,3.6-2.6,5.1-4.1
				l2.6-2.6c-1.5,1.5-3.2,2.9-5.1,4.1c-0.5,0.3-1.1,0.6-1.6,0.9c-0.9,0.5-1.3,0.7-1.7,0.8c-1,0.4-1.5,0.6-2.1,0.8
				c-0.8,0.3-1.2,0.4-1.7,0.5c-1,0.3-1.4,0.4-1.9,0.5c-0.9,0.2-1.5,0.3-2.1,0.4c-0.9,0.1-1.3,0.2-1.8,0.2c-1.1,0.1-1.6,0.1-2.1,0.1
				c-0.7,0-1.2,0-1.8-0.1c-0.9-0.1-1.3-0.1-1.7-0.2c-1-0.1-1.5-0.2-1.9-0.3c-0.8-0.1-1.4-0.3-1.9-0.4c-0.8-0.2-1.3-0.3-1.7-0.5
				c-0.9-0.3-1.4-0.5-1.8-0.6c-0.9-0.3-1.4-0.6-1.9-0.8c-0.8-0.4-1.2-0.6-1.6-0.8c-0.8-0.5-1.2-0.7-1.6-0.9
				c-0.9-0.5-1.3-0.9-1.8-1.2c-0.6-0.5-1-0.8-1.4-1.1c-0.8-0.6-1.1-0.9-1.4-1.2c-0.8-0.7-1.2-1.1-1.6-1.6c-0.5-0.5-0.9-0.9-1.2-1.3
				c-0.6-0.8-0.9-1.1-1.2-1.5c-0.7-0.9-1-1.4-1.4-1.9c-3.1-4.8-4.7-10.1-4.8-15.3c-0.1-3,0.3-5.9,1-8.7
				C107.6,214.3,127.2,176.1,156.1,147.2z"/>
			<path class="st3" d="M375.8,485.6c2.5-0.6,4.8-1.5,7-2.7c2.3-1.2,4.4-2.8,6.2-4.7l2.6-2.6c-1.9,1.9-4,3.5-6.2,4.7s-4.5,2.1-7,2.7
				c-21.3,7.9-44.3,12.2-68.5,12.2c-91.3,0-170.7-60.5-199-143.6c-1.6-3.2-2.6-6.6-3.2-10c-1.1-8.8,1.7-17.6,8-23.9l-2.6,2.6
				c-6.2,6.3-9.1,15.1-8,23.9c0.5,3.4,1.5,6.8,3.2,10c28.3,83.1,107.8,143.6,199,143.6C331.5,497.7,354.6,493.5,375.8,485.6z"/>
			<path class="st3" d="M193.5,559.6c-1.5-0.5-3-1.2-4.4-2c-8.8-4.9-14.8-14.4-14.4-25c0-0.8,0.1-1.6,0.2-2.4
				c0.7-5.8,3.3-10.9,7.2-14.8l-2.8,2.5c-3.8,3.9-6.3,9.1-7,14.9c-0.1,0.8-0.2,1.6-0.2,2.4c-0.3,10.6,5.6,20.1,14.4,25
				c1.4,0.8,2.9,1.5,4.4,2c36.8,16,77.1,24.9,119.1,24.9c78.8,0,149.2-31.2,199.8-82l2.6-2.6c-50.6,50.8-120.9,82-199.8,82
				C270.6,584.5,230.3,575.6,193.5,559.6z"/>
			<path class="st3" d="M154.4,524c-0.4,0.4-0.7,0.5-1,0.6c-9.4,1.4-10.1,1.8-10.6,1.8c-4.2-0.3-8.2-1.5-11.6-3.5
				c-2.4-1.4-4.6-3.1-6.5-5.1C58,464.3,13.8,383.5,10.3,292.9c-0.1-2.6-0.2-5.3-0.2-7.9c0-2.8,0-5.4,0-7.9c0-2.9,0.1-5.4,0.2-7.9
				c0.1-3,0.3-5.4,0.4-7.9c0.2-3,0.4-5.4,0.6-7.8c0.3-3.1,0.6-5.4,0.9-7.8c0.4-3.1,0.7-5.4,1.1-7.7c0.5-3.1,0.9-5.4,1.3-7.7
				c0.6-3.1,1-5.4,1.5-7.6c0.6-3.1,1.2-5.3,1.7-7.5c0.7-3,1.3-5.2,1.9-7.4c0.8-3,1.4-5.2,2.1-7.4c0.9-2.9,1.6-5.1,2.3-7.3
				c0.9-2.8,1.7-5,2.5-7.2c1-2.7,1.8-4.9,2.6-7.1c1-2.6,1.9-4.9,2.8-7c1.1-2.5,2-4.7,3-6.9c1.1-2.4,2.1-4.6,3.2-6.8
				c13.5-28,31.6-53.3,53.2-75l-2.6,2.6c-21.6,21.7-39.7,47-53.2,75c-1.1,2.2-2.1,4.4-3.2,6.8c-1,2.2-1.9,4.4-3,6.9
				c-0.9,2.2-1.8,4.4-2.8,7c-0.8,2.2-1.7,4.4-2.6,7.1c-0.8,2.2-1.5,4.4-2.5,7.2c-0.7,2.2-1.4,4.4-2.3,7.3c-0.6,2.2-1.3,4.4-2.1,7.4
				c-0.6,2.2-1.2,4.4-1.9,7.4c-0.5,2.2-1,4.5-1.7,7.5c-0.5,2.3-0.9,4.5-1.5,7.6c-0.4,2.3-0.8,4.5-1.3,7.7c-0.4,2.3-0.7,4.6-1.1,7.7
				c-0.3,2.3-0.6,4.7-0.9,7.8c-0.2,2.4-0.4,4.8-0.6,7.8c-0.2,2.4-0.3,4.9-0.4,7.9c-0.1,2.5-0.2,5-0.2,7.9c0,2.5-0.1,5.1,0,7.9
				c0,2.6,0.1,5.3,0.2,7.9c3.5,90.6,47.7,171.5,114.5,224.9c1.9,2,4.1,3.7,6.5,5.1c3.4,2,7.4,3.2,11.6,3.5c0.5,0,2.8-0.4,6.5-0.7
				c0.4-0.1,4.7-0.9,5.2-1.1c0.4-0.2,0.8-0.4,1.3-0.6c0.1,0,0.1-0.1,0.3-0.2c0,0,4.4-4.3,5.4-6.2"/>
		</g>
	</g>
</g>
</svg>
