<svg id="FRANCE" xmlns="http://www.w3.org/2000/svg" xmlns:xlink="http://www.w3.org/1999/xlink" viewBox="0 0 125.51 121.47"><defs><linearGradient id="Dégradé_sans_nom_5" x1="0.21" y1="62.76" x2="125.12" y2="62.76" gradientUnits="userSpaceOnUse"><stop offset="0.19" stop-color="#bac6e0"/><stop offset="0.22" stop-color="#b1c0db"/><stop offset="0.5" stop-color="#668eb2"/><stop offset="0.73" stop-color="#2f6994"/><stop offset="0.91" stop-color="#0d5381"/><stop offset="1" stop-color="#004a7a"/></linearGradient></defs><title>barometre_v2</title><polyline points="0.2 59.8 125.12 59.8 125.12 65.72 0.2 65.72" style="opacity:0.75;fill:url(#Dégradé_sans_nom_5)"/>
<path d="M1.89,62.77a.09.09,0,0,1-.08-.08c0-34.19,27.77-59.34,62-59.34s61.93,25.14,62,59.32a.09.09,0,0,1-.08.09L79.36,63a.09.09,0,0,0-.09.09,15.49,15.49,0,0,1-31,0A.08.08,0,0,0,48.2,63Z" transform="translate(-0.75 -1.68)" style="fill:#fff;stroke:#868686;stroke-miterlimit:10"/>
<path d="M59.31,61.63l.6-43.76L67.28,61a4,4,0,1,1-7.91,1.35A4.49,4.49,0,0,1,59.31,61.63Z" transform="translate(-0.75 -1.68)" style="fill:#b1b1b1"/>
<path d="M59.9,62.17,50.09,8.71l16.6,51.76A3.51,3.51,0,0,1,60,62.61C60,62.47,59.93,62.31,59.9,62.17Z" transform="translate(-0.75 -1.68)" style="fill:#004a7a"/>
<circle cx="62.65" cy="59.77" r="1.32" style="fill:#fff"/><line x1="114.04" y1="31.36" x2="115.85" y2="30.3" style="fill:#fff;stroke:#868686;stroke-miterlimit:10"/><line x1="91.66" y1="10.69" x2="92.71" y2="8.87" style="fill:#fff;stroke:#868686;stroke-miterlimit:10"/><line x1="62.66" y1="3.81" x2="62.66" y2="1.71" style="fill:#fff;stroke:#868686;stroke-miterlimit:10"/><line x1="33.54" y1="10.81" x2="32.49" y2="8.99" style="fill:#fff;stroke:#868686;stroke-miterlimit:10"/><line x1="11.2" y1="31.43" x2="9.38" y2="30.38" style="fill:#fff;stroke:#868686;stroke-miterlimit:10"/>
<circle cx="48.44" cy="3.16" r="1.71" style="fill:#004a7a"/>
<circle cx="58.25" cy="1.71" r="1.71" style="fill:#b2b2b2"/><text transform="translate(12.08 33.62) rotate(30) scale(0.8 1)" style="font-size:5px;fill:#575856;font-family:Chalet-LondonNineteenSixty, Chalet"><tspan style="letter-spacing:-0.014892577903083296em">2</tspan><tspan x="2.72" y="0">5</tspan></text><text transform="translate(32.99 13.03) rotate(60) scale(0.8 1)" style="font-size:5px;fill:#575856;font-family:Chalet-LondonNineteenSixty, Chalet">30</text><text transform="translate(61.14 5.28) rotate(90) scale(0.8 1)" style="font-size:5px;fill:#575856;font-family:Chalet-LondonNineteenSixty, Chalet">35</text><text transform="translate(89.79 17.45) rotate(-60) scale(0.8 1)" style="font-size:5px;fill:#575856;font-family:Chalet-LondonNineteenSixty, Chalet">40</text><text transform="translate(108.65 36.27) rotate(-30) scale(0.8 1)" style="font-size:5px;fill:#575856;font-family:Chalet-LondonNineteenSixty, Chalet"><tspan style="letter-spacing:0.004882812427240425em">4</tspan><tspan x="2.8" y="0">5</tspan></text><text transform="translate(116.12 59.49) scale(0.8 1)" style="font-size:5px;fill:#575856;font-family:Chalet-LondonNineteenSixty, Chalet">50</text><text transform="translate(4.18 59.75) scale(0.8 1)" style="font-size:5px;fill:#575856;font-family:Chalet-LondonNineteenSixty, Chalet">20</text><g id="Aide"><circle id="aide_petite_aiguille" cx="61.7" cy="63.59" r="57.89" style="fill:#1d1d1b;opacity:0.39"/><circle id="aide_texte_et_grande_aiguille" cx="61.7" cy="63.59" r="47.47" style="fill:#1d1d1b;opacity:0.39"/><line id="aide_angle" x1="123.95" y1="60.86" y2="60.86" style="fill:#1d1d1b"/></g></svg>
