<svg class="graphique" viewBox="0 0 124.95 77.33">

  <defs>
    <linearGradient id="Dégradé_sans_nom_5" x1="0.01" y1="62.76" x2="124.93" y2="62.76" gradientUnits="userSpaceOnUse">
      <stop offset="0.19" stop-color="#bac6e0"/>
      <stop offset="0.22" stop-color="#b1c0db"/>
      <stop offset="0.5" stop-color="#668eb2"/>
      <stop offset="0.73" stop-color="#2f6994"/>
      <stop offset="0.91" stop-color="#0d5381"/>
      <stop offset="1" stop-color="#004a7a"/>
    </linearGradient>
  </defs>

<polyline points="0.01 59.8 124.93 59.8 124.93 65.72 0.01 65.72" style="opacity:0.75;fill:url(#Dégradé_sans_nom_5)"/>
<path d="M1.52,62.77a.09.09,0,0,1-.08-.08c0-34.19,27.77-59.34,62-59.34s61.93,25.14,62,59.32a.09.09,0,0,1-.08.09L79,63a.09.09,0,0,0-.09.09,15.49,15.49,0,0,1-31,0,.08.08,0,0,0-.08-.08Z" transform="translate(-0.94 -1.68)" style="fill:#fff;stroke:#868686;stroke-miterlimit:10"/>
<path d="M59.3,61.36l3.51-43.83L67.3,61.28a4,4,0,0,1-8,.82A4.57,4.57,0,0,1,59.3,61.36Z" transform="translate(-0.94 -1.68)" style="fill:#b1b1b1"/>
<path d="M59.91,60.43,77.1,8.89,66.68,62.21a3.5,3.5,0,0,1-6.88-1.34C59.83,60.72,59.87,60.56,59.91,60.43Z" transform="translate(-0.94 -1.68)" style="fill:#004a7a"/>
<circle cx="62.46" cy="59.77" r="1.32" style="fill:#fff"/>
<line x1="113.85" y1="31.36" x2="115.66" y2="30.3" style="fill:#fff;stroke:#868686;stroke-miterlimit:10"/>
<line x1="91.47" y1="10.69" x2="92.52" y2="8.87" style="fill:#fff;stroke:#868686;stroke-miterlimit:10"/><line x1="62.47" y1="3.81" x2="62.47" y2="1.71" style="fill:#fff;stroke:#868686;stroke-miterlimit:10"/>
<line x1="33.35" y1="10.81" x2="32.3" y2="8.99" style="fill:#fff;stroke:#868686;stroke-miterlimit:10"/>
<line x1="11.01" y1="31.43" x2="9.19" y2="30.38" style="fill:#fff;stroke:#868686;stroke-miterlimit:10"/>
<circle cx="77.14" cy="3.42" r="1.71" style="fill:#004a7a"/>
<circle cx="61.51" cy="1.71" r="1.71" style="fill:#b2b2b2"/>
<text transform="translate(11.89 33.62) rotate(30) scale(0.8 1)" style="font-size:5px;fill:#575856;font-family:Chalet-LondonNineteenSixty, Chalet">
  <tspan style="letter-spacing:-0.014892577903083296em">2</tspan><tspan x="2.72" y="0">5</tspan></text>
<text transform="translate(32.79 13.03) rotate(60) scale(0.8 1)" style="font-size:5px;fill:#575856;font-family:Chalet-LondonNineteenSixty, Chalet">30</text>
<text transform="translate(60.94 5.28) rotate(90) scale(0.8 1)" style="font-size:5px;fill:#575856;font-family:Chalet-LondonNineteenSixty, Chalet">35</text>
<text transform="translate(89.6 17.45) rotate(-60) scale(0.8 1)" style="font-size:5px;fill:#575856;font-family:Chalet-LondonNineteenSixty, Chalet">40</text>
<text transform="translate(108.46 36.27) rotate(-30) scale(0.8 1)" style="font-size:5px;fill:#575856;font-family:Chalet-LondonNineteenSixty, Chalet">
  <tspan style="letter-spacing:0.004882812427240425em">4</tspan>
  <tspan x="2.8" y="0">5</tspan>
</text>
<text transform="translate(115.92 59.49) scale(0.8 1)" style="font-size:5px;fill:#575856;font-family:Chalet-LondonNineteenSixty, Chalet">50</text>
<text transform="translate(3.99 59.75) scale(0.8 1)" style="font-size:5px;fill:#575856;font-family:Chalet-LondonNineteenSixty, Chalet">20</text>
</svg>
