<svg xmlns="http://www.w3.org/2000/svg" viewBox="0 0 841.89 595.28"><defs><style>.cls-1{opacity:0.05;}.cls-2{fill:#8ab226;}</style></defs><title>Fond</title><g id="Calque_3" data-name="Calque 3" class="cls-1"><path class="cls-2" d="M390.11,571.79c-30.23-44.71-67.66-84.66-104.74-124.14l-91.59-97.5c-15.56-16.57-35.39-49.57-54-62.66C98.64,258.5,49.91,259.06,0,264.57v58.77c28.64,5.66,57.84,12.73,81.22,21.24,55.75,20.27,254.26,196.14,315,250.7h7.81Z"/><path class="cls-2" d="M125.63,128.85C93,74,63.44,24.34,49,0H41.29C49.67,51,84.53,94.07,125.63,128.85Z"/><path class="cls-2" d="M323.68,290.82c-40.09-59.54-106.22-94.92-164.83-136.35-11.26-8-22.46-16.51-33.22-25.62C180,220.16,243,325.84,259.5,353c20.86,34.3,89.35,149.4,130.61,218.81q7.78,11.52,14.9,23.49h17.24c-3.75-89.92-34.09-177.74-73.47-259.09C341.24,320.62,333.34,305.17,323.68,290.82Z"/><path class="cls-2" d="M405,595.28q-7.1-12-14.9-23.49l14,23.49Z"/><path class="cls-2" d="M538.73,68.85c.3-1.3.59-2.59.89-3.88q7.3-32.19,11.51-65H523a103.59,103.59,0,0,0,2.86,18.6C529.18,30.54,533.08,50.09,538.73,68.85Z"/><path class="cls-2" d="M841.89,66V64.56l-3.42,1.69Z"/><path class="cls-2" d="M707.47,93.86c-14.17,7.34-27.3,16.48-40.7,25.17,26.83-2.34,51.87-5.69,64.89-8.79,21.39-5.1,69-25.37,106.81-44-10.52.69-21.07,1.17-31.56,2C772.57,71.05,738.06,78,707.47,93.86Z"/><path class="cls-2" d="M570.93,119.25c-15.1-4.2-25-26.67-32.2-50.4-3.14,13.87-6.09,28.24-2.21,41.82,6.12,21.42,28.63,35.22,50.87,36.69s44-7.19,63.25-18.34c5.48-3.17,10.83-6.54,16.13-10C628.6,122.37,586.81,123.66,570.93,119.25Z"/><path class="cls-2" d="M680.15,479.45C720.56,466.11,760.77,452,797,429.93a298.54,298.54,0,0,0,44.87-33.49v-69Z"/><path class="cls-2" d="M647.51,490.2C596.41,507.25,544.86,527,504,562.08a200.81,200.81,0,0,0-30.9,33.2H556.9L680.15,479.45C669.26,483.05,658.35,486.59,647.51,490.2Z"/></g></svg>