<?xml version="1.0" encoding="utf-8"?>
<!-- Generator: Adobe Illustrator 22.1.0, SVG Export Plug-In . SVG Version: 6.00 Build 0)  -->
<svg version="1.1" id="Calque_1" xmlns="http://www.w3.org/2000/svg" xmlns:xlink="http://www.w3.org/1999/xlink" x="0px" y="0px"
	 viewBox="0 0 841.9 595.3" style="enable-background:new 0 0 841.9 595.3;" xml:space="preserve">
<style type="text/css">
	.st0{fill:#1D1D1B;}
</style>
<title>Fond</title>
<g id="Calque_3">
	<path class="st0" d="M390.1,571.8c-30.2-44.7-67.7-84.7-104.7-124.1l-91.6-97.5c-15.6-16.6-35.4-49.6-54-62.7
		c-41.1-29-89.9-28.4-139.8-22.9v58.8c28.6,5.7,57.8,12.7,81.2,21.2c55.8,20.3,254.3,196.1,315,250.7h7.8L390.1,571.8z"/>
	<path class="st0" d="M392.3,570.5c-41.6-61.3-94.9-113.8-145.5-167.5c-24.3-25.9-49.6-50.9-71.1-79.3
		c-8.6-11.4-17.3-23.2-27.9-32.9C137,281,123.2,274,109.4,269C74.5,256.2,36.3,258.1,0,262.1c-1.4,0-2.5,1.1-2.5,2.5v58.8
		c0,1.1,0.8,2.1,1.8,2.4c35.6,7.1,73,14,104.3,33.2c24.8,15.2,48,33,70.9,50.9c56.6,44.2,111,91,164.9,138.3
		c12,10.5,24,21.1,36,31.8c4.7,4.2,9.5,8.5,14.2,12.7c1.7,1.5,3.8,4.2,5.9,5c2.4,0.8,6,0.1,8.5,0.1c1.4,0,2.5-1.2,2.5-2.6
		c0-0.4-0.1-0.8-0.3-1.2L392.3,570.5c-1.7-2.8-6-0.3-4.4,2.5c4.7,7.8,9.3,15.6,14,23.5l2.2-3.8c-2.4,0-5.3,0.5-7.7,0
		c2.3,0.5,0.1-0.7-0.7-1.4l-3.5-3.1c-4.2-3.7-8.4-7.5-12.5-11.2c-10.5-9.3-21-18.6-31.5-27.8c-26.3-23.2-52.9-46.1-79.6-68.8
		c-28-23.7-56.2-47.1-85-69.8c-23.3-18.3-46.9-36.5-71.8-52.5c-9-5.7-18.2-11.4-28.1-15.3c-26.4-10.5-55.1-16.4-83-21.9l1.8,2.4
		v-58.8L0,267.1c32.2-3.5,65.6-5.5,97.3,3.2c15.2,4.2,30.4,10.9,43,20.6c11.4,8.8,20.2,20.9,28.9,32.2c8.5,11.1,16.8,22.2,26.3,32.4
		l39,41.5c25.7,27.4,51.6,54.5,77,82.1c27.4,29.8,53.9,60.4,76.6,93.9C389.8,575.7,394.1,573.2,392.3,570.5z"/>
	<path class="st0" d="M125.6,128.9C93,74,63.4,24.3,49,0h-7.7C49.7,51,84.5,94.1,125.6,128.9z"/>
	<path class="st0" d="M127.8,127.6c-17.2-28.9-34.4-57.8-51.6-86.7L57.2,9l-3.7-6.3c-0.9-1.5-1.8-4-3.3-4.9
		c-2.1-1.3-6.6-0.3-8.9-0.3c-1.4,0-2.5,1.2-2.5,2.6c0,0.2,0,0.4,0.1,0.6c9,53,45.1,96.1,85,130c2.4,2.1,6-1.4,3.5-3.5
		C88.1,93.7,52.6,51.6,43.7-0.7l-2.4,3.2H49l-2.2-1.2c25.6,43,51.1,85.9,76.7,128.9C125.1,132.9,129.4,130.4,127.8,127.6z"/>
	<path class="st0" d="M323.7,290.8c-40.1-59.5-106.2-94.9-164.8-136.4c-11.3-8-22.5-16.5-33.2-25.6C180,220.2,243,325.8,259.5,353
		c20.9,34.3,89.4,149.4,130.6,218.8c5.2,7.7,10.2,15.5,14.9,23.5h17.2c-3.8-89.9-34.1-177.7-73.5-259.1
		C341.2,320.6,333.3,305.2,323.7,290.8z"/>
	<path class="st0" d="M325.8,289.6c-36.8-54.2-94-88.4-147.1-124.4c-17.6-11.9-35-24.3-51.3-38c-2.1-1.8-5.5,0.4-3.9,3
		c42.6,71.6,85.1,143.3,128.2,214.7c34.1,56.5,67.9,113.1,101.6,169.9l33.1,55.7c3.4,5.7,7.2,11,10.7,16.6
		c1.9,3.1,4.4,10.1,8.2,10.7c5.4,0.9,11.5,0,17,0c1.4,0,2.5-1.1,2.5-2.5c-3.7-84.4-30-165.9-65.2-242.1
		C349.6,331.4,339.2,309.5,325.8,289.6c-1.8-2.7-6.1-0.2-4.3,2.5c11.6,17.5,20.9,36.4,29.8,55.3c9.1,19.2,17.6,38.7,25.3,58.5
		c15,38.4,27.2,78,34.9,118.6c4.4,23.4,7.2,47,8.3,70.8l2.5-2.5H405l2.2,1.2c-10-16.8-20.7-33.2-30.7-50.1
		c-9.7-16.3-19.4-32.6-29.1-48.9c-18.9-31.8-37.9-63.6-56.9-95.4c-28.3-47.4-56.9-94.6-85.2-142c-25.9-43.3-51.7-86.7-77.5-130.1
		l-3.9,3c51.4,43.3,113,73.2,161.9,119.7c13.4,12.6,25.4,26.6,35.8,41.7C323.3,294.7,327.6,292.2,325.8,289.6z"/>
	<path class="st0" d="M405,595.3c-4.7-8-9.7-15.8-14.9-23.5l14,23.5H405z"/>
	<path class="st0" d="M407.2,594c-4.7-8-9.7-15.8-14.9-23.5c-1.8-2.6-6-0.3-4.3,2.5l9.9,16.7c1.8,3,3.2,8,7.1,8c3.2,0,3.2-5,0-5
		h-0.9l2.1,1.2l-14-23.5l-4.2,2.6c5.2,7.7,10.1,15.5,14.9,23.5C404.5,599.3,408.8,596.8,407.2,594z"/>
	<path class="st0" d="M538.7,68.8c0.3-1.3,0.6-2.6,0.9-3.9c4.9-21.5,8.7-43.1,11.5-65H523c0.4,6.3,1.3,12.5,2.9,18.6
		C529.2,30.5,533.1,50.1,538.7,68.8z"/>
	<path class="st0" d="M541.2,69.5c5.2-23,9.4-46.1,12.5-69.5c0-1.4-1.1-2.5-2.5-2.5H523c-1.4,0-2.5,1.1-2.5,2.5
		c0.9,10.8,3.5,20.9,6,31.4c3.1,12.8,6,25.6,9.8,38.1c0.9,3.1,5.8,1.8,4.8-1.3c-3.6-12.1-6.5-24.3-9.4-36.6
		c-2.5-10.6-5.3-20.7-6.2-31.6L523,2.5h28.1L548.6,0c-3,22.9-7.2,45.6-12.3,68.2C535.6,71.3,540.4,72.7,541.2,69.5z"/>
	<path class="st0" d="M841.9,66v-1.4l-3.4,1.7L841.9,66z"/>
	<path class="st0" d="M844.4,66v-1.4c0-1.4-1.2-2.5-2.6-2.5c-0.4,0-0.8,0.1-1.2,0.3l-3.4,1.7c-2.2,1.1-1.2,4.8,1.3,4.7l3.4-0.2
		C843.3,68.5,844.4,67.4,844.4,66c0-1.4-1.1-2.5-2.5-2.5l-3.4,0.2l1.3,4.7l3.4-1.7l-3.8-2.2V66c0,1.4,1.1,2.5,2.5,2.5
		S844.4,67.4,844.4,66z"/>
	<path class="st0" d="M707.5,93.9c-14.2,7.3-27.3,16.5-40.7,25.2c26.8-2.3,51.9-5.7,64.9-8.8c21.4-5.1,69-25.4,106.8-44
		c-10.5,0.7-21.1,1.2-31.6,2C772.6,71,738.1,78,707.5,93.9z"/>
	<path class="st0" d="M706.2,91.7c-14.2,7.4-27.3,16.5-40.7,25.2c-1.9,1.2-1.4,4.9,1.3,4.7c28.6-2.5,57.5-5.2,84.7-14.8
		c30.2-10.8,59.5-24.2,88.3-38.3c2.2-1.1,1.2-4.8-1.3-4.7c-23.2,1.5-46.3,2.6-69.2,7C747.4,74.9,726.1,81.6,706.2,91.7
		c-2.9,1.5-0.3,5.8,2.5,4.4c19.5-10,40.5-16.5,61.9-20.5c22.4-4.2,45.1-5.3,67.8-6.8l-1.3-4.7c-28.3,13.9-57.3,27.1-87,37.7
		c-26.8,9.6-55.2,12.1-83.4,14.7l1.3,4.7c13.4-8.7,26.5-17.8,40.7-25.2C711.6,94.5,709.1,90.2,706.2,91.7z"/>
	<path class="st0" d="M570.9,119.2c-15.1-4.2-25-26.7-32.2-50.4c-3.1,13.9-6.1,28.2-2.2,41.8c6.1,21.4,28.6,35.2,50.9,36.7
		s44-7.2,63.3-18.3c5.5-3.2,10.8-6.5,16.1-10C628.6,122.4,586.8,123.7,570.9,119.2z"/>
	<path class="st0" d="M571.6,116.8c-8.6-2.6-14.2-10.5-18.3-18c-5.3-9.6-8.9-20.1-12.1-30.6c-0.7-2.3-4.3-2.5-4.8,0
		c-3.8,17-7.2,35.3,1.2,51.6c6.5,12.6,18.6,21.6,31.8,26.3c34.6,12.6,70.3-6.4,98.8-24.9c1.9-1.2,1.4-4.9-1.3-4.7
		c-18.4,1.6-37,2.8-55.5,3C598.3,119.7,584.3,120.2,571.6,116.8c-3.1-0.8-4.5,4-1.3,4.8c12.6,3.3,26.5,3,39.4,2.9
		c19.1-0.2,38.1-1.4,57.1-3l-1.3-4.7c-26.2,17-58.5,35-90.8,25.7c-12.9-3.7-25-11.7-31.9-23.5c-8.9-15.3-5.3-33.2-1.7-49.5h-4.8
		c3.6,11.8,7.7,23.8,14.1,34.4c4.7,7.8,10.9,15,19.8,17.8C573.3,122.6,574.7,117.8,571.6,116.8z"/>
	<path class="st0" d="M680.2,479.5c40.4-13.3,80.6-27.5,116.8-49.5c16-9.7,31-20.9,44.9-33.5v-69L680.2,479.5z"/>
	<path class="st0" d="M680.8,481.9c46.6-15.4,93.7-32.1,134.1-60.7c4.6-3.3,9.1-6.6,13.5-10.1c4.8-3.8,10.4-7.7,14.5-12.2
		c1.9-2.1,1.4-4.5,1.4-7.3v-64.1c0-1.4-1.2-2.5-2.6-2.5c-0.6,0-1.2,0.3-1.7,0.7l-54.7,51.4L698.3,459l-19.9,18.7
		c-2.3,2.2,1.2,5.7,3.5,3.5l54.7-51.4l87.1-81.9l19.9-18.7l-4.3-1.8v58.9c0,2.6,0.9,7,0,9.5c0,0.1,0.1,0.4,0,0.5
		c0.7-1.3-3.4,1.9-3.3,1.9c-0.9,0.8-1.8,1.6-2.7,2.4c-4.9,4.2-9.9,8.2-15.1,12c-19.2,14.3-40.1,25.9-61.9,35.7
		c-25,11.3-50.9,20.1-76.9,28.7C676.4,478,677.7,482.9,680.8,481.9z"/>
	<path class="st0" d="M647.5,490.2c-51.1,17-102.7,36.8-143.5,71.9c-11.5,9.9-21.9,21-30.9,33.2h83.8l123.3-115.8
		C669.3,483,658.3,486.6,647.5,490.2z"/>
	<path class="st0" d="M646.8,487.8c-65.4,21.9-133.4,49.1-175.9,106.2c-1.2,1.6,0.4,3.8,2.2,3.8h81c3.3,0,4.5-0.7,6.9-2.9l89.5-84.1
		l31.5-29.6c1.8-1.7,0-5-2.4-4.2C668.6,480.6,657.8,484.2,646.8,487.8c-3,1-1.7,5.8,1.4,4.8c10.9-3.6,21.8-7.2,32.6-10.8l-2.4-4.2
		l-76.8,72.1l-41.2,38.6c-1.4,1.3-3,2.6-4.3,4c-0.1,0.1-1,0.8-0.9,0.9c-0.1-0.4,2.2,0,1.1-0.6c-1.5-0.8-5.8,0-7.4,0h-75.9l2.2,3.8
		c41.7-56,108.9-82.5,172.9-103.9C651.2,491.6,649.9,486.8,646.8,487.8z"/>
</g>
</svg>
