<svg xmlns="http://www.w3.org/2000/svg" viewBox="0 0 841.89 595.28"><defs><style>.cls-1{opacity:0.05;}.cls-2{fill:#de4e1c;}</style></defs><title>Fond</title><g id="Calque_3" data-name="Calque 3" class="cls-1"><path class="cls-2" d="M389.69,571.17C359.46,526.45,322,486.5,285,447l-91.59-97.5C177.8,333,158,300,139.39,286.87c-41.17-29-89.9-28.44-139.81-22.93v58.77C28.22,328.37,57.42,335.45,80.8,344c55.75,20.27,254.26,196.14,315,250.7h7.81Z"/><path class="cls-2" d="M125.21,128.23C92.55,73.38,63,23.71,48.54-.63H40.87C49.25,50.34,84.11,93.45,125.21,128.23Z"/><path class="cls-2" d="M323.26,290.19C283.17,230.65,217,195.28,158.43,153.84c-11.26-8-22.45-16.5-33.22-25.61,54.36,91.31,117.35,197,133.87,224.12,20.86,34.3,89.36,149.4,130.61,218.82q7.8,11.52,14.9,23.48h17.24c-3.74-89.92-34.09-177.74-73.47-259.09C340.82,320,332.92,304.54,323.26,290.19Z"/><path class="cls-2" d="M404.59,594.65q-7.09-12-14.9-23.48l14,23.48Z"/><path class="cls-2" d="M538.32,68.22c.29-1.3.59-2.59.88-3.88,4.87-21.45,8.7-43.15,11.51-65H522.59A103.86,103.86,0,0,0,525.45,18C528.76,29.91,532.67,49.46,538.32,68.22Z"/><path class="cls-2" d="M841.47,65.39V63.93l-3.41,1.69Z"/><path class="cls-2" d="M707.05,93.23c-14.17,7.34-27.3,16.48-40.7,25.18,26.83-2.35,51.88-5.7,64.9-8.8,21.38-5.09,69-25.37,106.81-44-10.53.69-21.08,1.18-31.57,2C772.15,70.42,737.64,77.37,707.05,93.23Z"/><path class="cls-2" d="M570.51,118.62c-15.1-4.19-25-26.66-32.19-50.4-3.15,13.88-6.1,28.24-2.22,41.82,6.12,21.42,28.63,35.22,50.87,36.69s44-7.19,63.26-18.34c5.47-3.16,10.82-6.54,16.12-10C628.18,121.74,586.39,123,570.51,118.62Z"/><path class="cls-2" d="M679.73,478.83c40.41-13.35,80.62-27.49,116.87-49.52a299.28,299.28,0,0,0,44.87-33.5v-69Z"/><path class="cls-2" d="M647.09,489.58c-51.09,17-102.65,36.83-143.55,71.87a201.61,201.61,0,0,0-30.9,33.2h83.84L679.73,478.83C668.84,482.42,657.93,486,647.09,489.58Z"/></g></svg>