<svg id="Calque_1" data-name="Calque 1" xmlns="http://www.w3.org/2000/svg" xmlns:xlink="http://www.w3.org/1999/xlink" viewBox="0 0 288.48 75.58"><defs><style>.cls-1{fill:none;}.cls-2{clip-path:url(#clip-path);}.cls-3{fill:#207d34;}.cls-4{fill:#f08008;}</style><clipPath id="clip-path" transform="translate(-6.68 -6.83)"><rect class="cls-1" width="298.72" height="87.18"/></clipPath></defs><title>logo_ot</title><g class="cls-2"><polygon class="cls-3" points="288.48 0 233.34 0.03 233.33 17.87 251.19 17.87 251.19 40.6 270.8 40.62 270.8 17.87 288.46 17.87 288.48 0"/><path class="cls-4" d="M241.11,66c-12.23,0-21.48-10.1-21.48-22.22A22.31,22.31,0,0,1,230.11,24.7V6.84a38.59,38.59,0,1,0,47.14,50.49H258.2A21,21,0,0,1,241.11,66Z" transform="translate(-6.68 -6.83)"/><path class="cls-4" d="M16.62,37.49a9.94,9.94,0,1,0,9.94,9.94A9.94,9.94,0,0,0,16.62,37.49Zm0,15.61a5.67,5.67,0,1,1,5.67-5.67A5.67,5.67,0,0,1,16.62,53.09Z" transform="translate(-6.68 -6.83)"/><path class="cls-4" d="M143.62,37.49a9.94,9.94,0,1,0,9.94,9.94A9.94,9.94,0,0,0,143.62,37.49Zm0,15.61a5.67,5.67,0,1,1,5.67-5.67A5.67,5.67,0,0,1,143.62,53.09Z" transform="translate(-6.68 -6.83)"/><path class="cls-4" d="M41,46.92a5.49,5.49,0,0,0-3.7-9.56H29.18V45.9h0V57.24h8.58A5.67,5.67,0,0,0,41,46.92Zm-7.57-5.26h2.83a1.91,1.91,0,0,1,0,3.83H33.44ZM37.5,53.09H33.44V49.15H37.5a2,2,0,0,1,0,3.94Z" transform="translate(-6.68 -6.83)"/><path class="cls-4" d="M88.27,42.86a5.77,5.77,0,0,0-5.51-5.37H75.17V45.9h0V57.24h4.26V48.95l6.16,8.29h5.25L84.6,48.78S88.27,47.91,88.27,42.86Zm-8.83-1.19h2.83a1.91,1.91,0,0,1,0,3.83H79.44Z" transform="translate(-6.68 -6.83)"/><path class="cls-4" d="M177.92,42.86a5.77,5.77,0,0,0-5.51-5.37h-7.58V45.9h0V57.24h4.26V48.95l6.16,8.29h5.25l-6.25-8.46S177.92,47.91,177.92,42.86Zm-8.83-1.19h2.83a1.91,1.91,0,0,1,0,3.83H169.1Z" transform="translate(-6.68 -6.83)"/><polygon class="cls-4" points="53.71 30.66 65.42 30.66 65.42 35.03 58.04 35.03 58.04 38.41 64 38.41 64 42.41 58.04 42.41 58.04 45.83 65.42 45.83 65.42 50.41 53.71 50.41 53.71 30.66"/><polygon class="cls-4" points="174.71 30.66 186.42 30.66 186.42 35.03 179.04 35.03 179.04 38.41 185 38.41 185 42.41 179.04 42.41 179.04 45.83 186.42 45.87 186.42 50.41 174.71 50.41 174.71 30.66"/><polygon class="cls-4" points="91.19 50.4 100.19 30.6 95.44 30.6 91.16 40.27 86.88 30.6 82.13 30.6 91.13 50.4 91.13 50.53 91.16 50.47 91.19 50.53 91.19 50.4"/><path class="cls-4" d="M117,57.24h4.75l-9.87-19.67v-.14l0,.07,0-.07v.14l-9.64,19.67h4.75l1.63-3.5h6.73Zm-7-6.69,1.8-3.86,1.89,3.86Z" transform="translate(-6.68 -6.83)"/><polygon class="cls-4" points="126.44 35.08 126.44 30.6 112.75 30.6 112.74 35.08 117.35 35.08 117.35 50.41 121.83 50.41 121.83 35.08 126.44 35.08"/><rect class="cls-4" x="149.69" y="30.69" width="4.48" height="19.81"/><path class="cls-4" d="M49.66,42.86a1.35,1.35,0,0,1,1.5-1.46,4.51,4.51,0,0,1,2.38,1.44l2.83-3s-1.37-2.32-5.25-2.3c-1,.19-5.77-.08-5.81,5.67s7.74,6,7.71,8.47c0,.38-.17,1.44-1.85,1.46-2,.17-3.56-2.38-3.56-2.38l-3.36,2.63s1.36,3.81,6.78,3.81c6.28,0,6.28-4.54,6.28-5.78C57.31,45.64,49.64,45.2,49.66,42.86Z" transform="translate(-6.68 -6.83)"/><polygon class="cls-4" points="14.84 55.65 20.7 55.65 20.7 57.84 17.01 57.84 17.01 59.52 19.99 59.52 19.99 61.52 17.01 61.52 17.01 63.23 20.7 63.25 20.7 65.52 14.84 65.52 14.84 55.65"/><path class="cls-4" d="M15.42,62.48H12.22v9.88h3.21a4.94,4.94,0,0,0,0-9.88Zm-.13,7.77H14.13V64.58h1.16a2.84,2.84,0,0,1,0,5.67Z" transform="translate(-6.68 -6.83)"/><path class="cls-4" d="M31.16,65.16a.67.67,0,0,1,.75-.73,2.26,2.26,0,0,1,1.19.72l1.42-1.49a3,3,0,0,0-2.63-1.15c-.51.09-2.89,0-2.91,2.84s3.87,3,3.85,4.24c0,.19-.08.72-.93.73-1,.08-1.78-1.19-1.78-1.19l-1.68,1.31a3.37,3.37,0,0,0,3.39,1.9C35,72.35,35,70.08,35,69.46,35,66.55,31.15,66.33,31.16,65.16Z" transform="translate(-6.68 -6.83)"/><polygon class="cls-3" points="46.53 55.71 58.24 55.71 58.24 60.08 50.86 60.09 50.86 63.46 56.82 63.46 56.82 67.46 50.86 67.46 50.86 70.88 58.24 70.92 58.24 75.46 46.53 75.46 46.53 55.71"/><polygon class="cls-3" points="44.26 60.13 44.26 55.65 30.57 55.65 30.56 60.13 35.17 60.13 35.17 75.46 39.65 75.46 39.65 60.13 44.26 60.13"/><path class="cls-3" d="M135.44,62.54a9.94,9.94,0,1,0,9.94,9.94A9.94,9.94,0,0,0,135.44,62.54Zm0,15.61a5.67,5.67,0,1,1,5.67-5.67A5.67,5.67,0,0,1,135.44,78.14Z" transform="translate(-6.68 -6.83)"/><path class="cls-3" d="M169.75,67.91a5.77,5.77,0,0,0-5.51-5.37h-7.58v8.41h0V82.29h4.26V74l6.16,8.29h5.25l-6.25-8.46S169.75,73,169.75,67.91Zm-8.83-1.19h2.83a1.91,1.91,0,0,1,0,3.83h-2.83Z" transform="translate(-6.68 -6.83)"/><path class="cls-3" d="M99.75,67.91a5.77,5.77,0,0,0-5.51-5.37H86.65v8.41h0V82.29h4.26V74l6.16,8.29h5.25l-6.25-8.46S99.75,73,99.75,67.91Zm-8.83-1.19h2.83a1.91,1.91,0,0,1,0,3.83H90.92Z" transform="translate(-6.68 -6.83)"/><path class="cls-3" d="M81.75,67.91a5.77,5.77,0,0,0-5.51-5.37H68.65v8.41h0V82.29h4.26V74l6.16,8.29h5.25l-6.25-8.46S81.75,73,81.75,67.91Zm-8.83-1.19h2.83a1.91,1.91,0,0,1,0,3.83H72.92Z" transform="translate(-6.68 -6.83)"/><polygon class="cls-3" points="118.26 60.13 118.26 55.65 104.57 55.65 104.56 60.13 109.17 60.13 109.17 75.46 113.65 75.46 113.65 60.13 118.26 60.13"/><rect class="cls-3" x="141.51" y="55.74" width="4.48" height="19.81"/><rect class="cls-3" x="97.51" y="55.74" width="4.48" height="19.81"/><polygon class="cls-3" points="167.6 55.71 179.3 55.71 179.3 60.08 171.93 60.09 171.93 63.46 177.89 63.46 177.89 67.46 171.93 67.46 171.93 70.88 179.3 70.92 179.3 75.46 167.59 75.46 167.6 55.71"/><path class="cls-3" d="M193.55,67.91a1.35,1.35,0,0,1,1.5-1.46,4.51,4.51,0,0,1,2.38,1.44l2.83-3s-1.37-2.32-5.25-2.3c-1,.19-5.77-.08-5.81,5.67s7.74,6,7.71,8.47c0,.38-.17,1.44-1.85,1.46-2,.17-3.56-2.38-3.56-2.38l-3.36,2.63s1.36,3.81,6.78,3.81c6.28,0,6.28-4.54,6.28-5.78C201.2,70.69,193.52,70.25,193.55,67.91Z" transform="translate(-6.68 -6.83)"/></g></svg>