<svg id="Calque_1" data-name="Calque 1" xmlns="http://www.w3.org/2000/svg" viewBox="0 0 184.01 182.71"><defs><style>.cls-1{fill:#fff;}.cls-2{fill:#4aac33;}.cls-3{fill:#868686;}.cls-4{fill:#00a4bf;}.cls-5{fill:#005866;}.cls-6{fill:#255e1a;}.cls-7{fill:#2db6c0;}.cls-8{fill:#009a82;}.cls-9{fill:#00a082;}.cls-10{fill:#009540;}.cls-11{fill:#009740;}.cls-12{fill:#009a9c;}.cls-13{fill:#2eb6bf;}.cls-14{fill:#009c3d;}.cls-15{fill:#00a097;}.cls-16{fill:#009c81;}.cls-17{fill:#00b0c0;}.cls-18{fill:#2a767b;}</style></defs><title>logo_cnt</title><path class="cls-1" d="M127.11,156.23a10.38,10.38,0,0,0,9.77-6.9,41.28,41.28,0,0,0,4.89-1.41,4.17,4.17,0,1,0-2.8-7.85q-1.34.48-2.72.83a10.37,10.37,0,0,0-18-.48,32.76,32.76,0,0,1-3.58-1.37h0a32,32,0,0,1-5.19-3,8.41,8.41,0,0,0-2-7.44,27.83,27.83,0,0,1-5.76-9.52h0a27.91,27.91,0,0,1-1.61-10.62,8.44,8.44,0,1,0-16.85-.71,44.74,44.74,0,0,0,2.57,17h0A44.6,44.6,0,0,0,95,140a8.4,8.4,0,0,0,8.89,2.28,40.18,40.18,0,0,0,7.3,4.31h0a40.2,40.2,0,0,0,5.92,2.15,10.38,10.38,0,0,0,10,7.44" transform="translate(-35.06 -26.97)"/><path class="cls-1" d="M73.72,89.46a4.17,4.17,0,0,0,5.52-2.06A53.31,53.31,0,0,1,91.76,70.15h0A53.49,53.49,0,0,1,130.34,56a4.17,4.17,0,1,0,.35-8.32,62.06,62.06,0,0,0-59,36.22,4.16,4.16,0,0,0,2.06,5.52" transform="translate(-35.06 -26.97)"/><path class="cls-1" d="M105.81,158.52a53,53,0,0,1-12.13-7.66,8.42,8.42,0,0,0-2-7.76,49.09,49.09,0,0,1-10.15-16.78h0a49.21,49.21,0,0,1-2.83-18.73,8.43,8.43,0,1,0-16.86-.71A66,66,0,0,0,65.67,132v0a65.82,65.82,0,0,0,13.61,22.5,8.41,8.41,0,0,0,8.62,2.37,61.29,61.29,0,0,0,14.44,9.21,4.12,4.12,0,0,0,1.72.38,4.17,4.17,0,0,0,1.73-8" transform="translate(-35.06 -26.97)"/><path class="cls-2" d="M137.49,145.85a10.38,10.38,0,1,1-10.38-10.38,10.38,10.38,0,0,1,10.38,10.38" transform="translate(-35.06 -26.97)"/><path class="cls-3" d="M108.59,59.36a4.17,4.17,0,0,1-1.4-8.09,61.84,61.84,0,0,1,23.5-3.55,4.17,4.17,0,1,1-.35,8.32A53.55,53.55,0,0,0,110,59.12a4.17,4.17,0,0,1-1.4.24" transform="translate(-35.06 -26.97)"/><path class="cls-4" d="M86.12,64a61.57,61.57,0,0,1,21.07-12.75A61.58,61.58,0,0,0,86.12,64" transform="translate(-35.06 -26.97)"/><path class="cls-4" d="M88.94,71.25A4.16,4.16,0,0,1,86.12,64a61.58,61.58,0,0,1,21.07-12.75l.06,0-.06,0a4.17,4.17,0,0,0,2.76,7.86,53.37,53.37,0,0,0-18.19,11,4.13,4.13,0,0,1-2.82,1.1" transform="translate(-35.06 -26.97)"/><path class="cls-5" d="M108.59,59.36a4.17,4.17,0,0,1-1.4-8.09l.06,0A4.17,4.17,0,0,1,110,59.12l0,0a4.16,4.16,0,0,1-1.35.23" transform="translate(-35.06 -26.97)"/><path class="cls-4" d="M75.44,89.83a4.17,4.17,0,0,1-3.79-5.89A61.59,61.59,0,0,1,86.12,64a4.17,4.17,0,0,1,5.64,6.13A53.32,53.32,0,0,0,79.23,87.39a4.16,4.16,0,0,1-3.79,2.44" transform="translate(-35.06 -26.97)"/><path class="cls-4" d="M73.61,137.6a8.44,8.44,0,0,1-7.94-5.6,66,66,0,0,1-3.8-25.12,8.43,8.43,0,1,1,16.86.71,49.26,49.26,0,0,0,2.83,18.73,8.44,8.44,0,0,1-7.94,11.27" transform="translate(-35.06 -26.97)"/><path class="cls-2" d="M85.5,157.24a8.41,8.41,0,0,1-6.21-2.73A65.81,65.81,0,0,1,65.67,132a8.43,8.43,0,1,1,15.89-5.67A49.07,49.07,0,0,0,91.71,143.1a8.44,8.44,0,0,1-6.21,14.14" transform="translate(-35.06 -26.97)"/><path class="cls-3" d="M107.74,164.3h0m0,0h0M104,166.47h0a4.12,4.12,0,0,1-1.67-.38,61.31,61.31,0,0,1-14.46-9.2h0a61.31,61.31,0,0,0,14.44,9.21,4.13,4.13,0,0,0,1.68.38m.1,0h0a4.17,4.17,0,0,0,3.6-2.14,4.17,4.17,0,0,1-3.58,2.14" transform="translate(-35.06 -26.97)"/><path class="cls-3" d="M104.12,166.47H104a4.13,4.13,0,0,1-1.68-.38,61.3,61.3,0,0,1-14.44-9.21,8.45,8.45,0,0,0,5.76-6,53.13,53.13,0,0,0,12.13,7.64,4.16,4.16,0,0,1,2.06,5.52l-.13.26h0v0h0a4.17,4.17,0,0,1-3.6,2.14" transform="translate(-35.06 -26.97)"/><path class="cls-6" d="M87.9,156.9a63.06,63.06,0,0,1-5.46-5.27A4.17,4.17,0,1,1,88.57,146a54.23,54.23,0,0,0,5.11,4.89,8.45,8.45,0,0,1-5.76,6h0" transform="translate(-35.06 -26.97)"/><path class="cls-7" d="M128.13,171.67q-1.33,0-2.66-.06a4.17,4.17,0,1,1,.35-8.32,53.54,53.54,0,0,0,20.35-3.08,4.17,4.17,0,0,1,2.8,7.85,61.7,61.7,0,0,1-20.84,3.61" transform="translate(-35.06 -26.97)"/><path class="cls-1" d="M166.73,131.22c-.12.1-.25.18-.37.27.12-.09.26-.17.37-.27" transform="translate(-35.06 -26.97)"/><path class="cls-1" d="M154.47,100.23a28,28,0,0,1,.87,3,28.22,28.22,0,0,0-.87-3Z" transform="translate(-35.06 -26.97)"/><path class="cls-1" d="M149.21,78.79a8.44,8.44,0,0,1,11.92.5,45.28,45.28,0,0,1,4.55,5.87,45.1,45.1,0,0,0-4.55-5.87h0a44.65,44.65,0,0,0-14.42-10.47h0a44.82,44.82,0,0,0-9.14-3,11.45,11.45,0,0,0-16.66-.44,44.72,44.72,0,0,0-7.93,2,8.43,8.43,0,0,0-5.57,7.32,40.66,40.66,0,0,0-6.79,5h0a40.38,40.38,0,0,0-9.48,13,4.17,4.17,0,1,0,7.58,3.46,32,32,0,0,1,7.54-10.37A32.55,32.55,0,0,1,111,82.27a8.42,8.42,0,0,0,7.64,1,28,28,0,0,1,3.16-.92,11.43,11.43,0,0,0,14,.36,28.21,28.21,0,0,1,3.94,1.45,27.8,27.8,0,0,1,9,6.54,8.44,8.44,0,0,1,.51-11.92" transform="translate(-35.06 -26.97)"/><path class="cls-1" d="M157.3,132.23l-.3-.16.3.16" transform="translate(-35.06 -26.97)"/><path class="cls-1" d="M154.11,120.05l0,0Z" transform="translate(-35.06 -26.97)"/><path class="cls-1" d="M154.47,100.22h0q-.24-.66-.5-1.31.27.64.5,1.3" transform="translate(-35.06 -26.97)"/><path class="cls-1" d="M157.76,132.47h0a8.42,8.42,0,0,0,8-.55,8.43,8.43,0,0,1-8,.55" transform="translate(-35.06 -26.97)"/><path class="cls-1" d="M172.13,101a44.86,44.86,0,0,1,.8,10.57h0a44.76,44.76,0,0,1-3.06,14.51A45,45,0,0,0,172.13,101" transform="translate(-35.06 -26.97)"/><path class="cls-1" d="M153.58,121.3q.28-.61.52-1.22-.25.61-.52,1.22a8.44,8.44,0,0,0,3.18,10.62,8.43,8.43,0,0,1-3.18-10.62" transform="translate(-35.06 -26.97)"/><path class="cls-8" d="M166.73,131.22a8.42,8.42,0,0,0,2.21-2.93c.33-.73.64-1.48.93-2.22-.29.75-.6,1.49-.94,2.22a8.4,8.4,0,0,1-2.21,2.93" transform="translate(-35.06 -26.97)"/><path class="cls-8" d="M156.07,110.85a28,28,0,0,1-1.95,9.16,28,28,0,0,0,1.95-9.15Z" transform="translate(-35.06 -26.97)"/><path class="cls-8" d="M166.35,131.49c-.19.15-.38.3-.59.43.21-.13.4-.29.59-.43" transform="translate(-35.06 -26.97)"/><path class="cls-8" d="M157,132.08l-.24-.15Z" transform="translate(-35.06 -26.97)"/><path class="cls-8" d="M154.1,120.08v0Z" transform="translate(-35.06 -26.97)"/><path class="cls-8" d="M157.76,132.47h0c-.16-.07-.31-.16-.46-.24l.46.24" transform="translate(-35.06 -26.97)"/><path class="cls-9" d="M172.93,111.55h0a8.44,8.44,0,0,1-8.42,8.08h-.36a8.44,8.44,0,0,1-8.07-8.77,28,28,0,0,1-1.95,9.15l0,0v0q-.25.62-.52,1.22a8.43,8.43,0,0,0,3.18,10.62l.24.15.3.16.46.24a8.43,8.43,0,0,0,8-.55c.21-.13.39-.29.59-.43s.26-.17.37-.27a8.39,8.39,0,0,0,2.21-2.93c.33-.73.64-1.48.94-2.22a44.73,44.73,0,0,0,3.06-14.51Z" transform="translate(-35.06 -26.97)"/><path class="cls-8" d="M172.13,101a44.86,44.86,0,0,0-1.77-6.42v0a44.93,44.93,0,0,1,1.76,6.41" transform="translate(-35.06 -26.97)"/><path class="cls-8" d="M156.08,110.84a27.93,27.93,0,0,0-.73-7.63,28,28,0,0,1,.73,7.65h0Z" transform="translate(-35.06 -26.97)"/><polygon class="cls-8" points="121.02 83.88 121.02 83.87 121.02 83.88 121.02 83.88 121.02 83.89 121.02 83.88"/><path class="cls-10" d="M168.13,103.59a8.4,8.4,0,0,1-9.34,1.41,8.41,8.41,0,0,0-2.71,5.84h0a8.44,8.44,0,0,0,8.07,8.77h.36a8.44,8.44,0,0,0,8.42-8.08h0a8.43,8.43,0,0,0-4.8-8" transform="translate(-35.06 -26.97)"/><path class="cls-8" d="M148.7,90.7h0A27.87,27.87,0,0,1,154,98.91a27.84,27.84,0,0,0-5.26-8.21Z" transform="translate(-35.06 -26.97)"/><path class="cls-8" d="M170.36,94.55h0a44.57,44.57,0,0,0-4.67-9.39,44.47,44.47,0,0,1,4.65,9.33Z" transform="translate(-35.06 -26.97)"/><circle class="cls-8" cx="154.47" cy="100.22" transform="translate(-61.12 37) rotate(-21.62)"/><polygon class="cls-8" points="135.27 67.52 135.29 67.58 135.3 67.58 135.31 67.61 135.3 67.59 135.3 67.58 135.27 67.52"/><path class="cls-9" d="M172.13,101a44.93,44.93,0,0,0-1.76-6.41v0h0l0-.05a44.44,44.44,0,0,0-4.65-9.33,45.22,45.22,0,0,0-4.55-5.87A8.44,8.44,0,0,0,148.7,90.7h0A27.84,27.84,0,0,1,154,98.92q.27.65.51,1.31h0a28.35,28.35,0,0,1,1.6,10.61,8.41,8.41,0,0,1,2.71-5.84,8.43,8.43,0,0,0,9.34-1.41,8.43,8.43,0,0,1,4.8,8,44.86,44.86,0,0,0-.8-10.57" transform="translate(-35.06 -26.97)"/><path class="cls-2" d="M154.92,93.44a8.41,8.41,0,0,1-6.21-2.73,27.84,27.84,0,0,0-9-6.54,8.44,8.44,0,0,1,7-15.35,44.65,44.65,0,0,1,14.42,10.48,8.44,8.44,0,0,1-6.21,14.14" transform="translate(-35.06 -26.97)"/><path class="cls-4" d="M107.39,74.71A8.44,8.44,0,0,1,113,67.39a44.7,44.7,0,0,1,7.94-2h0a44.79,44.79,0,0,0-7.93,2,8.43,8.43,0,0,0-5.57,7.31h0m4.42,8.06a8.62,8.62,0,0,1-.81-.5h0a8.42,8.42,0,0,0,.81.5" transform="translate(-35.06 -26.97)"/><path class="cls-4" d="M115.8,83.77a8.44,8.44,0,0,1-4-1,8.3,8.3,0,0,1-.81-.5h0a32,32,0,0,1,6.21-3,4.17,4.17,0,0,0-2.8-7.85,40.4,40.4,0,0,0-7,3.29A8.43,8.43,0,0,1,113,67.39a44.72,44.72,0,0,1,7.93-2h0a44.68,44.68,0,0,1,6.82-.57h.61q.82,0,1.64,0a8.44,8.44,0,0,1,7.54,5.45,8.44,8.44,0,0,0-2.2,9.19,8.42,8.42,0,0,1-5.7,2.22h-.35l-1.22,0a27.85,27.85,0,0,0-9.4,1.63,8.41,8.41,0,0,1-2.84.49" transform="translate(-35.06 -26.97)"/><path class="cls-11" d="M135.31,79.47a8.44,8.44,0,0,1,2.19-9.19,8.44,8.44,0,0,1-2.19,9.19" transform="translate(-35.06 -26.97)"/><path class="cls-4" d="M103.41,87a4.17,4.17,0,0,1-2.82-7.23,40.41,40.41,0,0,1,13.8-8.35,4.17,4.17,0,0,1,2.8,7.85,32.09,32.09,0,0,0-11,6.64,4.15,4.15,0,0,1-2.82,1.1" transform="translate(-35.06 -26.97)"/><path class="cls-4" d="M91.52,91.95a40.38,40.38,0,0,1,9-12.14l0,0a40.4,40.4,0,0,0-9,12.12m-.36,4.42A4.16,4.16,0,0,1,91,93.09a4.16,4.16,0,0,0,.16,3.27m3.74,2.34h0a4.17,4.17,0,0,0,3.79-2.44,32,32,0,0,1,7.54-10.37l0,0,0,0A32.07,32.07,0,0,0,98.7,96.27a4.17,4.17,0,0,1-3.79,2.44" transform="translate(-35.06 -26.97)"/><path class="cls-4" d="M94.9,98.71A4.17,4.17,0,0,1,91,93.09l.12-.28.41-.86a40.4,40.4,0,0,1,9-12.12,4.17,4.17,0,0,0,5.71,6.07l.07-.07,0,0,0,0A32,32,0,0,0,98.7,96.27a4.17,4.17,0,0,1-3.79,2.44" transform="translate(-35.06 -26.97)"/><path class="cls-12" d="M103.41,87a4.17,4.17,0,0,1-2.9-7.16l0,0,.05,0a4.17,4.17,0,0,1,5.71,6.07l-.07.06a4.15,4.15,0,0,1-2.82,1.1" transform="translate(-35.06 -26.97)"/><path class="cls-4" d="M93.75,130.39a8.44,8.44,0,0,1-7.94-5.6,44.74,44.74,0,0,1-2.57-17,8.44,8.44,0,0,1,16.86.71,27.92,27.92,0,0,0,1.61,10.63,8.44,8.44,0,0,1-7.94,11.27" transform="translate(-35.06 -26.97)"/><path class="cls-4" d="M101.25,142.77A8.41,8.41,0,0,1,95,140a44.6,44.6,0,0,1-9.22-15.26,8.44,8.44,0,1,1,15.89-5.67,27.86,27.86,0,0,0,5.76,9.52,8.43,8.43,0,0,1-6.21,14.14" transform="translate(-35.06 -26.97)"/><path class="cls-7" d="M113,147a4.13,4.13,0,0,1-1.72-.38,40.38,40.38,0,0,1-13.05-9.48,4.17,4.17,0,1,1,6.13-5.64,32.07,32.07,0,0,0,10.37,7.54,4.17,4.17,0,0,1-1.73,8" transform="translate(-35.06 -26.97)"/><path class="cls-7" d="M126.55,150.26h-.18a40.45,40.45,0,0,1-15.15-3.61,4.17,4.17,0,0,1,3.45-7.58,32.19,32.19,0,0,0,12,2.88,4.17,4.17,0,0,1-.17,8.33" transform="translate(-35.06 -26.97)"/><path class="cls-13" d="M144.29,142.6a4.16,4.16,0,0,0-5.32-2.52l-.19.07.19-.07a4.16,4.16,0,0,1,5.32,2.52m-1.1,4.47a4.18,4.18,0,0,0,1.35-3,4.18,4.18,0,0,1-1.35,3m-1.78,1h0m-4.51,1.28h0a40.87,40.87,0,0,0,4.49-1.27,40.51,40.51,0,0,1-4.49,1.27" transform="translate(-35.06 -26.97)"/><path class="cls-13" d="M136.89,149.33a10.41,10.41,0,0,0-.65-8.41q1.28-.33,2.53-.77l.19-.07a4.16,4.16,0,0,1,5.33,2.52,4.2,4.2,0,0,1,.24,1.34v.12a4.16,4.16,0,0,1-2.77,3.86l-.36.13h0a41.07,41.07,0,0,1-4.49,1.27" transform="translate(-35.06 -26.97)"/><path class="cls-14" d="M128.11,150.29q-.86,0-1.72,0h.15a4.17,4.17,0,0,0,.25-8.32l1.29,0a32.26,32.26,0,0,0,8.16-1,10.41,10.41,0,0,1,.65,8.41h0a40.44,40.44,0,0,1-8.78,1" transform="translate(-35.06 -26.97)"/><path class="cls-15" d="M126.55,150.26h-.18a4.16,4.16,0,0,1-4-4.12v-.07s0-.1,0-.14a4.17,4.17,0,0,1,4.17-4h.24a4.17,4.17,0,0,1-.25,8.32" transform="translate(-35.06 -26.97)"/><path class="cls-2" d="M140.5,73.45A11.47,11.47,0,1,1,129,62,11.47,11.47,0,0,1,140.5,73.45" transform="translate(-35.06 -26.97)"/><path class="cls-1" d="M185.51,120.53a8.41,8.41,0,0,1-5.86-2.72,8.41,8.41,0,0,0,5.85,2.72h.36a8.41,8.41,0,0,0,1.64-.16,8.41,8.41,0,0,1-1.64.16h-.36" transform="translate(-35.06 -26.97)"/><path class="cls-1" d="M194.26,106.08q.17,3.17,0,6.38a8.38,8.38,0,0,1-1,3.54,8.39,8.39,0,0,0,1-3.54q.14-3.2,0-6.38" transform="translate(-35.06 -26.97)"/><path class="cls-1" d="M164.45,76.24A49.1,49.1,0,0,0,148.59,64.7a8.4,8.4,0,0,1-2.71-2,8.42,8.42,0,0,0,2.71,2,49.08,49.08,0,0,1,15.87,11.53,49.73,49.73,0,0,1,5.94,7.9,49.68,49.68,0,0,0-5.93-7.9Z" transform="translate(-35.06 -26.97)"/><path class="cls-1" d="M152.32,48.6a8.43,8.43,0,0,0-7.69,4.52,8.44,8.44,0,0,1,7.69-4.52" transform="translate(-35.06 -26.97)"/><path class="cls-16" d="M170.39,84.14A49,49,0,0,1,174.61,93v0a49,49,0,0,0-4.21-8.86" transform="translate(-35.06 -26.97)"/><path class="cls-16" d="M176.87,64.82a65.83,65.83,0,0,1,13.6,22.46l0,.06a65.88,65.88,0,0,0-13.62-22.52l0,0,0,0Z" transform="translate(-35.06 -26.97)"/><path class="cls-9" d="M179.72,82.24a8.43,8.43,0,0,1,10.76,5,65.8,65.8,0,0,0-13.6-22.46,8.43,8.43,0,0,1-12.42,11.42,49.63,49.63,0,0,1,5.94,7.9A48.94,48.94,0,0,1,174.6,93a8.44,8.44,0,0,1,5.11-10.76" transform="translate(-35.06 -26.97)"/><path class="cls-16" d="M176.84,64.79h0a65.85,65.85,0,0,0-21.26-15.44,8.42,8.42,0,0,0-3.26-.76,8.42,8.42,0,0,1,3.26.76,65.85,65.85,0,0,1,21.26,15.43" transform="translate(-35.06 -26.97)"/><path class="cls-16" d="M144.41,53.54c.07-.14.14-.28.22-.42-.07.14-.15.27-.22.42a8.43,8.43,0,0,0,1.47,9.21,8.43,8.43,0,0,1-1.47-9.21" transform="translate(-35.06 -26.97)"/><path class="cls-9" d="M164.45,76.24h0a8.43,8.43,0,0,1,12.39-11.45,65.85,65.85,0,0,0-21.26-15.43,8.41,8.41,0,0,0-11,3.76c-.07.14-.15.28-.22.42a8.43,8.43,0,0,0,4.18,11.17,49.1,49.1,0,0,1,15.87,11.53" transform="translate(-35.06 -26.97)"/><polygon class="cls-16" points="141.81 37.85 141.82 37.85 141.81 37.85 141.78 37.82 141.78 37.82 141.81 37.85"/><path class="cls-16" d="M190.5,87.36a66,66,0,0,1,3.76,18.72,66,66,0,0,0-3.76-18.74h0Z" transform="translate(-35.06 -26.97)"/><path class="cls-16" d="M174.61,93h0a49.2,49.2,0,0,1,2.83,18.73,8.41,8.41,0,0,0,2.22,6.06,8.41,8.41,0,0,1-2.22-6.06A49.25,49.25,0,0,0,174.61,93" transform="translate(-35.06 -26.97)"/><path class="cls-16" d="M187.52,120.38a8.44,8.44,0,0,0,5.82-4.37,8.45,8.45,0,0,1-5.82,4.38" transform="translate(-35.06 -26.97)"/><path class="cls-9" d="M194.26,106.08a66,66,0,0,0-3.76-18.72A8.43,8.43,0,0,1,174.61,93a49.24,49.24,0,0,1,2.83,18.72,8.44,8.44,0,0,0,8.07,8.78h.36a8.45,8.45,0,0,0,8.42-8.08q.13-3.2,0-6.38" transform="translate(-35.06 -26.97)"/><polygon class="cls-16" points="139.55 66.06 139.55 66.05 139.55 66.05 139.54 66.03 139.55 66.05 139.55 66.05 139.55 66.06"/><polygon class="cls-16" points="155.44 60.37 155.44 60.37 155.44 60.39 155.44 60.38 155.44 60.37 155.41 60.32 155.44 60.37"/><path class="cls-17" d="M92.73,206.59a3.13,3.13,0,0,0,3.16,3.09,3.12,3.12,0,0,0,0-6.25,3.15,3.15,0,0,0-3.16,3.16" transform="translate(-35.06 -26.97)"/><path class="cls-18" d="M95.87,182.73a3.14,3.14,0,1,0,0,6.27A3.09,3.09,0,0,0,99,185.89a3.12,3.12,0,0,0-3.11-3.16" transform="translate(-35.06 -26.97)"/><path class="cls-18" d="M70.94,185.88a4,4,0,0,0,4,4,3.9,3.9,0,0,0,4-4,4,4,0,0,0-4-4,4,4,0,0,0-4,4" transform="translate(-35.06 -26.97)"/><path class="cls-17" d="M114.7,203.47a3.09,3.09,0,1,0,0,6.18,3.09,3.09,0,1,0,0-6.18" transform="translate(-35.06 -26.97)"/><path class="cls-18" d="M114.7,182.12a3.75,3.75,0,1,0,3.77,3.77,3.79,3.79,0,0,0-3.77-3.77" transform="translate(-35.06 -26.97)"/><path class="cls-3" d="M38.89,102.48a3.49,3.49,0,0,0,3.44,3.44,3.53,3.53,0,0,0,3.53-3.46,3.48,3.48,0,1,0-7,0" transform="translate(-35.06 -26.97)"/><path class="cls-17" d="M206.46,57.64a6.3,6.3,0,1,0,6.27-6.29,6.3,6.3,0,0,0-6.27,6.29" transform="translate(-35.06 -26.97)"/><path class="cls-17" d="M198.11,78.54a3.78,3.78,0,0,0,7.55,0,3.78,3.78,0,0,0-7.55,0" transform="translate(-35.06 -26.97)"/><path class="cls-17" d="M203.24,99.39a3.78,3.78,0,1,0,7.55,0,3.78,3.78,0,0,0-7.55,0" transform="translate(-35.06 -26.97)"/><path class="cls-17" d="M114.7,162.94a3.78,3.78,0,1,0,3.77,3.77,3.8,3.8,0,0,0-3.77-3.77" transform="translate(-35.06 -26.97)"/><path class="cls-17" d="M184.13,34.71A7.77,7.77,0,1,0,191.9,27a7.74,7.74,0,0,0-7.77,7.74" transform="translate(-35.06 -26.97)"/><path class="cls-8" d="M186,57.64a5.91,5.91,0,1,0,11.82,0,5.88,5.88,0,0,0-5.88-5.88A6,6,0,0,0,186,57.64" transform="translate(-35.06 -26.97)"/><path class="cls-17" d="M112.62,94.34a6,6,0,0,0,5.92,5.92,5.93,5.93,0,1,0-5.92-5.92" transform="translate(-35.06 -26.97)"/><path class="cls-17" d="M137.53,44.08a2.57,2.57,0,0,0,2.59,2.57,2.6,2.6,0,1,0-2.59-2.57" transform="translate(-35.06 -26.97)"/><path class="cls-17" d="M59.73,65.37a2.25,2.25,0,1,0,4.5,0A2.22,2.22,0,0,0,62,63.07a2.28,2.28,0,0,0-2.26,2.3" transform="translate(-35.06 -26.97)"/><path class="cls-17" d="M164.71,34.71A6.3,6.3,0,1,0,171,28.43a6.31,6.31,0,0,0-6.27,6.28" transform="translate(-35.06 -26.97)"/><path class="cls-17" d="M191.15,128.94a2.64,2.64,0,0,0,2.67-2.64,2.67,2.67,0,0,0-2.67-2.68,2.7,2.7,0,0,0-2.67,2.72,2.65,2.65,0,0,0,2.67,2.59" transform="translate(-35.06 -26.97)"/><path class="cls-17" d="M151.08,141.67a3.56,3.56,0,1,0-3.57-3.57,3.59,3.59,0,0,0,3.57,3.57" transform="translate(-35.06 -26.97)"/><path class="cls-2" d="M57.4,91.15a3.53,3.53,0,0,0,7.05,0,3.53,3.53,0,1,0-7.05,0" transform="translate(-35.06 -26.97)"/><path class="cls-17" d="M35.06,78.14a7.31,7.31,0,1,0,7.36-7.33,7.34,7.34,0,0,0-7.36,7.33" transform="translate(-35.06 -26.97)"/><path class="cls-17" d="M38.58,121.37A4.42,4.42,0,1,0,43,116.94a4.42,4.42,0,0,0-4.41,4.43" transform="translate(-35.06 -26.97)"/><path class="cls-10" d="M176.84,64.79a8.43,8.43,0,0,0-12.39,11.45h0a8.43,8.43,0,0,0,12.42-11.42h0Z" transform="translate(-35.06 -26.97)"/><path class="cls-10" d="M190.49,87.34l0-.05A8.43,8.43,0,0,0,174.6,93v0h0a8.43,8.43,0,0,0,15.89-5.66v0Z" transform="translate(-35.06 -26.97)"/></svg>