<?xml version="1.0" encoding="utf-8"?>
<!-- Generator: Adobe Illustrator 21.1.0, SVG Export Plug-In . SVG Version: 6.00 Build 0)  -->
<svg version="1.1" id="Calque_1" xmlns="http://www.w3.org/2000/svg" xmlns:xlink="http://www.w3.org/1999/xlink" x="0px" y="0px"
	 viewBox="0 0 553.9 79.1" style="enable-background:new 0 0 553.9 79.1;" xml:space="preserve">
<style type="text/css">
	.st0{fill:#1B181C;}
	.st1{fill:#FFFFFF;}
	.st2{fill:none;}
	.st3{clip-path:url(#SVGID_2_);}
	.st4{fill:#04488C;}
	.st5{fill:#005093;}
	.st6{fill:#E3061C;}
	.st7{fill:#9C9D9F;}
	.st8{fill:none;stroke:#1B181C;stroke-width:0.5;}
	.st9{font-family:'TimesNewRomanPSMT';}
	.st10{font-size:11px;}
	.st11{fill:#164194;}
	.st12{fill:#00B1EB;}
	.st13{enable-background:new    ;}
</style>
<title>logo_cget</title>
<path class="st0" d="M56.9,59.7c-0.1,0.2-0.1,0.3-0.1,0.5c0,0.3,0,0.5,0,1c0,0.2,0,0.6,0,1.1c0,0.4-0.1,0.8-0.3,1.1
	c-0.4,0.5-0.9,0.8-1.5,0.7c-0.4,0-0.8-0.1-1.1-0.3c-0.5-0.3-0.8-0.9-0.7-1.5c0-0.8,0-1.1,0-1.3c0-0.4,0-0.7,0-1.1
	c0-0.3-0.2-0.3-0.5-0.4v-0.2h1.9v0.2c-0.2,0-0.3,0.1-0.4,0.2c-0.1,0.2-0.1,0.4-0.1,0.5c0,0.4,0,0.9,0,1.3c0,1.2,0,1.4,0.2,1.7
	c0.2,0.2,0.5,0.3,0.8,0.3c0.4,0,0.8-0.3,1-0.7c0.1-0.4,0.1-0.9,0.1-1.3v-0.7c0-0.8,0-1-0.1-1.2c-0.1-0.1-0.2-0.2-0.4-0.2v-0.2h1.5
	v0.2C57,59.5,56.9,59.6,56.9,59.7L56.9,59.7z"/>
<path class="st0" d="M61.2,63.9C61.1,64,61,64,60.7,64H60h-1h-1v-0.2c0.3,0,0.5-0.2,0.5-0.5c0,0,0,0,0,0c0-0.2,0-0.4,0-0.8v-2
	c0-0.2,0-0.5-0.1-0.7c-0.1-0.2-0.2-0.3-0.4-0.3v-0.2h3.2c0,0.2,0,0.4,0,0.6s0,0.3,0,0.5h-0.3c0-0.5-0.3-0.7-1.1-0.7h-0.5
	c0,0.3,0,0.4,0,0.8v0.8h0.3c0.7,0,1-0.1,1-0.5h0.3c0,0.1,0,0.3,0,0.7s0,0.6,0,0.7h-0.3c0-0.4-0.2-0.5-0.9-0.5h-0.4
	c0,0.4,0,0.9,0,1.3s0,0.4,0.2,0.4c0.2,0,0.3,0,0.5,0c0.8,0,1-0.2,1.2-0.7l0.3,0C61.4,63.2,61.3,63.6,61.2,63.9z"/>
<path class="st0" d="M67.6,59.7c0-0.6-0.4-0.8-1.3-0.8h-0.6c0,0.6,0,1,0,1.9h0.4c0.8,0,1-0.1,1.1-0.6h0.3c0,0.2,0,0.5,0,0.7
	s0,0.6,0,1h-0.3c-0.1-0.5-0.3-0.6-1.2-0.6h-0.4v1c0,0.2,0,0.4,0,0.6c0,0.5,0,0.9,0.6,0.9V64H64v-0.2c0.3,0,0.6-0.3,0.6-0.6
	c0,0,0,0,0,0c0-0.3,0-0.4,0-1.3v-2.1c0-0.3,0-0.6-0.1-0.8c-0.1-0.2-0.3-0.4-0.5-0.3v-0.2h3.9c0,0.2,0,0.4,0,0.8c0,0.2,0,0.4,0,0.6
	H67.6z"/>
<path class="st0" d="M72.3,64.1c-0.2,0-0.4,0-0.6-0.1c-0.2-0.2-0.4-0.5-0.6-0.8c-0.2-0.4-0.5-0.8-0.8-1.2h-0.3v0.4
	c0,0.2,0,0.4,0,0.6c0,0.2,0,0.5,0.1,0.7c0.1,0.2,0.2,0.3,0.4,0.3V64h-1.9v-0.2c0.1,0,0.3,0,0.3-0.1c0.1-0.1,0.1-0.2,0.1-0.4
	c0-0.3,0-0.7,0-1v-1.2c0-0.4,0-0.8,0-1.3c0-0.2-0.2-0.3-0.4-0.3v-0.2c0.1,0,0.3,0,0.4,0c0.4,0,0.5,0,0.9,0h0.8c0.4,0,0.7,0.1,1,0.2
	c0.3,0.2,0.4,0.6,0.4,0.9c0,0.6-0.4,1.1-1,1.3c0.3,0.3,0.5,0.7,0.7,1.1c0.2,0.3,0.4,0.6,0.6,0.8c0.1,0.1,0.2,0.2,0.3,0.2v0.2
	C72.7,64.1,72.5,64.1,72.3,64.1L72.3,64.1z M70.5,59.7c-0.1,0-0.3,0-0.4,0.1c0,0.4,0,1.2,0,1.7h0.3c0.5,0.1,0.9-0.3,1-0.8
	c0,0,0-0.1,0-0.1c0-0.5-0.3-0.9-0.8-0.9C70.6,59.7,70.6,59.7,70.5,59.7L70.5,59.7z"/>
<path class="st0" d="M77.3,64h-1.7v-0.2c0.2,0,0.4-0.1,0.4-0.3c0-0.1,0-0.3-0.1-0.4c-0.1-0.3-0.1-0.4-0.2-0.7h-1.3l-0.1,0.4
	c-0.1,0.2-0.1,0.4-0.2,0.7c0,0.2,0.1,0.3,0.3,0.3V64H73v-0.2c0.1,0,0.2,0,0.2-0.1c0.2-0.3,0.4-0.6,0.5-0.9l0.7-1.7
	c0.2-0.5,0.4-1.2,0.6-1.8h0.5c0.1,0.2,0.2,0.6,0.3,0.8l1,2.5c0.1,0.3,0.2,0.6,0.4,0.8c0.1,0.1,0.2,0.3,0.4,0.3V64L77.3,64z
	 M75.1,60.6c-0.2,0.5-0.4,1.1-0.5,1.4h1L75.1,60.6L75.1,60.6z"/>
<path class="st0" d="M82.3,59.8c-0.1,0.1-0.1,0.2-0.1,0.6c0,0.6,0,1.6,0,2.1v1.1c0,0.2,0,0.4,0,0.5h-0.5c-0.4-0.6-1.4-1.8-1.4-1.8
	l-1.4-1.8c0,0.2,0,0,0,0.5v0.5c0,0.5,0,1,0,1.6c0,0.2,0,0.4,0.1,0.6c0.1,0.1,0.2,0.2,0.4,0.2V64h-1.5v-0.2c0.5,0,0.5-0.4,0.5-0.8
	s0-0.5,0-1v-1.5c0-0.6,0-0.7-0.1-0.9s-0.2-0.2-0.4-0.2v-0.2h1.3c0.2,0.3,0.4,0.6,0.7,0.9c0.7,0.8,1.3,1.5,1.9,2.3v-1.6
	c0-0.3,0-0.7-0.1-1c0-0.2-0.2-0.4-0.4-0.4v-0.2h1.5v0.2C82.5,59.5,82.4,59.6,82.3,59.8L82.3,59.8z"/>
<path class="st0" d="M87.2,63.8c-0.4,0.2-0.9,0.3-1.4,0.3l-0.1,0.3h0.1c0.2,0,0.4,0.2,0.4,0.4c0,0,0,0,0,0c0,0.4-0.3,0.6-0.8,0.6
	c-0.1,0-0.3,0-0.4-0.1l0.1-0.3c0.1,0,0.2,0,0.3,0.1c0.2,0,0.3-0.1,0.3-0.3s-0.1-0.2-0.2-0.2c-0.1,0-0.1,0-0.2,0.1h-0.2l0.1-0.6
	c-0.5,0-1.1-0.3-1.4-0.7c-0.4-0.5-0.7-1.1-0.7-1.8c-0.1-1.3,0.9-2.4,2.2-2.4c0.1,0,0.3,0,0.4,0c0.5,0,0.9,0.1,1.4,0.2
	c0,0.2,0,0.3,0,0.5s0,0.4,0,0.5H87c-0.1-0.5-0.5-0.8-1.1-0.8c-0.8,0-1.6,0.6-1.6,1.5c0,0.1,0,0.2,0,0.3c0,1.3,0.7,2.2,1.7,2.2
	c0.5,0,1-0.3,1.1-0.8l0.3,0C87.3,63.2,87.2,63.5,87.2,63.8L87.2,63.8z"/>
<path class="st0" d="M92.1,64h-1.7v-0.2c0.2,0,0.3-0.1,0.3-0.3c0-0.1,0-0.3-0.1-0.4c-0.1-0.3-0.1-0.4-0.2-0.7h-1.3l-0.1,0.4
	c-0.1,0.2-0.1,0.4-0.2,0.7c0,0.2,0.1,0.3,0.3,0.3V64h-1.4v-0.2c0.1,0,0.2,0,0.2-0.1c0.2-0.3,0.4-0.6,0.5-0.9l0.7-1.7
	c0.2-0.5,0.4-1.2,0.6-1.8h0.4c0.1,0.2,0.2,0.6,0.3,0.8l1,2.5c0.1,0.3,0.2,0.6,0.4,0.8c0.1,0.1,0.2,0.3,0.4,0.3V64L92.1,64z
	 M89.8,60.6c-0.2,0.5-0.4,1.1-0.5,1.4h1L89.8,60.6L89.8,60.6z"/>
<path class="st0" d="M94.3,64h-1.7v-0.2c0.3,0,0.5-0.2,0.5-0.5c0-0.3,0-0.7,0-1v-1.2c0-0.2,0-0.4,0-0.6c0-0.2,0-0.5-0.1-0.7
	c-0.1-0.2-0.2-0.3-0.4-0.3v-0.2h1.9v0.2c-0.3,0-0.5,0.2-0.5,0.5c0,0,0,0,0,0c0,0.2,0,0.4,0,1v1.2c0,0.4,0,0.8,0.1,1.3
	c0.1,0.2,0.2,0.3,0.4,0.3V64L94.3,64z"/>
<path class="st0" d="M96.5,64.1c-0.4,0-0.8-0.1-1.2-0.2c0-0.3-0.1-0.7-0.1-1h0.3c0.1,0.5,0.6,0.9,1.1,0.9c0.5,0,0.8-0.3,0.8-0.7
	s-0.2-0.5-0.5-0.7l-0.7-0.5c-0.5-0.2-0.8-0.7-0.8-1.3c0-0.8,0.6-1.3,1.5-1.3c0.4,0,0.8,0.1,1.2,0.3c0,0.2,0,0.2,0,0.4s0,0.3,0,0.5
	h-0.3c0-0.5-0.4-0.8-0.9-0.8c-0.4,0-0.7,0.2-0.7,0.6c0,0,0,0,0,0.1c0,0.3,0.2,0.6,0.6,0.8l0.6,0.4c0.6,0.4,0.9,0.7,0.9,1.3
	C98.2,63.6,97.5,64.1,96.5,64.1L96.5,64.1z"/>
<path class="st0" d="M102.2,63.9c-0.1,0.1-0.1,0.1-0.5,0.1h-0.7h-1h-1v-0.2c0.3,0,0.4-0.2,0.5-0.5s0-0.4,0-0.8v-2
	c0-0.2,0-0.5-0.1-0.7c-0.1-0.2-0.2-0.3-0.4-0.3v-0.2h3.2c0,0.2,0,0.4,0,0.6s0,0.3,0,0.5h-0.3c-0.1-0.5-0.3-0.7-1.1-0.7h-0.5
	c0,0.3,0,0.4,0,0.8v0.8h0.3c0.7,0,1-0.1,1-0.5h0.3c0,0.1,0,0.3,0,0.7s0,0.6,0,0.7h-0.3c0-0.4-0.2-0.5-0.9-0.5h-0.4
	c0,0.4,0,0.9,0,1.3s0,0.4,0.2,0.4c0.2,0,0.3,0,0.5,0c0.8,0,1-0.2,1.2-0.7l0.3,0c-0.1,0.3-0.2,0.7-0.3,1L102.2,63.9z"/>
<path class="st0" d="M54.5,52.2c-0.1,0-0.2-0.1-0.2-0.4c-0.4,0.2-0.8,0.4-1.2,0.4c-0.4,0-0.7-0.2-0.7-0.6c0-0.5,0.2-0.9,0.5-1.3
	c0.3-0.6,0.9-0.9,1.5-0.9c0.3,0,0.6,0,0.9,0.1v0.1c-0.2,0.6-0.3,1.3-0.4,1.9c0,0.2,0,0.3,0.1,0.3c0.1,0,0.3-0.1,0.4-0.1V52
	C55.1,52.1,54.8,52.2,54.5,52.2L54.5,52.2z M54.2,49.7c-0.3,0-0.5,0.2-0.8,0.6c-0.3,0.4-0.4,0.9-0.4,1.3c0,0.2,0.1,0.3,0.3,0.3
	c0.3,0,0.6-0.2,0.9-0.4c0.1-0.1,0.2-0.3,0.2-0.5c0.1-0.4,0.2-0.8,0.3-1.3C54.4,49.7,54.3,49.7,54.2,49.7L54.2,49.7z"/>
<path class="st0" d="M57.5,48.2c-0.2,0.9-0.5,1.9-0.7,2.9c-0.1,0.2-0.1,0.4-0.1,0.6c0,0.1,0,0.1,0.1,0.2c0,0,0,0,0,0
	c0.1,0,0.3,0,0.4-0.1V52c-0.3,0.1-0.7,0.2-1,0.3c-0.1,0-0.2-0.1-0.2-0.2c0,0,0,0,0,0c0-0.2,0.1-0.4,0.1-0.6c0.2-0.9,0.4-1.9,0.6-2.7
	C56.9,48.2,57,48,57,48s0-0.1-0.1-0.1c-0.1,0-0.2,0-0.3,0.1v-0.2c0.3-0.1,0.6-0.2,0.9-0.2c0.1,0,0.1,0,0.1,0.1
	C57.6,47.8,57.5,48,57.5,48.2L57.5,48.2z"/>
<path class="st0" d="M59.2,48.7c-0.2,0-0.3-0.1-0.3-0.3c0,0,0,0,0,0c0-0.2,0.2-0.4,0.4-0.4c0,0,0,0,0,0c0.2,0,0.3,0.1,0.3,0.3
	c0,0,0,0,0,0C59.6,48.5,59.5,48.7,59.2,48.7C59.2,48.7,59.2,48.7,59.2,48.7L59.2,48.7z M58.5,52.2c-0.1,0-0.2-0.1-0.2-0.2
	c0,0,0,0,0,0c0-0.1,0-0.2,0-0.3l0.3-1.1c0.1-0.2,0.1-0.5,0.1-0.7c0-0.1,0-0.1-0.1-0.1c-0.1,0-0.2,0-0.3,0.1l0,0v-0.2
	c0.3-0.1,0.6-0.2,0.9-0.2c0.1,0,0.1,0,0.1,0.1c0,0.3-0.1,0.5-0.2,0.8l-0.1,0.4c-0.1,0.3-0.2,0.7-0.2,1c0,0.1,0.1,0.2,0.1,0.2
	c0,0,0,0,0,0c0.1,0,0.3,0,0.4-0.1v0.2C59.2,52.1,58.9,52.1,58.5,52.2L58.5,52.2z"/>
<path class="st0" d="M61.9,49.8h-0.6L61,51.2c0,0.2-0.1,0.3-0.1,0.5c0,0.1,0,0.1,0.1,0.1c0,0,0,0,0,0c0.1,0,0.2,0,0.3-0.1h0.1V52
	c-0.3,0.1-0.6,0.2-0.9,0.2c-0.1,0-0.2-0.1-0.2-0.2c0-0.2,0-0.3,0.1-0.5c0.1-0.2,0.1-0.4,0.2-0.7l0.2-1h-0.4v-0.2
	c0.5-0.1,0.6-0.5,0.8-0.8l0.3-0.1l-0.2,0.8h0.6L61.9,49.8L61.9,49.8z"/>
<path class="st0" d="M64,49l-0.2-0.2l0.8-0.9l0.6,0.2L64,49L64,49z M63.2,51H63c0,0.1,0,0.2,0,0.3c0,0.3,0.1,0.5,0.4,0.5
	c0.3,0,0.6-0.2,0.9-0.4l0.1,0.2c-0.4,0.3-0.8,0.4-1.2,0.5c-0.4,0-0.7-0.3-0.7-0.7c-0.1-1,0.6-1.9,1.6-2.1c0.4,0,0.7,0.2,0.7,0.5
	C64.8,50.6,64.1,51.1,63.2,51L63.2,51z M63.9,49.7c-0.3,0-0.7,0.5-0.8,1.1h0.1c0.6,0,1.1-0.3,1.1-0.8C64.3,49.8,64.1,49.7,63.9,49.7
	L63.9,49.7z"/>
<path class="st0" d="M76.9,48.6h-0.2c0-0.1,0-0.1,0-0.2c0-0.1,0-0.2-0.1-0.3c-0.1-0.2-0.4-0.2-0.9-0.2h-0.5
	c-0.1,0.6-0.2,1.1-0.3,1.7h0.4c0.8,0,0.9-0.1,1-0.5h0.2c-0.1,0.4-0.2,0.9-0.3,1.3h-0.2c0,0,0-0.1,0-0.1c0-0.1,0-0.2-0.1-0.3
	c-0.1-0.1-0.3-0.1-0.7-0.1h-0.5l-0.1,0.5c-0.1,0.4-0.2,0.8-0.2,1.2c0,0.2,0.1,0.4,0.3,0.4c0,0,0,0,0.1,0v0.1h-1.7V52
	c0.2,0,0.3-0.1,0.4-0.2c0.1-0.2,0.2-0.5,0.3-0.7c0.1-0.4,0.1-0.6,0.3-1.3l0.1-0.5c0.1-0.3,0.1-0.7,0.2-1c0-0.3-0.1-0.4-0.4-0.5v-0.2
	h3c-0.1,0.3-0.1,0.7-0.2,1L76.9,48.6z"/>
<path class="st0" d="M79.2,50.3h-0.2c0-0.1,0-0.2,0-0.3c0-0.1-0.1-0.2-0.3-0.2c-0.1,0-0.2,0.1-0.3,0.2c-0.3,0.5-0.5,1-0.5,1.5
	l-0.1,0.7l-0.6,0.1c0.1-0.3,0.1-0.5,0.2-0.7l0.2-0.6c0.1-0.3,0.1-0.6,0.2-0.8c0-0.2,0-0.3-0.1-0.3h-0.2l-0.2,0v-0.2
	c0.3-0.1,0.6-0.2,0.9-0.3c0.1,0,0.1,0,0.1,0.1c0,0,0,0,0,0c0,0.1,0,0.2,0,0.3c0.2-0.2,0.5-0.3,0.8-0.4c0.2,0,0.3,0.1,0.4,0.2
	C79.3,49.8,79.2,50,79.2,50.3L79.2,50.3z"/>
<path class="st0" d="M81.9,52.2c-0.1,0-0.2-0.1-0.2-0.4c-0.4,0.2-0.8,0.4-1.2,0.4c-0.4,0-0.6-0.2-0.6-0.6c0-0.5,0.2-0.9,0.4-1.3
	c0.3-0.6,0.9-0.9,1.5-0.9c0.3,0,0.6,0,0.9,0.1v0.1c-0.2,0.6-0.4,1.3-0.5,1.9c0,0.2,0,0.3,0.1,0.3c0.1,0,0.3-0.1,0.4-0.1V52
	C82.4,52.1,82.1,52.2,81.9,52.2L81.9,52.2z M81.6,49.7c-0.3,0-0.6,0.3-0.8,0.6c-0.3,0.4-0.4,0.9-0.4,1.3c0,0.2,0.1,0.3,0.3,0.3
	c0.3,0,0.6-0.2,0.9-0.4c0.1-0.1,0.2-0.3,0.2-0.5c0.1-0.4,0.2-0.8,0.3-1.3C81.9,49.7,81.7,49.7,81.6,49.7L81.6,49.7z"/>
<path class="st0" d="M85.2,49.8h-0.6l-0.3,1.4c0,0.2-0.1,0.3-0.1,0.5c0,0.1,0,0.1,0.1,0.1c0,0,0,0,0,0c0.1,0,0.2,0,0.3-0.1h0.1V52
	c-0.3,0.1-0.6,0.2-0.9,0.2c-0.1,0-0.2-0.1-0.2-0.2c0-0.2,0-0.3,0.1-0.5c0.1-0.2,0.1-0.4,0.2-0.7l0.2-1h-0.4v-0.2
	c0.5-0.1,0.6-0.5,0.8-0.8l0.3-0.1l-0.2,0.8h0.6L85.2,49.8L85.2,49.8z"/>
<path class="st0" d="M86.5,51h-0.2c0,0.1,0,0.2,0,0.3c0,0.3,0.1,0.5,0.4,0.5c0.3,0,0.6-0.2,0.9-0.4l0.1,0.2
	c-0.4,0.3-0.8,0.4-1.2,0.5c-0.4,0-0.7-0.3-0.7-0.7c-0.1-1,0.6-1.9,1.6-2.1c0.4,0,0.7,0.2,0.7,0.5C88,50.6,87.4,51,86.5,51L86.5,51z
	 M87.2,49.7c-0.3,0-0.7,0.5-0.8,1.1h0.1c0.6,0,1.1-0.3,1.1-0.8C87.5,49.8,87.4,49.7,87.2,49.7z"/>
<path class="st0" d="M90.8,50.3h-0.2c0-0.1,0-0.2,0-0.3c0-0.1-0.1-0.2-0.3-0.2c-0.1,0-0.2,0.1-0.3,0.2c-0.3,0.5-0.5,1-0.5,1.5
	l-0.1,0.7l-0.6,0.1c0.1-0.3,0.1-0.5,0.2-0.7l0.2-0.6c0.1-0.3,0.1-0.6,0.2-0.8c0-0.2,0-0.3-0.1-0.3h-0.2l-0.2,0v-0.2
	c0.3-0.1,0.6-0.2,0.9-0.3c0.1,0,0.1,0,0.1,0.1c0,0.1,0,0.2,0,0.3c0.2-0.2,0.5-0.3,0.8-0.4c0.2,0,0.3,0.1,0.4,0.2
	C90.9,49.8,90.8,50,90.8,50.3L90.8,50.3z"/>
<path class="st0" d="M93.5,52.2c-0.1,0-0.2-0.1-0.2-0.2c0,0,0,0,0,0c0-0.2,0.1-0.4,0.1-0.6l0.1-0.3c0.1-0.4,0.2-0.8,0.3-1.2
	c0-0.1,0-0.2-0.2-0.2c-0.2,0-0.4,0.1-0.5,0.2c-0.2,0.1-0.3,0.2-0.5,0.4c-0.1,0.2-0.2,0.4-0.2,0.6c-0.1,0.5-0.2,0.8-0.2,1.2l-0.6,0.1
	c0.1-0.5,0.2-0.9,0.3-1.4C92,50.5,92,50.3,92,50c0-0.2,0-0.2-0.2-0.2c-0.1,0-0.2,0-0.3,0.1v-0.2c0.3-0.1,0.6-0.2,0.8-0.2
	c0.2,0,0.2,0.1,0.2,0.4v0c0.4-0.3,0.9-0.4,1.4-0.5c0.2,0,0.3,0,0.3,0.2c0,0.3-0.1,0.6-0.2,0.9c-0.1,0.3-0.2,0.7-0.2,0.8
	c0,0.1-0.1,0.3-0.1,0.4c0,0.1,0,0.1,0.1,0.2c0,0,0,0,0,0c0.1,0,0.2,0,0.3-0.1V52C94.1,52.1,93.8,52.2,93.5,52.2L93.5,52.2z"/>
<path class="st0" d="M96.3,48.7c-0.2,0-0.3-0.1-0.3-0.3c0,0,0,0,0-0.1c0-0.2,0.2-0.4,0.4-0.4c0,0,0,0,0,0c0.2,0,0.3,0.1,0.3,0.3
	c0,0,0,0,0,0C96.8,48.5,96.6,48.7,96.3,48.7C96.4,48.7,96.4,48.7,96.3,48.7L96.3,48.7z M95.6,52.2c-0.1,0-0.2-0.1-0.2-0.2
	c0,0,0,0,0,0c0-0.1,0-0.2,0.1-0.3c0.1-0.4,0.2-0.8,0.3-1.1c0.1-0.2,0.1-0.5,0.1-0.7c0-0.1,0-0.1-0.1-0.1c-0.1,0-0.2,0-0.3,0.1l0,0
	v-0.2c0.3-0.1,0.6-0.2,0.9-0.2c0.1,0,0.1,0,0.1,0.1c0,0.3-0.1,0.5-0.2,0.8l-0.1,0.4c-0.1,0.3-0.2,0.7-0.2,1c0,0.1,0.1,0.2,0.1,0.2
	c0,0,0,0,0,0c0.1,0,0.3,0,0.4-0.1v0.2C96.3,52.1,96,52.1,95.6,52.2L95.6,52.2z"/>
<path class="st0" d="M99,49.8h-0.6l-0.3,1.4c0,0.2-0.1,0.3-0.1,0.5c0,0.1,0,0.1,0.1,0.1c0,0,0,0,0,0c0.1,0,0.2,0,0.3-0.1h0.1V52
	c-0.3,0.1-0.6,0.2-0.9,0.2c-0.1,0-0.2-0.1-0.2-0.2c0-0.2,0-0.3,0.1-0.5c0.1-0.2,0.1-0.4,0.2-0.7l0.2-1h-0.4v-0.2
	c0.5-0.1,0.6-0.5,0.8-0.8l0.3-0.1l-0.2,0.8H99V49.8L99,49.8z"/>
<path class="st0" d="M101.1,49l-0.2-0.2l0.8-0.9l0.6,0.2L101.1,49L101.1,49z M100.4,51h-0.2c0,0.1,0,0.2,0,0.3
	c0,0.3,0.1,0.5,0.4,0.5c0.3,0,0.6-0.2,0.9-0.4l0.1,0.2c-0.4,0.3-0.8,0.4-1.2,0.5c-0.4,0-0.7-0.3-0.7-0.7c-0.1-1,0.6-1.9,1.6-2.1
	c0.4,0,0.7,0.2,0.7,0.5C101.9,50.6,101.3,51.1,100.4,51L100.4,51z M101.1,49.7c-0.3,0-0.7,0.5-0.8,1.1h0.1c0.6,0,1.1-0.3,1.1-0.8
	C101.4,49.8,101.3,49.7,101.1,49.7L101.1,49.7z"/>
<path class="st0" d="M69.2,50.9c0.5,0,0.8-0.4,0.8-0.8c0-0.5-0.4-0.8-0.8-0.8c-0.5,0-0.8,0.4-0.8,0.8C68.3,50.5,68.7,50.9,69.2,50.9
	L69.2,50.9z"/>
<rect x="16.5" y="15.1" class="st1" width="85" height="28.5"/>
<path class="st0" d="M20.9,64.1c-0.2,0-0.5,0-0.7-0.2c-0.3-0.3-0.6-0.6-0.8-1c-0.3-0.5-0.6-1-0.9-1.5h-0.4v0.5c0,0.2,0,0.5,0,0.7
	c0,0.3,0,0.6,0.1,0.8c0.1,0.2,0.3,0.4,0.5,0.4V64h-2.2v-0.2c0.2,0,0.3-0.1,0.4-0.2c0.1-0.1,0.2-0.3,0.2-0.5c0-0.4,0-0.8,0-1.3v-1.4
	c0-0.5,0-1,0-1.6c-0.1-0.2-0.2-0.3-0.5-0.3v-0.2c0.2,0,0.3,0,0.5,0c0.4,0,0.6,0,1.1,0h0.9c0.4,0,0.8,0.1,1.2,0.3
	c0.3,0.3,0.5,0.7,0.5,1.1c0,0.7-0.5,1.4-1.2,1.5c0.3,0.4,0.6,0.8,0.9,1.3c0.2,0.4,0.5,0.7,0.8,1c0.1,0.1,0.2,0.2,0.4,0.2V64
	C21.4,64.1,21.1,64.1,20.9,64.1z M18.7,58.8c-0.2,0-0.3,0-0.5,0.1c0,0.5,0,1.4,0,2.1c0.1,0,0.2,0,0.4,0c0.6,0.1,1.1-0.4,1.2-1
	c0,0,0-0.1,0-0.1c0.1-0.5-0.3-1-0.9-1.1C18.8,58.8,18.8,58.8,18.7,58.8L18.7,58.8z"/>
<path class="st0" d="M23.7,58.9l-0.3-0.2l0.7-1l0.8,0.2L23.7,58.9z M25.3,63.9C25.2,64,25.1,64,24.7,64H24h-1h-1v-0.2
	c0.3,0,0.5-0.2,0.5-0.5c0,0,0,0,0,0c0-0.2,0-0.4,0-0.8v-2c0-0.2,0-0.5-0.1-0.7c-0.1-0.2-0.2-0.3-0.4-0.3v-0.2h3.3c0,0.2,0,0.4,0,0.6
	s0,0.3,0,0.5H25c0-0.5-0.3-0.7-1.1-0.7h-0.5c0,0.3,0,0.4,0,0.8v0.8h0.3c0.7,0,1-0.1,1-0.5h0.3c0,0.1,0,0.3,0,0.7s0,0.6,0,0.7h-0.3
	c0-0.4-0.2-0.5-0.9-0.5h-0.4c0,0.4,0,0.9,0,1.3s0,0.4,0.2,0.4c0.2,0,0.3,0,0.5,0c0.8,0,1-0.2,1.2-0.7l0.3,0c-0.1,0.3-0.2,0.7-0.3,1
	L25.3,63.9z"/>
<path class="st0" d="M28.2,61.9H28l-0.1-0.4c0.7,0,1-0.4,1-0.9c0-0.5-0.3-0.9-0.8-1c0,0-0.1,0-0.1,0c-0.1,0-0.2,0-0.3,0
	c0,0.4,0,0.9,0,1.3v1.2c0,0.4,0,0.8,0.1,1.3c0.1,0.2,0.2,0.3,0.4,0.3v0.2h-1.9v-0.2c0.3,0,0.5-0.2,0.5-0.5c0,0,0,0,0,0
	c0-0.3,0-0.7,0-1v-1.7c0-0.2,0-0.5-0.1-0.7c-0.1-0.2-0.2-0.3-0.4-0.3v-0.2h0.8c0.4,0,0.7,0,1.1,0c1,0,1.6,0.5,1.6,1.3
	C29.7,61.4,29,62,28.2,61.9C28.2,61.9,28.2,61.9,28.2,61.9z"/>
<path class="st0" d="M34.5,59.7c-0.1,0.2-0.1,0.3-0.1,0.5c0,0.3,0,0.5,0,1c0,0.2,0,0.6,0,1.1c0,0.4-0.1,0.8-0.3,1.1
	c-0.4,0.5-0.9,0.8-1.5,0.7c-0.4,0-0.8-0.1-1.1-0.3c-0.5-0.3-0.8-0.9-0.7-1.5c0-0.8,0-1.1,0-1.3c0-0.4,0-0.7,0-1.1
	c0-0.3-0.2-0.3-0.5-0.4v-0.2h1.8v0.2c-0.2,0-0.3,0.1-0.4,0.2c-0.1,0.2-0.1,0.4-0.1,0.5c0,0.4,0,0.9,0,1.3c0,1.2,0,1.4,0.2,1.7
	c0.2,0.2,0.5,0.3,0.8,0.3c0.5,0,0.9-0.3,1-0.7c0.1-0.4,0.1-0.9,0.1-1.3v-0.7c0-0.8,0-1-0.1-1.2c-0.1-0.1-0.2-0.2-0.4-0.2v-0.2h1.5
	v0.2C34.7,59.5,34.6,59.6,34.5,59.7L34.5,59.7z"/>
<path class="st0" d="M38.8,63.7c-0.4,0.3-0.9,0.4-1.4,0.3h-1.1h-0.7v-0.2c0.3,0,0.5-0.2,0.5-0.5c0-0.3,0-0.7,0-1v-1.4
	c0-0.4,0-0.7-0.1-1.1c-0.1-0.2-0.2-0.3-0.4-0.3v-0.2h1h1.4c0.7,0,1.2,0.3,1.2,1c0,0.5-0.3,0.9-1,1.1c0.7,0,1.2,0.6,1.1,1.3
	C39.3,63.1,39.2,63.4,38.8,63.7L38.8,63.7z M37.3,59.7h-0.4c0,0.5,0,1.2,0,1.5h0.3c0.7,0,1.1-0.3,1.1-0.8S38,59.6,37.3,59.7
	L37.3,59.7z M37.3,61.7h-0.4c0,0.2,0,0.2,0,0.5v0.4c0,0.2,0,0.5,0.1,0.7c0.1,0.2,0.2,0.3,0.5,0.3c0.5,0.1,0.9-0.3,0.9-0.7
	c0-0.1,0-0.1,0-0.2c0-0.6-0.4-1-0.9-1.1C37.4,61.7,37.4,61.7,37.3,61.7L37.3,61.7z"/>
<path class="st0" d="M43.3,63.9C43.2,64,43.1,64,42.8,64h-0.5h-1.3h-0.8v-0.2c0.1,0,0.3,0,0.3-0.1c0.1-0.2,0.2-0.3,0.2-0.8
	c0-0.3,0-0.6,0-1v-0.8c0-0.4,0-0.8-0.1-1.3c-0.1-0.2-0.2-0.3-0.4-0.3v-0.2H42v0.2c-0.4,0-0.5,0.2-0.5,0.5c0,0.1,0,0.2,0,1v1.2
	c0,1,0,1.1,0.1,1.2s0.2,0.1,0.5,0.1c0.3,0,0.5,0,0.8-0.1c0.2-0.1,0.4-0.4,0.4-0.6l0.3,0.1C43.5,63.2,43.4,63.6,43.3,63.9L43.3,63.9z
	"/>
<path class="st0" d="M45.7,64H44v-0.2c0.3,0,0.5-0.2,0.5-0.5c0-0.3,0-0.7,0-1v-1.2c0-0.2,0-0.4,0-0.6c0-0.2,0-0.5-0.1-0.7
	c-0.1-0.2-0.2-0.3-0.4-0.3v-0.2h1.9v0.2c-0.3,0-0.5,0.2-0.5,0.5c0,0,0,0,0,0c0,0.2,0,0.4,0,1v1.2c0,0.4,0,0.8,0.1,1.3
	c0.1,0.2,0.2,0.3,0.4,0.3V64L45.7,64z"/>
<path class="st0" d="M52.2,65.3c-0.6,0-1.2-0.2-1.7-0.5c-0.4-0.2-0.7-0.5-1.1-0.7c-0.2,0-0.4,0-0.5,0c-1.2,0.1-2.3-0.8-2.3-2
	c0-0.1,0-0.2,0-0.3c-0.1-1.3,0.9-2.4,2.3-2.5c0.1,0,0.2,0,0.2,0c1.2-0.1,2.3,0.8,2.4,2.1c0,0.1,0,0.2,0,0.3c0,1-0.5,1.9-1.3,2.3
	c0.3,0.1,0.5,0.3,0.8,0.4c0.5,0.4,1.1,0.6,1.7,0.6c0.3,0,0.6-0.1,0.8-0.2l0.1,0.3C53.1,65.2,52.7,65.3,52.2,65.3L52.2,65.3z
	 M48.9,59.7c-0.8,0-1.5,0.8-1.5,1.6c0,0,0,0.1,0,0.1c0,1.2,0.7,2.2,1.6,2.2c0.9-0.1,1.5-0.8,1.5-1.6c0,0,0,0,0-0.1
	C50.6,60.7,49.8,59.8,48.9,59.7L48.9,59.7z"/>
<path class="st0" d="M19,52c-0.1,0.1-0.2,0.1-0.4,0.1h-1H16V52c0.2,0,0.3-0.1,0.4-0.2c0.1-0.2,0.2-0.5,0.3-0.7
	c0.1-0.4,0.1-0.6,0.3-1.3l0.1-0.5c0.1-0.3,0.1-0.7,0.1-1c0-0.3-0.1-0.4-0.4-0.5v-0.2h1.7v0.2c-0.1,0-0.3,0-0.4,0.1
	c-0.2,0.2-0.3,0.5-0.5,1.8l-0.1,0.5c-0.1,0.6-0.1,0.8-0.2,1c0,0.1,0,0.1,0,0.2c0,0.3,0.1,0.3,0.6,0.3c0.8,0,1.1-0.2,1.3-0.7l0.2,0.1
	C19.3,51.4,19.2,51.7,19,52L19,52z"/>
<path class="st0" d="M21,48.7c-0.2,0-0.3-0.1-0.3-0.3c0,0,0,0,0,0c0-0.2,0.2-0.4,0.4-0.4c0,0,0,0,0,0c0.2,0,0.3,0.1,0.3,0.3
	c0,0,0,0,0,0.1C21.4,48.5,21.3,48.7,21,48.7C21,48.7,21,48.7,21,48.7L21,48.7z M20.3,52.2c-0.1,0-0.2-0.1-0.2-0.2c0,0,0,0,0,0
	c0-0.1,0-0.2,0-0.3c0.1-0.4,0.2-0.8,0.3-1.1c0.1-0.2,0.1-0.5,0.1-0.7c0-0.1,0-0.1-0.1-0.1c-0.1,0-0.2,0-0.3,0.1l0,0v-0.2
	c0.3-0.1,0.6-0.2,0.9-0.2c0.1,0,0.1,0,0.1,0.1c0,0.3-0.1,0.5-0.2,0.8l-0.1,0.4c-0.1,0.3-0.2,0.7-0.2,1c0,0.1,0,0.1,0.1,0.2
	c0,0,0,0,0,0c0.1,0,0.3,0,0.4-0.1v0.2C21,52.1,20.6,52.1,20.3,52.2L20.3,52.2z"/>
<path class="st0" d="M24,51.9c-0.3,0.2-0.7,0.4-1.1,0.3c-0.5,0-0.9-0.1-0.9-0.2c0-0.1,0-0.3,0.1-0.4l0.4-1.5
	c0.1-0.5,0.2-0.9,0.3-1.5c0-0.2,0.1-0.4,0.1-0.6c0-0.1,0-0.1-0.1-0.1c-0.1,0-0.2,0-0.3,0.1v-0.2h0.1c0.3-0.1,0.5-0.2,0.8-0.2
	c0.1,0,0.1,0,0.1,0.1c0,0.3-0.1,0.5-0.1,0.8l-0.2,0.9c-0.1,0.3-0.1,0.4-0.1,0.5c0.3-0.2,0.7-0.4,1.1-0.4c0.4,0,0.6,0.2,0.6,0.6
	C24.8,50.8,24.5,51.4,24,51.9z M24,49.7c-0.2,0-0.3,0.1-0.5,0.2c-0.2,0.1-0.3,0.2-0.4,0.3c-0.1,0.2-0.2,0.5-0.3,0.8
	c-0.1,0.3-0.1,0.5-0.1,0.8c0,0.1,0.1,0.2,0.4,0.2c0.3,0,0.5-0.1,0.7-0.4c0.3-0.4,0.5-0.9,0.5-1.5C24.3,49.9,24.2,49.7,24,49.7
	L24,49.7z"/>
<path class="st0" d="M26.4,51h-0.2c0,0.1,0,0.2,0,0.3c0,0.3,0.1,0.5,0.4,0.5c0.3,0,0.6-0.2,0.9-0.4l0.1,0.2
	c-0.4,0.3-0.8,0.4-1.2,0.5c-0.4,0-0.6-0.3-0.6-0.7c-0.1-1,0.6-1.9,1.6-2.1c0.4,0,0.7,0.2,0.7,0.5C27.9,50.6,27.2,51,26.4,51L26.4,51
	z M27.1,49.7c-0.3,0-0.7,0.5-0.8,1.1h0.1c0.6,0,1.1-0.3,1.1-0.8C27.4,49.8,27.3,49.7,27.1,49.7C27.1,49.7,27.1,49.7,27.1,49.7
	L27.1,49.7z"/>
<path class="st0" d="M30.6,50.3h-0.2c0-0.1,0-0.2,0-0.3c0-0.1-0.1-0.2-0.3-0.2c-0.1,0-0.2,0.1-0.3,0.2c-0.3,0.5-0.5,1-0.5,1.5
	l-0.2,0.7l-0.6,0.1c0.1-0.3,0.1-0.5,0.2-0.7l0.1-0.6C29,50.6,29,50.3,29,50c0-0.2,0-0.3-0.1-0.3h-0.2l-0.2,0v-0.2
	c0.3-0.1,0.6-0.2,0.9-0.3c0.1,0,0.1,0,0.1,0.1c0,0.1,0,0.2,0,0.3c0.2-0.2,0.5-0.3,0.8-0.4c0.2,0,0.3,0.1,0.5,0.2
	C30.7,49.8,30.6,50,30.6,50.3L30.6,50.3z"/>
<path class="st0" d="M32.9,49.8h-0.6l-0.3,1.4c0,0.2-0.1,0.3-0.1,0.5c0,0.1,0,0.2,0.1,0.2c0.1,0,0.2,0,0.3-0.1h0.1V52
	c-0.3,0.1-0.6,0.2-0.9,0.2c-0.1,0-0.2-0.1-0.2-0.2c0-0.2,0-0.3,0.1-0.5c0.1-0.2,0.1-0.4,0.2-0.7l0.2-1h-0.4v-0.2
	c0.5-0.1,0.6-0.5,0.7-0.8l0.3-0.1l-0.2,0.8h0.6L32.9,49.8L32.9,49.8z"/>
<path class="st0" d="M35,49l-0.2-0.2l0.8-0.9l0.6,0.2L35,49L35,49z M34.3,51h-0.2c0,0.1,0,0.2,0,0.3c0,0.3,0.1,0.5,0.4,0.5
	c0.3,0,0.6-0.2,0.9-0.4l0.1,0.2c-0.4,0.3-0.8,0.4-1.2,0.5c-0.4,0-0.7-0.3-0.7-0.7c-0.1-1,0.6-1.9,1.7-2.1c0.4,0,0.7,0.2,0.7,0.5
	C35.8,50.6,35.2,51,34.3,51L34.3,51z M35,49.7c-0.3,0-0.7,0.5-0.8,1.1h0c0.6,0,1.1-0.3,1.1-0.8C35.3,49.8,35.1,49.7,35,49.7L35,49.7
	z"/>
<path class="st0" d="M46.7,47.1l-0.2-0.2l0.8-0.9l0.6,0.2L46.7,47.1L46.7,47.1z M48,48.6h-0.2c0-0.1,0-0.1,0-0.2
	c0-0.4-0.3-0.5-0.9-0.5c-0.2,0-0.4,0-0.7,0c-0.1,0.6-0.2,1.1-0.4,1.7h0.3c0.3,0,0.5,0,0.8,0c0.2,0,0.4-0.2,0.5-0.5h0.2
	c-0.1,0.4-0.2,1-0.3,1.3h-0.2c0,0,0-0.1,0-0.1c0-0.3-0.2-0.4-0.7-0.4h-0.6c0,0.2,0,0-0.2,0.8c-0.1,0.2-0.1,0.5-0.1,0.7
	c0,0.2,0.1,0.3,0.6,0.3c0.9,0,1.1-0.1,1.4-0.7l0.2,0.1c-0.1,0.3-0.2,0.6-0.4,0.9c-0.1,0.1-0.2,0.1-0.4,0.1h-2.6V52
	c0.2,0,0.3-0.1,0.4-0.2c0.1-0.2,0.2-0.5,0.3-0.7c0.1-0.4,0.1-0.5,0.3-1.3l0.1-0.5c0.1-0.3,0.1-0.7,0.2-1c0-0.3-0.1-0.4-0.4-0.5v-0.2
	h3.1C48.1,47.9,48,48.3,48,48.6L48,48.6z"/>
<path class="st0" d="M51.4,49.8h-0.5c0.1,0.1,0.1,0.3,0.1,0.4c0,0.6-0.5,1.1-1.2,1.1c0,0,0,0,0,0c-0.1,0-0.2,0-0.4,0
	c-0.2,0.1-0.2,0.2-0.2,0.2s0.1,0.1,0.4,0.2l0.5,0.2c0.5,0.2,0.8,0.3,0.8,0.7c-0.1,0.8-0.8,1.4-1.6,1.3c-0.8,0-1.2-0.3-1.2-0.9
	s0.3-0.8,0.9-0.9c-0.3-0.1-0.4-0.2-0.4-0.3s0.2-0.3,0.6-0.6c-0.2-0.1-0.3-0.4-0.3-0.6c0-0.6,0.5-1.1,1.1-1.1c0,0,0,0,0.1,0
	c0.2,0,0.3,0,0.5,0.1h0.9C51.5,49.5,51.4,49.8,51.4,49.8z M50.1,49.7c-0.4,0.1-0.7,0.4-0.7,0.8c0,0.3,0.2,0.5,0.5,0.5
	c0.4-0.1,0.7-0.4,0.7-0.8C50.5,49.9,50.4,49.7,50.1,49.7L50.1,49.7z M50.2,52.4c-0.2-0.1-0.5-0.2-0.8-0.3c-0.4,0.1-0.7,0.4-0.8,0.9
	c0,0.4,0.3,0.6,0.8,0.6s1.1-0.4,1.1-0.8C50.5,52.6,50.4,52.5,50.2,52.4L50.2,52.4z"/>
<path class="st0" d="M40.2,50.9c0.5,0,0.8-0.4,0.8-0.8s-0.4-0.8-0.8-0.8c-0.5,0-0.8,0.4-0.8,0.8C39.4,50.5,39.8,50.9,40.2,50.9
	C40.2,50.9,40.2,50.9,40.2,50.9z"/>
<line class="st2" x1="16.4" y1="55.2" x2="101.4" y2="55.2"/>
<rect x="16.4" y="55" class="st0" width="84.9" height="0.3"/>
<g>
	<defs>
		<polygon id="SVGID_1_" points="16.5,43.6 16.5,15.1 101.6,15.1 101.6,43.6 16.5,43.6 		"/>
	</defs>
	<clipPath id="SVGID_2_">
		<use xlink:href="#SVGID_1_"  style="overflow:visible;"/>
	</clipPath>
	<g class="st3">
		<path class="st4" d="M16.3,43.8c0.1-7.1,0-14.1,0.2-21.2c0.1-2.5-0.1-5.1-0.1-7.6c1.7-0.2,3.5-0.3,5.3-0.1c11.2,0,22.4,0,33.6,0
			c-0.8,0.3-1.6,0.8-2.3,1.4c-0.6,0.6-1,1.3-1.2,2.1c-0.8,0.5-1.4,1.2-1.8,2.1c-0.6,1.1-1.4,2.1-1.3,3.3c0.1,1,0.4,2,0.6,3.1
			c0.1,0.4,0.1,0.7,0.3,1.1c0.1,0.4,0,0.8,0.2,1.2s0.1,0.5,0.3,0.6v0.3c0.1,0.1,0.1,0.1,0.2,0.1v0.3c0.6,0.6,1.1,1.2,1.5,1.9
			c0.1,0.4-0.7,0.2-1,0.1c-0.6-0.4-1.1-0.8-1.6-1.3c0,0-0.1,0.1-0.1,0.1c0.3,0.5,1.2,1,0.7,1.4c-0.3,0.1-0.6-0.2-0.8,0.1
			c-0.1,0.1,0,0.3,0,0.4c-0.4-0.3-0.8-0.1-1.2-0.3s-0.3-0.6-0.7-0.6c-0.8-0.2-1.6-0.4-2.5-0.4c-1.1-0.2-2.3-0.2-3.4-0.1
			c-1,0.2-1.9,0.8-2.5,1.6v0.2c0.5,0.1,0.7-0.3,1-0.5c0.7-0.1,1.2-0.4,1.9-0.5c0.9-0.3,1.8-0.4,2.8-0.4c0.2,0,0.4,0,0.7,0
			c-1.1,0-2.3,0.2-3.3,0.7l0,0c-0.8,0.1-1.5,0.4-2.3,0.7c1.7-0.1,3.4,0.2,5,0.7c0.6,0.2,1.1,0.5,1.6,0.8c0.2,0.2,0.4,0.4,0.7,0.5
			c0.3,0.2,0.7,0.2,1.1,0.1h0.3c1-0.2,1.9-0.6,2.7-1.2c0,0.1,0.1,0.1,0.1,0.1c-0.1,0.6-0.2,1.1-0.5,1.6c0,0.1-0.1,0.2,0.1,0.3h0.1
			c-0.1,0-0.1,0-0.1,0.1s0.2,0,0.3,0.1c-0.3,0-0.6,0.2-0.8,0.4c0,0.1,0.1,0.1,0.2,0.1c-0.1,0.1-0.3,0.1-0.4,0.2c0,0,0.1,0.1,0.1,0.1
			c-0.1,0-0.1,0-0.1,0.1v0.2c-0.2,0-0.3,0.1-0.4,0.2c0.3,0.2,0.5,0,0.7,0c-0.7,0.3-1.3,0.7-2,0.8c-0.1,0,0,0.2-0.1,0.2
			c0.2,0.1,0.3-0.1,0.5-0.1c-0.9,0.5-1.8,1-2.8,1.6c-0.1,0.1-0.1,0.2-0.1,0.3h-0.3c-0.1,0.1-0.1,0.3-0.2,0.4c0.3,0.2,0.7-0.3,0.9,0
			c0.1,0-0.1,0.1-0.3,0.1s-0.1,0.1-0.1,0.1h-0.2c-0.1,0.1-0.3,0.2-0.3,0.4c-0.1,0-0.3,0-0.3,0.1c1.4-0.2,2.9-0.1,4.3-0.8
			c1.1-0.5,2-1.3,2.9-2.1c0,0,0.1,0.1,0.1,0.1c-0.2,0.6-0.6,1.1-1.1,1.5c-0.4,0.2-0.7,0.5-1,0.7l-0.6,0.4c-2.4,0.8-5.3,0.5-7.3,2.1
			c0-0.1-0.1-0.1-0.1-0.1s-0.3,0.2-0.4,0.3s0.2,0.1,0.3,0.1c0.4-0.3,0.8-0.5,1.2-0.6c-0.5,0.3-1,0.6-1.6,0.8c-1.1,0.2-2.2,0.2-3.3,0
			c0.7-0.4,1.3-0.8,2-1.2c-0.2-0.1-0.4-0.1-0.6-0.1c-0.3,0.1-0.7-0.1-1,0c-1,0.5-2.3,0.3-2.8,1.4"/>
		<path class="st1" d="M38.3,35.9c-0.2,0-0.4,0.2-0.3,0.3s0.6-0.1,0.9-0.1c-0.4,0.1-0.8,0.1-1.2,0.4c0.3,0.2,0.5,0.1,0.8,0.1
			c0,0.1,0.1,0.1,0.2,0.2c-0.3,0.1-0.5,0.3-0.7,0.6c-0.1,0.3-0.5,0.5-0.7,0.7v0.2c-0.7,0.5-1.3,1.1-1.9,1.7c0.1,0,0.1,0.1,0.1,0.1
			s-0.4,0.3-0.5,0.5s0,0.1,0.1,0.1c0.8-0.3,1.4-0.8,2.1-1.1c0.5-0.1,0.9-0.5,1.4-0.6s0.7-0.2,1-0.3c0,0.1,0,0.1,0.1,0.1h0.5
			c-0.1,0.1-0.3,0.1-0.3,0.1s0.6,0.1,0.8,0c0.2-0.1,0.4-0.2,0.7-0.1c0.1,0,0.1-0.1,0.1-0.2c0.2,0.1,0.3,0.1,0.5,0.1
			c1.5-0.3,3.1-0.7,4.5-1.4c-1.7-1.3-3.8-1.8-5.8-2.3c0.2,0,0.4,0.2,0.6,0c-0.3-0.3-0.7-0.1-1-0.3c0.1,0,0.2,0.1,0.3-0.1
			c-0.5-0.2-1-0.3-1.6-0.4c0.3-0.1,0.5-0.3,0.5-0.7c0-0.1-0.1-0.1-0.2-0.1c-0.8,0.4-1.3,1.1-1.6,2c0.5,0.3,1,0.1,1.4,0.1
			C38.9,35.9,38.6,35.9,38.3,35.9L38.3,35.9z"/>
		<path class="st1" d="M35.6,33.4c-0.6,0.7-1.4,1.3-2.2,1.8c-0.6,1.2-1.3,2.3-2.1,3.3c0,0,0,0.1,0.1,0.1c1.4-1.7,3.1-3.3,5-4.5
			c0.1-0.1-0.2,0.2,0.1,0.1c0.8-0.2,1.1-1,1.5-1.7c0.5-0.8,1.4-1.2,2.1-1.9c0,0.1,0,0.1-0.1,0.2c0,0.1,0.1,0.1,0.2,0.1
			c0.3-0.2,0.6-0.1,0.8-0.4c-0.5-0.2-1.1-0.2-1.7-0.1C37.9,31.3,36.6,32.3,35.6,33.4L35.6,33.4z"/>
		<path class="st1" d="M36.6,34.6c0.1-0.1,0.1-0.1,0.2-0.3s0-0.1-0.1-0.1c-0.3,0.1-0.5,0.3-0.5,0.6c0,0.1,0.1,0.1,0.1,0.1
			C36.5,34.8,36.5,34.8,36.6,34.6L36.6,34.6z"/>
		<path class="st1" d="M41.8,39.6c-0.3,0.1-0.7,0.1-0.8,0.5c-0.1,0.1,0.2,0.1,0.3,0.1c0.5-0.2,1,0,1.4-0.4c-0.1-0.1-0.3-0.1-0.5-0.3
			S41.9,39.5,41.8,39.6L41.8,39.6z"/>
		<path class="st5" d="M48.9,43.1c0.4-0.1,0.8-0.3,1.2-0.5v0.1c1-0.4,1.7-1.2,2.7-1.6c0.1,0,0.2,0.1,0.3,0.1c0.5-0.6,1.3-1,2.1-1
			c0,0.1,0,0.1,0.1,0.1s0.1,0,0.1-0.1l-0.8,0.6c-0.1,0.1,0,0.1,0.1,0.1c0.3-0.1,0.5-0.4,0.8-0.5c-0.1,0.1-0.1,0.2-0.1,0.3
			c-1.2,0.9-2.2,2-3.1,3.1h-2c0-0.1,0-0.1-0.1-0.1c-2.3,0.2-4.5,0.1-6.8,0.1c1.3-0.2,2.6-0.6,3.9-0.7C47.8,43.2,48.3,43.2,48.9,43.1
			L48.9,43.1z"/>
		<path class="st6" d="M74.5,39.8c0.2-0.4,0.3-1,0.1-1.4c-0.4-0.6,0.4-0.8,0.7-1.2S75,36.7,75,36.3c-0.1-0.1-0.3-0.1-0.5-0.3
			c0.5-0.2,1.2-0.6,0.8-1.2c-0.2-0.3-0.5-0.8-0.1-1.2s1.2-0.2,1.4-0.7c0.3-0.8-0.4-1.4-0.8-2.1c-0.2-0.3-0.5-0.7-0.7-1
			c-0.3-0.4-0.5-0.9-0.7-1.4c-0.2-0.5,0.1-1,0.1-1.5c0-1-0.2-2-0.5-2.9c-0.2-0.5-0.3-1-0.5-1.4c-0.1-0.3-0.2-0.5-0.3-0.8
			c-0.1-0.1-0.1-0.3,0-0.5c0.3-0.2,0.5-0.4,0.8-0.6c0.2-0.3,0.1-0.8-0.3-1c0,0,0,0,0,0c-0.4-0.2-0.4,0.5-0.7,0.6h-0.2
			c-0.1-0.2,0.1-0.3,0.2-0.4s0-0.2-0.1-0.2c-0.3,0-0.5-0.1-0.6-0.2c-0.6-0.8-1.5-1.5-2.5-1.8c0.3,0.1,0.5,0.1,0.8,0.1
			c0.5,0.1,0.9,0,1.4-0.1c0.3-0.1,0.4-0.6,0.5-1s-0.1-0.6-0.2-0.9C72,15.6,71.5,15.2,71,15h30.8c0.1,9.6-0.1,19.2-0.1,28.8
			c-12.2,0.2-24.3,0-36.4,0c0.4-1.3,1.2-2.5,2.3-3.4c0.3-0.1,0.6-0.2,0.9-0.3c1.1,0.1,2.2,0.2,3.3,0.5c0.1,0,0.3,0.1,0.4,0.1
			c0.4,0.1,0.8,0.1,1.2-0.1C73.8,40.6,74.3,40.2,74.5,39.8L74.5,39.8z"/>
		<path class="st7" d="M72,27c-0.4,0-0.7,0-1.1,0c-0.5,0.1-1,0.2-1.4,0.4c0.4-0.3,0.8-0.5,1.2-0.6c0.3-0.1,0.7-0.2,1-0.3
			c0.4-0.1,0.7-0.1,1.1-0.1c0.3,0.1,0.8,0.1,0.9,0.3c0.1,0.4-0.2,0.8-0.6,1c-0.1,0.1,0.2,0.2,0.2,0.3c-0.1,0.1-0.2,0.2-0.4,0.2
			c-0.1,0.1-0.3,0.3-0.4,0.4c0.1,0,0,0.2,0.1,0.2c-0.3,0.3,0.1,1-0.3,1.1c-0.5,0.1-1,0.1-1.5,0c0.3-0.1,0.6,0.1,0.8-0.2v-0.2
			c0-0.1-0.1-0.1-0.1-0.1c0,0-0.1,0.1-0.1,0.1c0-0.1-0.1-0.2-0.2-0.3c-0.4,0.1-0.8-0.1-1-0.4c0.2-0.1,0.4-0.1,0.6-0.1
			c0.2,0,0.1-0.3,0.3-0.5h0.2c0.4-0.5,1.2-0.6,1.3-1.2C72.6,27.1,72.2,27.1,72,27L72,27z"/>
	</g>
</g>
<polyline class="st8" points="118.8,78.8 230.6,78.8 230.6,0.3 118.8,0.3 118.8,78.8 0.3,78.8 0.3,0.3 118.8,0.3 "/>
<text transform="matrix(1 0 0 1 148.79 30.14)" class="st0 st9 st10">MINISTÈRE</text>
<text transform="matrix(1 0 0 1 133.34 42.74)" class="st0 st9 st10">DE L</text>
<text transform="matrix(1 0 0 1 157.25 42.74)" class="st0 st9 st10">A</text>
<text transform="matrix(1 0 0 1 164.54 42.74)" class="st0 st9 st10"> COHÉSION</text>
<text transform="matrix(1 0 0 1 131.58 55.34)" class="st0 st9 st10">DES</text>
<text transform="matrix(1 0 0 1 152.2 55.34)" class="st0 st9 st10"> </text>
<text transform="matrix(1 0 0 1 154.69 55.34)" class="st0 st9 st10">TERRI</text>
<text transform="matrix(1 0 0 1 186.19 55.34)" class="st0 st9 st10">T</text>
<text transform="matrix(1 0 0 1 192.66 55.34)" class="st0 st9 st10">OIRES</text>
<path class="st11" d="M362.5,58.7c-9.2,1-14-4.6-14-13.1V35.5h-3.8v-7.1h3.8v-7h8v7h5.6v7.1h-5.6v10.1c0,4.4,2,6,6,5.8V58.7z"/>
<rect x="312.8" y="11.5" class="st12" width="49.7" height="7.1"/>
<rect x="312.8" y="62.3" class="st12" width="49.7" height="7.1"/>
<path class="st11" d="M261.4,59.5c-9.4,0-16.2-7.3-16.2-16.3s6.7-16.5,16.2-16.5c7.5,0,13.2,4.3,15.1,11.3h-8.6
	c-1.3-2.4-3.8-3.9-6.5-4c-4.4,0-8,4.1-8,9.2s3.6,9,8,9c2.8,0,5.3-1.5,6.6-4h8.6C274.7,55.3,268.9,59.5,261.4,59.5z"/>
<path class="st11" d="M310.1,57.2c0,10.4-6.2,16.9-16.2,16.9c-7.5,0-14-4.3-15.2-10.9h8.8c1,2.5,4.2,3.5,6.4,3.5
	c5.6,0,8.2-3.7,8.2-9.3v-1.5c-2.5,2.4-5.8,3.7-9.2,3.7c-8.1,0-14.9-7-14.9-16.3s6.8-16.3,14.9-16.3c3.6,0,7.1,1.4,9.6,4V27h7.6V57.2
	z M294.1,34.2c-4.4,0-8,3.9-8,9s3.6,8.8,8,8.8s8-4,8-8.8S298.5,34.2,294.1,34.2L294.1,34.2z"/>
<path class="st11" d="M320.5,46.3c0.8,3.6,4.1,6.2,7.8,6.2c2.7,0.1,5.3-1.3,6.6-3.6h8.6c-1.8,6.4-7.4,10.7-15.1,10.7
	c-9.1-0.2-16.2-7.7-16-16.8c0.2-8.7,7.2-15.8,16-16c9.2,0,16.9,7.2,15.7,19.6L320.5,46.3z M336.2,39.7c-0.9-3.6-4.2-6.1-7.8-6
	c-3.6,0-6.8,2.5-7.7,6H336.2z"/>
<path class="st11" d="M362.5,58.7c-9.2,1-14-4.6-14-13.1V35.5h-3.8v-7.1h3.8v-7.1h8v7.1h5.7v7.1h-5.7v10.2c0,4.4,2,6,6,5.8
	L362.5,58.7z"/>
<g class="st13">
	<path class="st11" d="M387.1,34.9c-3,0-5.4-2.5-5.4-5.7c0-3.1,2.4-5.7,5.4-5.7c2.5,0,4.3,1.5,5,3.6h-1.4c-0.6-1.4-1.8-2.4-3.6-2.4
		c-2.2,0-4.1,2-4.1,4.4c0,2.4,1.8,4.4,4.1,4.4c1.6,0,2.9-0.9,3.6-2.4h1.4C391.3,33.5,389.4,34.9,387.1,34.9z"/>
</g>
<g class="st13">
	<path class="st11" d="M401.3,30.7c0,2.3-1.8,4.2-4.1,4.2c-2.3,0-4.1-1.9-4.1-4.2c0-2.4,1.8-4.3,4.1-4.3
		C399.5,26.5,401.3,28.4,401.3,30.7z M399.9,30.7c0-1.7-1.2-3-2.7-3c-1.5,0-2.7,1.4-2.7,3c0,1.6,1.2,3,2.7,3
		C398.7,33.7,399.9,32.4,399.9,30.7z"/>
	<path class="st11" d="M414.4,34.8h-1.3v-5c0-1.3-0.6-2-1.8-2c-1.1,0-1.9,0.9-1.9,2.1v4.9H408v-5c0-1.3-0.6-2-1.8-2
		c-1.1,0-1.9,0.9-1.9,2.1v4.9H403v-8.1h1.3v0.9c0.5-0.7,1.3-1.1,2.1-1.1c1.1,0,2,0.5,2.5,1.4c0.5-0.8,1.4-1.4,2.5-1.4
		c1.9,0,3,1.3,3,3.3V34.8z"/>
	<path class="st11" d="M428.1,34.8h-1.3v-5c0-1.3-0.6-2-1.8-2c-1.1,0-1.9,0.9-1.9,2.1v4.9h-1.3v-5c0-1.3-0.6-2-1.8-2
		c-1.1,0-1.9,0.9-1.9,2.1v4.9h-1.3v-8.1h1.3v0.9c0.5-0.7,1.3-1.1,2.1-1.1c1.1,0,2,0.5,2.5,1.4c0.5-0.8,1.4-1.4,2.5-1.4
		c1.9,0,3,1.3,3,3.3V34.8z"/>
	<path class="st11" d="M431.7,25.4h-1.3v-1.6h1.3V25.4z M431.7,34.8h-1.3v-8.1h1.3V34.8z"/>
	<path class="st11" d="M437,35c-2,0-3.4-1.1-3.6-2.8h1.3c0.2,0.9,1.1,1.5,2.3,1.5c1.3,0,2-0.6,2-1.3c0-0.6-0.2-1-2.2-1.3
		c-2-0.3-3.2-0.8-3.2-2.3c0-1.2,1-2.4,3.2-2.4c1.9,0,3.1,0.9,3.3,2.5h-1.3c-0.2-0.9-1-1.3-1.9-1.3c-1.1,0-1.8,0.5-1.8,1.1
		c0,0.6,0.5,0.8,2,1c1.8,0.3,3.3,0.6,3.3,2.5C440.3,33.9,438.9,35,437,35z"/>
	<path class="st11" d="M444.8,35c-2,0-3.4-1.1-3.6-2.8h1.3c0.2,0.9,1.1,1.5,2.3,1.5c1.3,0,2-0.6,2-1.3c0-0.6-0.2-1-2.2-1.3
		c-2-0.3-3.2-0.8-3.2-2.3c0-1.2,1-2.4,3.2-2.4c1.9,0,3.1,0.9,3.3,2.5h-1.3c-0.2-0.9-1-1.3-1.9-1.3c-1.1,0-1.8,0.5-1.8,1.1
		c0,0.6,0.5,0.8,2,1c1.8,0.3,3.3,0.6,3.3,2.5C448.1,33.9,446.8,35,444.8,35z"/>
	<path class="st11" d="M455.1,33.8c-0.6,0.7-1.5,1.1-2.8,1.1c-1.7,0-3.2-0.8-3.2-2.5c0-1.7,1.2-2.4,3.3-2.5c2-0.1,2.6-0.5,2.6-1.1
		c0-0.6-0.6-1.1-2-1.1c-0.8,0-2,0.3-2.1,1.4h-1.4c0.1-1.6,1.4-2.7,3.5-2.7c2.2,0,3.3,1,3.3,2.5v4.5c0,0.4,0.1,1,0.2,1.3h-1.3
		C455.2,34.5,455.1,34.2,455.1,33.8z M455.1,30.4c-0.5,0.5-1.5,0.6-2.4,0.6c-1.8,0.1-2.1,0.7-2.1,1.4c0,0.9,0.8,1.3,1.9,1.3
		c1.4,0,2.7-0.6,2.7-2.1V30.4z"/>
	<path class="st11" d="M462.6,27.8c-1.4-0.1-2.6,0.7-2.6,2.3v4.7h-1.3v-8.1h1.3v0.9c0.6-0.9,1.7-1.2,2.6-1.1V27.8z"/>
	<path class="st11" d="M465.4,25.4h-1.3v-1.6h1.3V25.4z M465.4,34.8h-1.3v-8.1h1.3V34.8z"/>
	<path class="st11" d="M473.1,33.8c-0.6,0.7-1.5,1.1-2.8,1.1c-1.7,0-3.2-0.8-3.2-2.5c0-1.7,1.2-2.4,3.3-2.5c2-0.1,2.6-0.5,2.6-1.1
		c0-0.6-0.6-1.1-2-1.1c-0.8,0-2,0.3-2.1,1.4h-1.4c0.1-1.6,1.4-2.7,3.5-2.7c2.2,0,3.3,1,3.3,2.5v4.5c0,0.4,0.1,1,0.2,1.3h-1.3
		C473.2,34.5,473.1,34.2,473.1,33.8z M473.1,30.4c-0.5,0.5-1.5,0.6-2.4,0.6c-1.8,0.1-2.1,0.7-2.1,1.4c0,0.9,0.8,1.3,1.9,1.3
		c1.4,0,2.7-0.6,2.7-2.1V30.4z"/>
	<path class="st11" d="M480,34.8c-1.9,0.2-3.2-0.9-3.2-2.9v-3.9h-1.1v-1.3h1.1v-1.7h1.3v1.7h1.8v1.3h-1.8v3.9c0,1.4,0.9,1.8,1.9,1.7
		V34.8z"/>
	<path class="st11" d="M493.7,34.4c0,2.6-1.7,4.3-4.2,4.3c-1.9,0-3.4-1-3.8-2.7h1.4c0.5,1.2,1.8,1.4,2.4,1.4c2.1,0,2.8-1.6,2.8-3.1
		v-0.8c-0.6,0.8-1.6,1.4-2.7,1.4c-2.3,0-4-1.9-4-4.2s1.7-4.3,4-4.3c1.2,0,2.2,0.7,2.8,1.5v-1.3h1.3V34.4z M489.6,27.7
		c-1.5,0-2.7,1.3-2.7,3c0,1.6,1.2,3,2.7,3c1.5,0,2.7-1.3,2.7-3C492.3,29.1,491.1,27.7,489.6,27.7z"/>
	<path class="st11" d="M503.2,32.2c-0.6,1.7-1.9,2.7-3.8,2.7c-2.3,0-4.1-1.9-4.1-4.2c0-2.3,1.8-4.3,4.1-4.3c2.1,0,4.1,1.7,4.1,4.6
		h-6.8c0.2,1.7,1.5,2.7,2.8,2.7c1.1,0,2-0.5,2.4-1.5H503.2z M501.9,29.9c-0.3-1.3-1.4-2.2-2.6-2.2c-1.1,0-2.3,0.8-2.6,2.2H501.9z
		 M499.9,25.6h-1l1.4-2.1h1.6L499.9,25.6z"/>
	<path class="st11" d="M511.8,34.8h-1.3v-4.9c0-1.2-0.7-2.1-2-2.1c-1.2,0-2.1,0.9-2.1,2.1v4.9H505v-8.1h1.3v0.9
		c0.5-0.7,1.4-1.1,2.4-1.1c2,0,3.1,1.4,3.1,3.4V34.8z"/>
	<path class="st11" d="M521.4,32.2c-0.6,1.7-1.9,2.7-3.8,2.7c-2.3,0-4.1-1.9-4.1-4.2c0-2.3,1.8-4.3,4.1-4.3c2.1,0,4.1,1.7,4.1,4.6
		h-6.8c0.2,1.7,1.5,2.7,2.8,2.7c1.1,0,2-0.5,2.4-1.5H521.4z M520.1,29.9c-0.3-1.3-1.4-2.2-2.6-2.2c-1.1,0-2.3,0.8-2.6,2.2H520.1z
		 M518.1,25.6h-1l1.4-2.1h1.6L518.1,25.6z"/>
</g>
<g class="st13">
	<path class="st11" d="M527.1,27.8c-1.4-0.1-2.6,0.7-2.6,2.3v4.7h-1.3v-8.1h1.3v0.9c0.6-0.9,1.7-1.2,2.6-1.1V27.8z"/>
</g>
<g class="st13">
	<path class="st11" d="M533.7,33.8c-0.6,0.7-1.5,1.1-2.8,1.1c-1.7,0-3.2-0.8-3.2-2.5c0-1.7,1.2-2.4,3.3-2.5c2-0.1,2.6-0.5,2.6-1.1
		c0-0.6-0.6-1.1-2-1.1c-0.8,0-2,0.3-2.1,1.4h-1.4c0.1-1.6,1.4-2.7,3.5-2.7c2.2,0,3.3,1,3.3,2.5v4.5c0,0.4,0.1,1,0.2,1.3h-1.3
		C533.8,34.5,533.7,34.2,533.7,33.8z M533.7,30.4c-0.5,0.5-1.5,0.6-2.4,0.6c-1.8,0.1-2.1,0.7-2.1,1.4c0,0.9,0.8,1.3,1.9,1.3
		c1.4,0,2.7-0.6,2.7-2.1V30.4z"/>
	<path class="st11" d="M538.6,34.8h-1.3V23.1h1.3V34.8z"/>
</g>
<g class="st13">
	<path class="st11" d="M387.5,52.6c-0.6,0.7-1.5,1.1-2.8,1.1c-1.7,0-3.2-0.8-3.2-2.5c0-1.7,1.2-2.4,3.3-2.5c2-0.1,2.6-0.5,2.6-1.1
		c0-0.6-0.6-1.1-2-1.1c-0.8,0-2,0.3-2.1,1.4H382c0.1-1.6,1.4-2.7,3.5-2.7c2.2,0,3.3,1,3.3,2.5v4.5c0,0.4,0.1,1,0.2,1.3h-1.3
		C387.6,53.3,387.5,53,387.5,52.6z M387.5,49.2c-0.5,0.5-1.5,0.6-2.4,0.6c-1.8,0.1-2.1,0.7-2.1,1.4c0,0.9,0.8,1.3,1.9,1.3
		c1.4,0,2.7-0.6,2.7-2.1V49.2z M384.8,42.3l1.4,2.1h-1l-2-2.1H384.8z"/>
	<path class="st11" d="M397.1,53.6h-1.3V41.9h1.3V53.6z"/>
</g>
<g class="st13">
	<path class="st11" d="M400.4,44.7c0,1.1-0.7,1.6-1.5,1.7v-0.7c0.5-0.1,0.8-0.4,0.8-1v-0.4h-0.9v-1.6h1.6V44.7z"/>
</g>
<g class="st13">
	<path class="st11" d="M408.7,51.1c-0.6,1.7-1.9,2.7-3.8,2.7c-2.3,0-4.1-1.9-4.1-4.2c0-2.3,1.8-4.3,4.1-4.3c2.1,0,4.1,1.7,4.1,4.6
		h-6.8c0.2,1.7,1.5,2.7,2.8,2.7c1.1,0,2-0.5,2.4-1.5H408.7z M407.4,48.7c-0.3-1.3-1.4-2.2-2.6-2.2c-1.1,0-2.3,0.8-2.6,2.2H407.4z
		 M405.4,44.4h-1l1.4-2.1h1.6L405.4,44.4z"/>
	<path class="st11" d="M418,53.2c0,2.6-1.7,4.3-4.2,4.3c-1.9,0-3.4-1-3.8-2.7h1.4c0.5,1.2,1.8,1.4,2.4,1.4c2.1,0,2.8-1.6,2.8-3.1
		v-0.8c-0.6,0.8-1.6,1.4-2.7,1.4c-2.3,0-4-1.9-4-4.2s1.7-4.3,4-4.3c1.2,0,2.2,0.7,2.8,1.5v-1.3h1.3V53.2z M413.9,46.5
		c-1.5,0-2.7,1.3-2.7,3c0,1.6,1.2,3,2.7,3c1.5,0,2.7-1.3,2.7-3C416.7,47.9,415.4,46.5,413.9,46.5z"/>
	<path class="st11" d="M425.5,52.6c-0.6,0.7-1.5,1.1-2.8,1.1c-1.7,0-3.2-0.8-3.2-2.5c0-1.7,1.2-2.4,3.3-2.5c2-0.1,2.6-0.5,2.6-1.1
		c0-0.6-0.6-1.1-2-1.1c-0.8,0-2,0.3-2.1,1.4h-1.4c0.1-1.6,1.4-2.7,3.5-2.7c2.2,0,3.3,1,3.3,2.5v4.5c0,0.4,0.1,1,0.2,1.3h-1.3
		C425.6,53.3,425.6,53,425.5,52.6z M425.5,49.2c-0.5,0.5-1.5,0.6-2.4,0.6c-1.8,0.1-2.1,0.7-2.1,1.4c0,0.9,0.8,1.3,1.9,1.3
		c1.4,0,2.7-0.6,2.7-2.1V49.2z"/>
</g>
<g class="st13">
	<path class="st11" d="M430.4,53.6h-1.3V41.9h1.3V53.6z"/>
</g>
<g class="st13">
	<path class="st11" d="M434,44.3h-1.3v-1.6h1.3V44.3z M434,53.6h-1.3v-8.1h1.3V53.6z"/>
	<path class="st11" d="M439.7,53.6c-1.9,0.2-3.2-0.9-3.2-2.9v-3.9h-1.1v-1.3h1.1v-1.7h1.3v1.7h1.8v1.3h-1.8v3.9
		c0,1.4,0.9,1.8,1.9,1.7V53.6z"/>
	<path class="st11" d="M448.5,51.1c-0.6,1.7-1.9,2.7-3.8,2.7c-2.3,0-4.1-1.9-4.1-4.2c0-2.3,1.8-4.3,4.1-4.3c2.1,0,4.1,1.7,4.1,4.6
		h-6.8c0.2,1.7,1.5,2.7,2.8,2.7c1.1,0,2-0.5,2.4-1.5H448.5z M447.2,48.7c-0.3-1.3-1.4-2.2-2.6-2.2c-1.1,0-2.3,0.8-2.6,2.2H447.2z
		 M445.2,44.4h-1l1.4-2.1h1.6L445.2,44.4z"/>
	<path class="st11" d="M462.5,53.6h-1.3v-1.3c-0.6,0.8-1.6,1.5-2.8,1.5c-2.3,0-4-1.9-4-4.2s1.7-4.3,4-4.3c1.2,0,2.2,0.6,2.7,1.4
		v-4.8h1.3V53.6z M458.4,46.5c-1.5,0-2.7,1.3-2.7,3c0,1.6,1.2,3,2.7,3c1.5,0,2.7-1.3,2.7-3C461.2,47.9,459.9,46.5,458.4,46.5z"/>
	<path class="st11" d="M472.1,51.1c-0.6,1.7-1.9,2.7-3.8,2.7c-2.3,0-4.1-1.9-4.1-4.2c0-2.3,1.8-4.3,4.1-4.3c2.1,0,4.1,1.7,4.1,4.6
		h-6.8c0.2,1.7,1.5,2.7,2.8,2.7c1.1,0,2-0.5,2.4-1.5H472.1z M470.9,48.7c-0.3-1.3-1.4-2.2-2.6-2.2c-1.1,0-2.3,0.8-2.6,2.2H470.9z"/>
	<path class="st11" d="M476.9,53.8c-2,0-3.4-1.1-3.6-2.8h1.3c0.2,0.9,1.1,1.5,2.3,1.5c1.3,0,2-0.6,2-1.3c0-0.6-0.2-1-2.2-1.3
		c-2-0.3-3.2-0.8-3.2-2.3c0-1.2,1-2.4,3.2-2.4c1.9,0,3.1,0.9,3.3,2.5h-1.3c-0.2-0.9-1-1.3-1.9-1.3c-1.1,0-1.8,0.5-1.8,1.1
		c0,0.6,0.5,0.8,2,1c1.8,0.3,3.3,0.6,3.3,2.5C480.2,52.8,478.8,53.8,476.9,53.8z"/>
	<path class="st11" d="M489.9,53.6c-1.9,0.2-3.2-0.9-3.2-2.9v-3.9h-1.1v-1.3h1.1v-1.7h1.3v1.7h1.8v1.3H488v3.9
		c0,1.4,0.9,1.8,1.9,1.7V53.6z"/>
	<path class="st11" d="M498.7,51.1c-0.6,1.7-1.9,2.7-3.8,2.7c-2.3,0-4.1-1.9-4.1-4.2c0-2.3,1.8-4.3,4.1-4.3c2.1,0,4.1,1.7,4.1,4.6
		h-6.8c0.2,1.7,1.5,2.7,2.8,2.7c1.1,0,2-0.5,2.4-1.5H498.7z M497.4,48.7c-0.3-1.3-1.4-2.2-2.6-2.2c-1.1,0-2.3,0.8-2.6,2.2H497.4z"/>
	<path class="st11" d="M504.5,46.6c-1.4-0.1-2.6,0.7-2.6,2.3v4.7h-1.3v-8.1h1.3v0.9c0.6-0.9,1.7-1.2,2.6-1.1V46.6z"/>
	<path class="st11" d="M509.9,46.6c-1.4-0.1-2.6,0.7-2.6,2.3v4.7H506v-8.1h1.3v0.9c0.6-0.9,1.7-1.2,2.6-1.1V46.6z"/>
	<path class="st11" d="M512.7,44.3h-1.3v-1.6h1.3V44.3z M512.7,53.6h-1.3v-8.1h1.3V53.6z"/>
	<path class="st11" d="M518.4,53.6c-1.9,0.2-3.2-0.9-3.2-2.9v-3.9h-1.1v-1.3h1.1v-1.7h1.3v1.7h1.8v1.3h-1.8v3.9
		c0,1.4,0.9,1.8,1.9,1.7V53.6z"/>
	<path class="st11" d="M527.5,49.6c0,2.3-1.8,4.2-4.1,4.2c-2.3,0-4.1-1.9-4.1-4.2c0-2.4,1.8-4.3,4.1-4.3
		C525.7,45.3,527.5,47.2,527.5,49.6z M526.1,49.6c0-1.7-1.2-3-2.7-3c-1.5,0-2.7,1.4-2.7,3c0,1.6,1.2,3,2.7,3
		C524.9,52.5,526.1,51.2,526.1,49.6z"/>
	<path class="st11" d="M530.5,44.3h-1.3v-1.6h1.3V44.3z M530.5,53.6h-1.3v-8.1h1.3V53.6z"/>
</g>
<g class="st13">
	<path class="st11" d="M536.8,46.6c-1.4-0.1-2.6,0.7-2.6,2.3v4.7h-1.3v-8.1h1.3v0.9c0.6-0.9,1.7-1.2,2.6-1.1V46.6z"/>
</g>
<g class="st13">
	<path class="st11" d="M545.4,51.1c-0.6,1.7-1.9,2.7-3.8,2.7c-2.3,0-4.1-1.9-4.1-4.2c0-2.3,1.8-4.3,4.1-4.3c2.1,0,4.1,1.7,4.1,4.6
		h-6.8c0.2,1.7,1.5,2.7,2.8,2.7c1.1,0,2-0.5,2.4-1.5H545.4z M544.1,48.7c-0.3-1.3-1.4-2.2-2.6-2.2c-1.1,0-2.3,0.8-2.6,2.2H544.1z"/>
	<path class="st11" d="M550.1,53.8c-2,0-3.4-1.1-3.6-2.8h1.3c0.2,0.9,1.1,1.5,2.3,1.5c1.3,0,2-0.6,2-1.3c0-0.6-0.2-1-2.2-1.3
		c-2-0.3-3.2-0.8-3.2-2.3c0-1.2,1-2.4,3.2-2.4c1.9,0,3.1,0.9,3.3,2.5h-1.3c-0.2-0.9-1-1.3-1.9-1.3c-1.1,0-1.8,0.5-1.8,1.1
		c0,0.6,0.5,0.8,2,1c1.8,0.3,3.3,0.6,3.3,2.5C553.4,52.8,552.1,53.8,550.1,53.8z"/>
</g>
</svg>
